<svg width="30" height="27" viewBox="0 0 30 27" fill="none" xmlns="http://www.w3.org/2000/svg">
<path fill-rule="evenodd" clip-rule="evenodd" d="M9.6875 5.5625C9.6875 2.62849 12.066 0.25 15 0.25C17.934 0.25 20.3125 2.62849 20.3125 5.5625C20.3125 8.49651 17.934 10.875 15 10.875C12.066 10.875 9.6875 8.49651 9.6875 5.5625Z" fill="#A685FA"/>
<path fill-rule="evenodd" clip-rule="evenodd" d="M20.3125 9.8125C20.3125 7.46529 22.2153 5.5625 24.5625 5.5625C26.9097 5.5625 28.8125 7.46529 28.8125 9.8125C28.8125 12.1597 26.9097 14.0625 24.5625 14.0625C22.2153 14.0625 20.3125 12.1597 20.3125 9.8125Z" fill="#A685FA"/>
<path fill-rule="evenodd" clip-rule="evenodd" d="M1.1875 9.8125C1.1875 7.46529 3.09029 5.5625 5.4375 5.5625C7.78471 5.5625 9.6875 7.46529 9.6875 9.8125C9.6875 12.1597 7.78471 14.0625 5.4375 14.0625C3.09029 14.0625 1.1875 12.1597 1.1875 9.8125Z" fill="#A685FA"/>
<path fill-rule="evenodd" clip-rule="evenodd" d="M6.93897 17.4165C8.6361 14.7629 11.6118 13 15 13C18.3886 13 21.3646 14.7633 23.0617 17.4175C24.2349 19.2524 24.7425 21.4649 24.5044 23.6221C24.4672 23.9592 24.2712 24.2583 23.9771 24.4271C21.3317 25.945 18.2655 26.8125 15 26.8125C11.7345 26.8125 8.66833 25.945 6.02293 24.4271C5.72875 24.2583 5.53284 23.9592 5.49563 23.6221C5.25749 21.4645 5.76533 19.2516 6.93897 17.4165Z" fill="#A685FA"/>
<path d="M5.1999 16.1927C5.18284 16.2189 5.16589 16.2452 5.14903 16.2716C3.7813 18.4101 3.15536 20.957 3.34751 23.4678C2.48611 23.3369 1.65032 23.1265 0.848106 22.8439L0.685249 22.7866C0.388158 22.682 0.180572 22.4122 0.155587 22.0982L0.141891 21.9261C0.130691 21.7853 0.125 21.6432 0.125 21.5C0.125 18.6456 2.37615 16.317 5.1999 16.1927Z" fill="#A685FA"/>
<path d="M26.653 23.4677C26.8451 20.9574 26.2195 18.4111 24.8522 16.2728C24.8351 16.246 24.8179 16.2193 24.8006 16.1927C27.6241 16.3173 29.875 18.6458 29.875 21.5C29.875 21.6432 29.8693 21.7853 29.8581 21.9261L29.8444 22.0982C29.8194 22.4122 29.6118 22.682 29.3148 22.7866L29.1519 22.8439C28.3498 23.1264 27.5142 23.3368 26.653 23.4677Z" fill="#A685FA"/>
</svg>
