<svg width="33" height="28" viewBox="0 0 33 28" fill="none" xmlns="http://www.w3.org/2000/svg">
<path d="M16.0751 0.974159C16.3463 0.855659 16.6546 0.855659 16.9259 0.974159C22.1942 3.27599 27.1873 6.08986 31.8422 9.35271C32.1791 9.58883 32.3494 9.9982 32.2793 10.4036C32.2093 10.809 31.9116 11.1375 31.515 11.247C30.5447 11.5148 29.5828 11.8032 28.6296 12.1107C24.7606 13.3584 21.0362 14.9284 17.488 16.7891L17.4834 16.7915C17.3225 16.8759 17.162 16.9609 17.0018 17.0464C16.689 17.2136 16.3133 17.2136 16.0004 17.0464C15.8387 16.9601 15.6767 16.8743 15.5142 16.7891C13.7598 15.8691 11.9622 15.0201 10.1254 14.246V13.9291C10.1254 13.743 10.2209 13.5779 10.3687 13.4884C12.5009 12.1966 14.7003 11.0047 16.9604 9.91909C17.4893 9.66502 17.7122 9.03026 17.4581 8.50132C17.204 7.97237 16.5693 7.74953 16.0403 8.0036C13.7181 9.11905 11.4582 10.3437 9.26757 11.6709C8.62528 12.06 8.19349 12.6969 8.05147 13.4103C6.84033 12.9445 5.61327 12.5105 4.37128 12.11C3.41811 11.8026 2.45615 11.5148 1.48589 11.2469C1.08933 11.1375 0.791602 10.8089 0.721589 10.4036C0.651577 9.99818 0.821867 9.58882 1.15873 9.35269C5.81367 6.08984 10.8067 3.27599 16.0751 0.974159Z" fill="#A685FA"/>
<path d="M18.0033 18.9207C21.4583 17.0746 25.0883 15.514 28.8619 14.27C29.0521 16.2743 29.1735 18.2985 29.2238 20.3403C29.2346 20.7783 28.9754 21.1781 28.571 21.3469C24.5319 23.0333 20.69 25.0982 17.0896 27.4975C16.7328 27.7353 16.268 27.7353 15.9112 27.4975C12.3108 25.0982 8.4689 23.0333 4.42979 21.3469C4.02543 21.1781 3.76618 20.7783 3.77697 20.3403C3.82728 18.2984 3.94871 16.274 4.13892 14.2695C5.44367 14.6996 6.73125 15.1676 8.00037 15.6721V17.4718C7.3652 17.8392 6.93787 18.5259 6.93787 19.3125C6.93787 20.0142 7.27798 20.6365 7.80234 21.0234C7.67553 21.5627 7.48785 22.0903 7.23929 22.5956C7.88061 22.8983 8.51644 23.2107 9.14659 23.5327C9.50548 22.8027 9.7657 22.0366 9.92724 21.2543C10.6701 20.9232 11.1879 20.1783 11.1879 19.3125C11.1879 18.5259 10.7605 17.8392 10.1254 17.4718V16.5584C11.7848 17.2834 13.4104 18.0719 14.999 18.9207C15.9376 19.4222 17.0646 19.4222 18.0033 18.9207Z" fill="#A685FA"/>
<path d="M5.82185 24.5716C6.41562 23.9778 6.88831 23.309 7.23929 22.5956C7.88061 22.8983 8.51644 23.2107 9.14659 23.5327C8.69531 24.4505 8.08769 25.3109 7.32445 26.0742C6.90952 26.4891 6.23678 26.4891 5.82185 26.0742C5.40692 25.6593 5.40692 24.9865 5.82185 24.5716Z" fill="#A685FA"/>
</svg>
