<svg width="920" height="814" viewBox="0 0 920 814" fill="none" xmlns="http://www.w3.org/2000/svg">
<path d="M-501.154 929.631C-306.758 895.544 -108.158 906.214 85.5464 940.711C169.61 955.69 253.801 965.565 338.377 948.38C445.763 926.553 524.957 861.944 623.27 820.65C782.708 753.681 909.675 916.14 1058.4 940.839C1117.12 950.586 1165.53 925.707 1221.73 914.857C1293.88 900.93 1356.21 921.423 1421.03 952.74" stroke="url(#paint0_linear_121_1833)" stroke-miterlimit="10"/>
<path d="M-501.154 895.287C-306.604 855.327 -115.77 878.975 75.9099 922.244C160.23 941.275 244.78 951.689 329.843 930.631C374.002 919.705 415.726 901.879 456.015 880.95C516.32 849.633 569.68 797.309 630.19 769.327C792.832 694.099 908.88 883.797 1053.56 915.293C1119.4 929.631 1163.2 898.134 1223.91 882.668C1296.08 864.304 1359 893.928 1421.03 928.99" stroke="url(#paint1_linear_121_1833)" stroke-miterlimit="10"/>
<path d="M-501.154 860.072C-310.448 814.75 -135.53 852.582 49.2556 902.931C135.062 926.297 220.817 940.429 308.186 916.191C354.421 903.367 397.452 882.232 438.766 858.148C503.505 820.419 559.351 760.273 624.526 726.057C795.702 636.21 897.219 856.506 1045.15 891.594C1114.68 908.086 1155.41 870.28 1217.33 850.761C1292.27 827.139 1358.88 866.381 1421 905.239" stroke="url(#paint2_linear_121_1833)" stroke-miterlimit="10"/>
<path d="M-501.154 824.471C-319.034 774.251 -164.363 823.856 8.22351 880.642C93.8246 908.804 179.195 929.887 268.41 906.804C404.141 871.691 492.613 764.838 606.688 692.842C791.935 575.961 874.486 836.244 1036.1 869.382C1106.07 883.745 1145.64 839.091 1207.48 817.52C1285.81 790.205 1358.11 839.399 1421.03 881.437" stroke="url(#paint3_linear_121_1833)" stroke-miterlimit="10"/>
<path d="M-501.154 789.05C-324.442 731.931 -188.762 796.129 -26.4783 859.764C61.1475 894.107 149.773 921.962 243.14 893.569C381.562 851.479 471.777 736.83 586.21 657.088C780.761 521.535 844.628 811.185 1011.73 845.247C1082.85 859.738 1126.75 810.185 1187.65 785.998C1273.66 751.834 1352.62 809.98 1421.03 857.763" stroke="url(#paint4_linear_121_1833)" stroke-miterlimit="10"/>
<path d="M-501.154 754.271C-421.986 724.082 -344.714 717.131 -262.83 741.498C-187.224 763.992 -122.305 809.415 -50.954 841.553C33.3144 879.513 119.889 912.805 212.103 882.565C358.573 834.525 446.737 704.076 566.271 617.538C759.822 477.393 816.129 776.123 975.029 816.417C1055.48 836.808 1102.1 777.688 1170.5 750.654C1262.95 714.105 1349.32 782.33 1421.03 834.013" stroke="url(#paint5_linear_121_1833)" stroke-miterlimit="10"/>
<path d="M-501.154 720.697C-429.905 688.405 -358.913 678.351 -283.666 703.589C-209.547 728.443 -149.344 780.766 -81.0682 816.982C-1.64372 859.123 80.0874 901.417 171.481 874.435C324.717 829.242 420.903 682.737 539.822 587.939C742.599 426.275 776.25 751.372 942.377 788.794C1027.62 808.005 1080.7 739.446 1153.89 712.72C1252.36 676.786 1346.8 755.297 1421 810.236" stroke="url(#paint6_linear_121_1833)" stroke-miterlimit="10"/>
<path d="M-501.154 688.815C-336.488 600.327 -237.585 705 -103.468 789.589C-27.2984 837.629 54.7146 893.21 148.056 862.277C299.216 812.185 398.657 661.576 513.244 561.418C587.21 496.784 658.023 481.779 721.378 563.547C776.327 634.44 811.618 736.547 909.393 757.092C994.533 774.969 1054.66 704.794 1127.7 676.196C1235.19 634.081 1341.6 726.16 1421.03 786.511" stroke="url(#paint7_linear_121_1833)" stroke-miterlimit="10"/>
<path d="M-501.154 659.165C-341.665 558.853 -242.275 663.013 -116.488 757.554C-49.3906 807.979 26.5739 877.821 117.224 854.147C172.403 839.732 221.329 798.771 263.464 762.607C344.451 693.124 411.676 611.151 488.564 537.744C562.273 467.364 634.931 439.664 698.133 532.512C745.239 601.712 781.376 708.616 876.075 723.723C966.11 738.086 1032 660.781 1110.97 634.055C1224.86 595.48 1339.68 699.152 1421.03 762.709" stroke="url(#paint8_linear_121_1833)" stroke-miterlimit="10"/>
<path d="M-501.154 632.286C-438.978 587.529 -370.369 559.443 -294.61 586.708C-227.154 610.997 -174.717 667.424 -122.869 714.438C-64.435 767.428 9.37677 861.508 99.0785 843.015C149.568 832.602 193.983 793.924 231.709 760.991C314.978 688.277 387.969 604.046 462.832 523.022C532.902 447.153 610.558 392.573 675.912 498.168C719.917 569.241 754.081 681.659 853.88 685.609C942.454 689.123 1009.01 618.333 1088.85 592.222C1211.3 552.185 1335.53 669.861 1421.05 738.984" stroke="url(#paint9_linear_121_1833)" stroke-miterlimit="10"/>
<path d="M-501.154 607.611C-437.338 557.853 -366.243 524.818 -285.639 553.493C-217.62 577.679 -161.287 632.824 -111.003 682.403C-58.7196 733.983 11.4528 835.295 97.0539 818.008C144.955 808.338 187.089 769.583 222.406 738.138C303.163 666.193 375.283 584.169 448.249 504.581C515.064 431.713 593.54 365.283 659.817 470.391C703.181 539.155 736.115 648.906 834.043 650.265C921.849 651.471 995.071 587.682 1077.06 565.83C1204.67 531.794 1329.38 643.366 1421.03 714.643" stroke="url(#paint10_linear_121_1833)" stroke-miterlimit="10"/>
<path d="M-501.154 580.116C-430.751 524.689 -355.632 494.885 -269.57 533.359C-198.398 565.189 -136.068 625.412 -80.9913 678.735C-31.5785 726.596 29.6494 807.364 107.562 782.202C155.104 766.839 196.443 725.801 231.914 692.816C303.009 626.72 369.081 555.134 436.152 485.011C500.071 418.145 577.625 353.1 646.336 446.333C695.211 512.66 726.324 618.743 823.894 623.591C910.802 627.9 994.84 570.523 1078.62 555.134C1205.33 531.845 1323.17 619.256 1421.05 686.609" stroke="url(#paint11_linear_121_1833)" stroke-miterlimit="10"/>
<path d="M-501.154 549.569C-425.446 491.756 -348.303 466.339 -259.857 511.993C-192.093 546.952 -129.558 603.251 -73.8152 654.626C-21.865 702.512 41.9257 785.024 120.428 748.5C161.408 729.443 195.136 693.15 227.326 662.448C295.038 597.814 359.085 529.28 425.208 463.056C493.612 394.548 571.115 341.429 642.082 432.508C690.931 495.219 726.119 593.941 818.743 598.045C903.959 601.841 988.612 560.982 1071.78 547.388C1200.15 526.408 1314.13 591.915 1421.05 655.036" stroke="url(#paint12_linear_121_1833)" stroke-miterlimit="10"/>
<path d="M-501.154 516.533C-413.836 453.489 -330.542 439.228 -237.559 497.886C-170.744 540.027 -108.978 597.121 -49.1857 648.598C0.739752 691.585 56.8931 759.067 126.758 719.978C164.176 699.049 195.316 661.73 225.122 631.542C288.58 567.241 350.372 501.375 415.674 438.92C483.335 374.208 560.786 327.502 632.804 409.27C686.574 470.314 723.813 567.677 816.206 576.5C897.629 584.271 986.357 552.416 1066.45 540.002C1194.44 520.175 1307.05 565.445 1421 620.718" stroke="url(#paint13_linear_121_1833)" stroke-miterlimit="10"/>
<path d="M-501.154 481.625C-406.557 417.939 -319.572 411.117 -224.77 477.752C-153.24 528.024 -88.9619 591.555 -20.9424 646.649C25.8307 684.506 77.5758 736.419 136.036 692.919C174.684 664.167 206.234 620.846 238.321 585.554C292.578 525.92 348.193 467.082 407.883 412.861C481.029 346.405 560.351 315.011 634.009 395.112C687.932 453.745 729.246 545.259 817.846 555.186C901.704 564.573 992.38 542.541 1075.44 531.127C1197.59 514.353 1306.31 541.669 1421.03 584.169" stroke="url(#paint14_linear_121_1833)" stroke-miterlimit="10"/>
<path d="M-501.154 445.384C-393.307 377.902 -301.632 385.083 -202.627 464.184C-127.508 524.202 -63.4867 594.043 14.8101 650.676C68.5286 689.508 107.254 711.437 156.283 657.319C239.603 565.342 307.084 460.516 404.705 381.211C476.364 323.014 555.199 301.315 626.602 369.053C686.932 426.275 727.529 514.122 814.616 534.744C895.015 553.749 995.917 535 1076.75 523.971C1196.05 507.684 1303.72 517.251 1421.05 546.183" stroke="url(#paint15_linear_121_1833)" stroke-miterlimit="10"/>
<path d="M-501.154 408.424C-380.39 337.915 -282.051 360.82 -180.227 451.077C-107.287 515.738 -46.6228 590.606 36.1591 643.725C96.9257 682.737 128.911 689.636 170.481 627.515C236.348 529.101 302.65 428.507 398.605 355.921C476.185 297.211 554.789 284.028 630.6 351.714C693.724 408.09 738.652 498.784 827.918 518.739C907.086 536.436 999.479 528.024 1079.29 517.149C1195.16 501.349 1304 494.219 1421.05 507.274" stroke="url(#paint16_linear_121_1833)" stroke-miterlimit="10"/>
<path d="M-501.154 371.336C-369.523 298.622 -266.546 334.453 -162.21 433.944C-88.3725 504.35 -27.5035 590.35 63.4028 640.262C130.884 677.325 154.565 658.063 186.756 594.531C237.962 493.501 302.727 391.393 397.58 325.578C477.876 269.844 559.095 268.125 634.521 332.17C700.311 388.059 748.237 476.393 836.376 501.169C1025.42 554.314 1231.14 474.88 1421.05 468.288" stroke="url(#paint17_linear_121_1833)" stroke-miterlimit="10"/>
<path d="M-501.154 334.684C-435.672 299.776 -374.111 279.052 -300.837 304.47C-240.225 325.502 -190.581 369.643 -146.115 414.605C-72.7644 488.832 -10.0501 588.708 87.6736 632.824C160.973 665.911 178.324 621.334 203.056 559.136C243.37 457.669 304.239 353.715 399.349 294.313C606.637 164.812 681.448 426.84 846.371 483.651C1038.97 550.005 1232.7 466.287 1421.05 429.789" stroke="url(#paint18_linear_121_1833)" stroke-miterlimit="10"/>
<path d="M-501.154 299.058C-432.853 262.893 -369.908 242.733 -295.302 270.203C-232.715 293.235 -182.124 340.301 -136.786 387.982C-65.4857 462.953 8.24913 592.735 114.61 622.59C189.062 643.494 200.8 573.781 219.663 517.662C252.674 419.427 309.57 311.113 404.757 259.148C602.357 151.27 701.874 393.83 851.061 462.389C1046.79 552.339 1236.32 460.106 1421.03 392.445" stroke="url(#paint19_linear_121_1833)" stroke-miterlimit="10"/>
<path d="M-501.154 265.073C-432.186 227.523 -370.062 207.133 -294.148 233.73C-231.203 255.788 -179.766 305.008 -135.017 352.971C-62.4102 430.815 15.4252 578.68 128.321 600.738C205.055 615.742 215.819 539.027 232.58 481.42C261.362 382.595 313.184 273.204 412.65 227.241C610.532 135.804 717.252 368.668 863.209 443.973C939.199 483.164 1037.59 503.247 1122.24 489.602C1229.55 472.315 1327.68 408.68 1421.05 357.049" stroke="url(#paint20_linear_121_1833)" stroke-miterlimit="10"/>
<path d="M-501.154 233.269C-427.701 190.769 -356.709 166.274 -275.388 203.003C-214.365 230.576 -165.952 281.258 -122.203 330.452C-56.6437 404.166 25.9844 559.469 136.266 571.114C219.279 579.885 229.761 489.166 247.548 427.917C275.048 333.247 324.563 231.756 424.235 195.232C620.63 123.236 734.192 339.121 875.896 423.48C947.503 466.108 1041.1 495.296 1124.86 484.857C1237.06 470.853 1334.17 389.598 1421 324.065" stroke="url(#paint21_linear_121_1833)" stroke-miterlimit="10"/>
<path d="M-501.154 204.26C-431.802 160.042 -363.526 129.263 -281.59 162.376C-215.928 188.922 -163.645 245.272 -118.538 297.929C-54.0552 373.208 27.0352 527.767 141.597 530.486C223.277 532.41 238.398 440.382 257.671 378.928C287.478 283.976 334.61 191.872 439.151 165.018C639.339 113.566 750.493 310.959 893.734 405.654C963.855 452.026 1057.38 490.269 1142.8 477.932C1254.51 461.773 1344.27 368.848 1421.03 294.313" stroke="url(#paint22_linear_121_1833)" stroke-miterlimit="10"/>
<path d="M-501.154 178.637C-437.492 132.444 -371.369 93.7399 -290.406 120.876C-227.308 142.011 -177.613 193.77 -135.146 242.861C-65.5882 323.244 4.37915 466.236 124.118 475.367C215.153 482.292 238.808 393.753 265.001 323.706C300.728 228.139 350.525 147.217 459.936 132.418C653.897 106.18 765.665 273.076 900.423 378.133C967.981 430.789 1059.45 481.215 1147.85 472.597C1265.1 461.157 1351.39 352.048 1421.03 268.408" stroke="url(#paint23_linear_121_1833)" stroke-miterlimit="10"/>
<path d="M-501.154 158.426C-437.799 114.182 -372.471 77.7607 -293.123 103.615C-231.331 123.749 -182.149 173.225 -140.194 220.829C-72.6106 297.467 -1.07984 444.588 115.225 448.615C205.157 451.719 235.938 372.003 268.179 301.93C309.519 212.134 365.467 129.93 471.572 115.593C658.741 90.3029 775.66 246.221 908.496 345.943C973.671 394.856 1065.6 444.614 1149.31 442.972C1266.33 440.664 1353.01 329.272 1421.03 247.965" stroke="url(#paint24_linear_121_1833)" stroke-miterlimit="10"/>
<path d="M-501.154 144.601C-438.799 101.896 -374.419 66.4753 -296.634 90.0208C-236.534 108.206 -188.07 154.527 -146.781 199.874C-80.2737 272.947 -9.05053 418.529 103.487 419.222C191.728 419.76 229.3 349.483 267.82 281.027C314.875 197.412 376.641 117.183 478.978 103.127C659.381 78.3763 781.247 218.213 914.16 311.292C978.694 356.485 1069.63 406.91 1149.49 414.041C1265.92 424.428 1354.01 311.933 1421 233.551" stroke="url(#paint25_linear_121_1833)" stroke-miterlimit="10"/>
<path d="M-501.154 136.035C-441.336 95.1249 -377.392 59.7553 -302.683 78.7354C-238.995 94.894 -188.403 143.088 -145.038 189.743C-79.1204 260.662 -13.023 392.393 97.1051 387.494C180.425 383.801 222.893 320.5 266.411 258.199C319.847 181.664 384.356 109.899 482.208 95.997C659.894 70.733 784.374 191.615 922.617 277.846C986.485 317.704 1067.52 364.975 1141.11 384.032C1260.38 414.913 1351.21 303.059 1421.03 224.061" stroke="url(#paint26_linear_121_1833)" stroke-miterlimit="10"/>
<path d="M-501.154 131.623C-442.976 91.3289 -380.39 55.1899 -306.912 70.1431C-245.735 82.6084 -196.015 125.493 -153.393 168.557C-86.5528 236.064 -24.3255 357.306 82.3683 352.561C163.305 348.97 211.975 295.672 261.49 238.245C320.821 169.455 389.302 104.102 483.386 90.4056C653.564 65.6289 783.964 162.273 923.822 239.168C993.226 277.333 1066.22 323.988 1139.08 354.869C1256.38 404.602 1348.6 296.98 1421 218.47" stroke="url(#paint27_linear_121_1833)" stroke-miterlimit="10"/>
<path d="M-501.154 130.264C-378.75 43.4172 -272.876 43.8532 -161.723 146.833C-93.4727 210.057 -35.4741 318.576 67.4779 314.883C145.775 312.062 200.211 268.869 255.39 218.162C320.411 158.426 392.044 100.639 482.387 87.1995C644.542 63.0641 781.837 132.957 922.951 199.259C1000.63 235.757 1063.47 281.54 1135.83 325.938C1250.08 396.035 1343.34 295.954 1421.05 215.802" stroke="url(#paint28_linear_121_1833)" stroke-miterlimit="10"/>
<path d="M-501.154 130.854C-387.233 47.3414 -282.385 31.1314 -169.565 124.082C-99.5211 181.792 -45.5719 276.333 53.2025 274.384C217.664 271.152 318.95 109.95 479.696 85.6349C633.675 62.3459 778.326 103.64 919.952 158.349C1006.53 191.795 1061.04 239.168 1131.26 296.954C1241.42 387.597 1335.04 298.929 1421.03 214.879" stroke="url(#paint29_linear_121_1833)" stroke-miterlimit="10"/>
<path d="M-501.154 132.29C-396.972 52.8301 -292.944 19.1791 -179.151 97.8949C-108.799 146.551 -57.2075 227.857 33.6988 230.986C197.161 236.654 318.797 108.513 475.672 84.019C618.811 61.679 771.79 74.0673 909.88 115.516C1008.19 145.037 1058.4 198.72 1127.7 270.382C1153.59 297.16 1182.7 325.04 1221.58 329.246C1298.93 337.582 1371.28 260.867 1421.03 214.802" stroke="url(#paint30_linear_121_1833)" stroke-miterlimit="10"/>
<path d="M-501.154 133.47C-404.225 56.5748 -300.684 7.71408 -184.353 72.0923C-112.387 111.925 -62.3334 179.535 23.4984 184.536C183.193 193.847 317.72 108.206 471.341 84.3267C609.148 62.9101 765.306 45.0586 902.934 74.6059C1008.81 97.3306 1056.43 160.709 1120.6 241.707C1145.18 272.742 1173.01 308.445 1213.64 318.192C1292.11 337.018 1369.54 259.636 1421 214.519" stroke="url(#paint31_linear_121_1833)" stroke-miterlimit="10"/>
<path d="M-501.154 133.265C-406.557 55.2925 -301.427 -5.05885 -179.638 46.9567C-113.233 75.3242 -63.8198 127.314 10.0688 134.547C168.867 150.116 313.261 107.872 468.317 85.0963C550.022 73.0927 630.523 61.1917 711.537 44.8535C774.507 32.1574 835.709 25.5657 899.731 34.7479C1010.35 50.5988 1057.07 129.699 1114.43 215.879C1137.39 250.377 1164.99 293.21 1206.72 306.932C1286.68 333.247 1366.44 258.353 1421.03 212.878" stroke="url(#paint32_linear_121_1833)" stroke-miterlimit="10"/>
<path d="M-501.154 130.597C-410.043 53.0867 -304.861 -18.7296 -180.33 14.4854C-114.309 32.1061 -61.0263 73.0927 7.58274 81.762C164.099 101.511 309.109 106 465.497 84.1986C548.305 72.6567 625.935 55.6516 704.924 28.2588C765.742 7.17554 824.099 -10.1117 889.3 -5.49491C1005.4 2.71268 1052.56 96.1509 1104.97 186.896C1127.29 225.549 1154.25 275.281 1197.51 294.082C1279.02 329.503 1363 255.07 1421.08 208.979" stroke="url(#paint33_linear_121_1833)" stroke-miterlimit="10"/>
<path d="M-501.154 124.364C-411.324 46.1359 -306.553 -33.7598 -180.535 -21.6536C-112.874 -15.1645 -50.954 16.8451 16.2198 26.7455C169.764 49.3933 304.829 101.075 462.55 81.8132C545.998 71.605 620.989 49.8036 696.185 12.5104C752.825 -15.5749 806.8 -43.9936 871.693 -44.8144C997.839 -46.3533 1045.48 63.9104 1096.28 161.17C1118.22 203.183 1144.59 257.84 1189.29 280.36C1272.22 322.167 1359.67 248.53 1421.03 201.67" stroke="url(#paint34_linear_121_1833)" stroke-miterlimit="10"/>
<path d="M-501.154 113.464C-409.479 32.6959 -304.426 -52.4064 -177.177 -60.8192C-108.568 -65.359 -36.3454 -44.9427 30.4183 -31.0924C180.579 0.0451548 305.598 94.7658 465.062 77.5299C547.049 68.6811 619.451 41.9808 688.188 -3.05834C743.65 -39.4025 794.472 -78.3629 863.337 -82.3898C992.226 -89.9048 1039.43 38.1591 1086.46 135.342C1108.81 181.484 1134.47 237.296 1180.55 264.611C1263.3 313.652 1358.72 236.167 1421.03 189.999" stroke="url(#paint35_linear_121_1833)" stroke-miterlimit="10"/>
<path d="M-501.154 96.7408C-344.279 -41.1466 -178.946 -147.46 34.6214 -95.8039C186.653 -59.0237 303.752 84.0191 468.701 70.5278C552.277 63.6796 622.68 30.1055 686.266 -23.0642C736.063 -64.6921 780.427 -110.347 848.37 -117.708C977.951 -131.738 1025.44 -0.570331 1069.86 96.4843C1094.1 149.449 1120.35 215.699 1172.96 247.247C1257.79 298.109 1356.31 219.957 1421 172.866" stroke="url(#paint36_linear_121_1833)" stroke-miterlimit="10"/>
<path d="M-501.154 74.016C-350.199 -55.0482 -156.008 -197.809 55.1759 -138.612C203.414 -97.0608 315.414 61.166 478.338 52.8045C559.812 48.6238 629.036 9.56087 686.548 -45.789C732.168 -89.6739 772.944 -139.176 840.041 -146.614C964.342 -160.439 1014.93 -30.9641 1058.73 61.0891C1084.95 116.157 1112.43 183.562 1166.35 217.444C1252.69 271.691 1352.42 197.617 1421 149.808" stroke="url(#paint37_linear_121_1833)" stroke-miterlimit="10"/>
<path d="M-501.154 50.2653C-349.661 -73.3101 -150.779 -209.761 57.0725 -158.515C209.847 -120.863 330.868 36.1585 496.278 25.4117C571.243 20.5385 634.06 -15.9083 686.702 -67.3083C728.708 -108.321 765.537 -155.052 826.867 -165.081C949.195 -185.087 1009.63 -52.3551 1057.09 35.6712C1084.36 86.1991 1113.94 144.755 1163.43 177.355C1249.98 234.372 1347.37 171.25 1421.03 123.8" stroke="url(#paint38_linear_121_1833)" stroke-miterlimit="10"/>
<path d="M-501.154 26.5146C-346.79 -92.7005 -138.221 -224.535 68.093 -172.006C218.1 -133.815 346.502 9.50954 508.375 0.712035C577.394 -3.03267 637.827 -39.8386 686.087 -86.6731C724.761 -124.197 759.181 -168.903 814.745 -180.676C935.15 -206.17 1004.4 -72.4124 1056.84 11.0998C1088.36 61.2943 1121.32 116.542 1175.45 144.935C1261.1 189.846 1346.29 140.267 1421.03 95.8687" stroke="url(#paint39_linear_121_1833)" stroke-miterlimit="10"/>
<path d="M-501.154 2.76399C-341.844 -112.732 -128.2 -234.025 77.909 -182.933C226.481 -146.101 360.341 -13.3947 519.729 -24.2954C583.929 -28.6813 638.801 -60.973 684.677 -104.14C723.249 -140.433 757.9 -184.677 813.002 -194.859C927.487 -216.045 1002.07 -90.4434 1057.94 -12.6252C1090 32.0291 1123.99 77.5812 1172.86 104.641C1257.9 151.68 1343.6 108.616 1421.03 66.3471" stroke="url(#paint40_linear_121_1833)" stroke-miterlimit="10"/>
<path d="M-501.154 -20.9867C-340.742 -129.096 -133.762 -233.461 67.3754 -195.526C223.046 -166.158 363.724 -35.9656 527.212 -47.4305C589.209 -51.7908 642.005 -83.4413 687.163 -124.12C724.095 -157.412 757.643 -195.783 808.824 -205.452C914.775 -225.484 993.661 -117.298 1051.89 -46.6098C1090 -0.313895 1131.65 50.4962 1188.67 74.1699C1269.3 107.641 1348.68 71.8872 1421.05 35.6199" stroke="url(#paint41_linear_121_1833)" stroke-miterlimit="10"/>
<path d="M-501.154 -44.7374C-336.744 -146.46 -125.483 -239.796 73.7826 -201.656C225.686 -172.571 373.284 -57.0488 532.159 -68.7703C647.541 -77.2856 697.902 -190.473 801.905 -213.403C906.471 -236.436 991.611 -134.508 1055.89 -68.5394C1094.54 -28.8609 1134.88 12.8182 1187.06 34.3631C1267.84 67.7064 1346.24 38.1335 1421 4.02073" stroke="url(#paint42_linear_121_1833)" stroke-miterlimit="10"/>
<path d="M-501.154 -68.4881C-332.413 -162.901 -125.15 -239.539 72.2449 -207.76C225.379 -183.112 375.693 -78.3885 534.26 -90.2638C643.184 -98.4201 701.413 -200.117 801.956 -219.841C899.987 -239.052 984.332 -158.13 1051.66 -99.01C1093.23 -62.4863 1136 -24.1671 1188.37 -3.87902C1268.56 27.2072 1345.27 3.35392 1421.05 -28.0144" stroke="url(#paint43_linear_121_1833)" stroke-miterlimit="10"/>
<defs>
<linearGradient id="paint0_linear_121_1833" x1="459.936" y1="804.582" x2="459.936" y2="957.455" gradientUnits="userSpaceOnUse">
<stop stop-color="#333333"/>
<stop offset="1" stop-color="#333333" stop-opacity="0"/>
</linearGradient>
<linearGradient id="paint1_linear_121_1833" x1="459.936" y1="751.824" x2="459.936" y2="942.264" gradientUnits="userSpaceOnUse">
<stop stop-color="#333333"/>
<stop offset="1" stop-color="#333333" stop-opacity="0"/>
</linearGradient>
<linearGradient id="paint2_linear_121_1833" x1="459.923" y1="704.685" x2="459.923" y2="928.813" gradientUnits="userSpaceOnUse">
<stop stop-color="#333333"/>
<stop offset="1" stop-color="#333333" stop-opacity="0"/>
</linearGradient>
<linearGradient id="paint3_linear_121_1833" x1="459.936" y1="662.861" x2="459.936" y2="916.655" gradientUnits="userSpaceOnUse">
<stop stop-color="#333333"/>
<stop offset="1" stop-color="#333333" stop-opacity="0"/>
</linearGradient>
<linearGradient id="paint4_linear_121_1833" x1="459.936" y1="621.197" x2="459.936" y2="905.293" gradientUnits="userSpaceOnUse">
<stop stop-color="#333333"/>
<stop offset="1" stop-color="#333333" stop-opacity="0"/>
</linearGradient>
<linearGradient id="paint5_linear_121_1833" x1="459.936" y1="580.397" x2="459.936" y2="894.325" gradientUnits="userSpaceOnUse">
<stop stop-color="#333333"/>
<stop offset="1" stop-color="#333333" stop-opacity="0"/>
</linearGradient>
<linearGradient id="paint6_linear_121_1833" x1="459.923" y1="543.147" x2="459.923" y2="882.924" gradientUnits="userSpaceOnUse">
<stop stop-color="#333333"/>
<stop offset="1" stop-color="#333333" stop-opacity="0"/>
</linearGradient>
<linearGradient id="paint7_linear_121_1833" x1="459.936" y1="507.476" x2="459.936" y2="871.208" gradientUnits="userSpaceOnUse">
<stop stop-color="#333333"/>
<stop offset="1" stop-color="#333333" stop-opacity="0"/>
</linearGradient>
<linearGradient id="paint8_linear_121_1833" x1="459.936" y1="473.304" x2="459.936" y2="858.902" gradientUnits="userSpaceOnUse">
<stop stop-color="#333333"/>
<stop offset="1" stop-color="#333333" stop-opacity="0"/>
</linearGradient>
<linearGradient id="paint9_linear_121_1833" x1="459.949" y1="439.449" x2="459.949" y2="845.387" gradientUnits="userSpaceOnUse">
<stop stop-color="#333333"/>
<stop offset="1" stop-color="#333333" stop-opacity="0"/>
</linearGradient>
<linearGradient id="paint10_linear_121_1833" x1="459.936" y1="415.805" x2="459.936" y2="819.968" gradientUnits="userSpaceOnUse">
<stop stop-color="#333333"/>
<stop offset="1" stop-color="#333333" stop-opacity="0"/>
</linearGradient>
<linearGradient id="paint11_linear_121_1833" x1="459.949" y1="399.878" x2="459.949" y2="786.95" gradientUnits="userSpaceOnUse">
<stop stop-color="#333333"/>
<stop offset="1" stop-color="#333333" stop-opacity="0"/>
</linearGradient>
<linearGradient id="paint12_linear_121_1833" x1="459.949" y1="384.077" x2="459.949" y2="757.564" gradientUnits="userSpaceOnUse">
<stop stop-color="#333333"/>
<stop offset="1" stop-color="#333333" stop-opacity="0"/>
</linearGradient>
<linearGradient id="paint13_linear_121_1833" x1="459.923" y1="365.648" x2="459.923" y2="731.719" gradientUnits="userSpaceOnUse">
<stop stop-color="#333333"/>
<stop offset="1" stop-color="#333333" stop-opacity="0"/>
</linearGradient>
<linearGradient id="paint14_linear_121_1833" x1="459.936" y1="347.525" x2="459.936" y2="709.442" gradientUnits="userSpaceOnUse">
<stop stop-color="#333333"/>
<stop offset="1" stop-color="#333333" stop-opacity="0"/>
</linearGradient>
<linearGradient id="paint15_linear_121_1833" x1="459.949" y1="327.068" x2="459.949" y2="689.652" gradientUnits="userSpaceOnUse">
<stop stop-color="#333333"/>
<stop offset="1" stop-color="#333333" stop-opacity="0"/>
</linearGradient>
<linearGradient id="paint16_linear_121_1833" x1="459.949" y1="306.196" x2="459.949" y2="673.625" gradientUnits="userSpaceOnUse">
<stop stop-color="#333333"/>
<stop offset="1" stop-color="#333333" stop-opacity="0"/>
</linearGradient>
<linearGradient id="paint17_linear_121_1833" x1="459.949" y1="283.938" x2="459.949" y2="659.007" gradientUnits="userSpaceOnUse">
<stop stop-color="#333333"/>
<stop offset="1" stop-color="#333333" stop-opacity="0"/>
</linearGradient>
<linearGradient id="paint18_linear_121_1833" x1="459.949" y1="258.793" x2="459.949" y2="644.063" gradientUnits="userSpaceOnUse">
<stop stop-color="#333333"/>
<stop offset="1" stop-color="#333333" stop-opacity="0"/>
</linearGradient>
<linearGradient id="paint19_linear_121_1833" x1="459.936" y1="231.893" x2="459.936" y2="626.385" gradientUnits="userSpaceOnUse">
<stop stop-color="#333333"/>
<stop offset="1" stop-color="#333333" stop-opacity="0"/>
</linearGradient>
<linearGradient id="paint20_linear_121_1833" x1="459.949" y1="206.284" x2="459.949" y2="602.644" gradientUnits="userSpaceOnUse">
<stop stop-color="#333333"/>
<stop offset="1" stop-color="#333333" stop-opacity="0"/>
</linearGradient>
<linearGradient id="paint21_linear_121_1833" x1="459.923" y1="180.77" x2="459.923" y2="571.705" gradientUnits="userSpaceOnUse">
<stop stop-color="#333333"/>
<stop offset="1" stop-color="#333333" stop-opacity="0"/>
</linearGradient>
<linearGradient id="paint22_linear_121_1833" x1="459.936" y1="148.456" x2="459.936" y2="530.516" gradientUnits="userSpaceOnUse">
<stop stop-color="#333333"/>
<stop offset="1" stop-color="#333333" stop-opacity="0"/>
</linearGradient>
<linearGradient id="paint23_linear_121_1833" x1="459.936" y1="111.891" x2="459.936" y2="475.749" gradientUnits="userSpaceOnUse">
<stop stop-color="#333333"/>
<stop offset="1" stop-color="#333333" stop-opacity="0"/>
</linearGradient>
<linearGradient id="paint24_linear_121_1833" x1="459.936" y1="94.9958" x2="459.936" y2="448.703" gradientUnits="userSpaceOnUse">
<stop stop-color="#333333"/>
<stop offset="1" stop-color="#333333" stop-opacity="0"/>
</linearGradient>
<linearGradient id="paint25_linear_121_1833" x1="459.923" y1="82.4922" x2="459.923" y2="419.225" gradientUnits="userSpaceOnUse">
<stop stop-color="#333333"/>
<stop offset="1" stop-color="#333333" stop-opacity="0"/>
</linearGradient>
<linearGradient id="paint26_linear_121_1833" x1="459.936" y1="73.4679" x2="459.936" y2="389.291" gradientUnits="userSpaceOnUse">
<stop stop-color="#333333"/>
<stop offset="1" stop-color="#333333" stop-opacity="0"/>
</linearGradient>
<linearGradient id="paint27_linear_121_1833" x1="459.923" y1="66.6965" x2="459.923" y2="367.522" gradientUnits="userSpaceOnUse">
<stop stop-color="#333333"/>
<stop offset="1" stop-color="#333333" stop-opacity="0"/>
</linearGradient>
<linearGradient id="paint28_linear_121_1833" x1="459.949" y1="67.2205" x2="459.949" y2="349.632" gradientUnits="userSpaceOnUse">
<stop stop-color="#333333"/>
<stop offset="1" stop-color="#333333" stop-opacity="0"/>
</linearGradient>
<linearGradient id="paint29_linear_121_1833" x1="459.936" y1="61.0151" x2="459.936" y2="335.086" gradientUnits="userSpaceOnUse">
<stop stop-color="#333333"/>
<stop offset="1" stop-color="#333333" stop-opacity="0"/>
</linearGradient>
<linearGradient id="paint30_linear_121_1833" x1="459.936" y1="53.1099" x2="459.936" y2="329.873" gradientUnits="userSpaceOnUse">
<stop stop-color="#333333"/>
<stop offset="1" stop-color="#333333" stop-opacity="0"/>
</linearGradient>
<linearGradient id="paint31_linear_121_1833" x1="459.923" y1="42.2808" x2="459.923" y2="321.088" gradientUnits="userSpaceOnUse">
<stop stop-color="#333333"/>
<stop offset="1" stop-color="#333333" stop-opacity="0"/>
</linearGradient>
<linearGradient id="paint32_linear_121_1833" x1="459.936" y1="27.5073" x2="459.936" y2="312.394" gradientUnits="userSpaceOnUse">
<stop stop-color="#333333"/>
<stop offset="1" stop-color="#333333" stop-opacity="0"/>
</linearGradient>
<linearGradient id="paint33_linear_121_1833" x1="459.961" y1="-6.24744" x2="459.961" y2="303.338" gradientUnits="userSpaceOnUse">
<stop stop-color="#333333"/>
<stop offset="1" stop-color="#333333" stop-opacity="0"/>
</linearGradient>
<linearGradient id="paint34_linear_121_1833" x1="459.936" y1="-44.8303" x2="459.936" y2="292.744" gradientUnits="userSpaceOnUse">
<stop stop-color="#333333"/>
<stop offset="1" stop-color="#333333" stop-opacity="0"/>
</linearGradient>
<linearGradient id="paint35_linear_121_1833" x1="459.936" y1="-82.7058" x2="459.936" y2="280.296" gradientUnits="userSpaceOnUse">
<stop stop-color="#333333"/>
<stop offset="1" stop-color="#333333" stop-opacity="0"/>
</linearGradient>
<linearGradient id="paint36_linear_121_1833" x1="459.923" y1="-118.746" x2="459.923" y2="263.815" gradientUnits="userSpaceOnUse">
<stop stop-color="#333333"/>
<stop offset="1" stop-color="#333333" stop-opacity="0"/>
</linearGradient>
<linearGradient id="paint37_linear_121_1833" x1="459.923" y1="-152.399" x2="459.923" y2="236.485" gradientUnits="userSpaceOnUse">
<stop stop-color="#333333"/>
<stop offset="1" stop-color="#333333" stop-opacity="0"/>
</linearGradient>
<linearGradient id="paint38_linear_121_1833" x1="459.936" y1="-169.585" x2="459.936" y2="199.975" gradientUnits="userSpaceOnUse">
<stop stop-color="#333333"/>
<stop offset="1" stop-color="#333333" stop-opacity="0"/>
</linearGradient>
<linearGradient id="paint39_linear_121_1833" x1="459.936" y1="-183.878" x2="459.936" y2="162.624" gradientUnits="userSpaceOnUse">
<stop stop-color="#333333"/>
<stop offset="1" stop-color="#333333" stop-opacity="0"/>
</linearGradient>
<linearGradient id="paint40_linear_121_1833" x1="459.936" y1="-197.231" x2="459.936" y2="125.119" gradientUnits="userSpaceOnUse">
<stop stop-color="#333333"/>
<stop offset="1" stop-color="#333333" stop-opacity="0"/>
</linearGradient>
<linearGradient id="paint41_linear_121_1833" x1="459.949" y1="-207.885" x2="459.949" y2="87.5126" gradientUnits="userSpaceOnUse">
<stop stop-color="#333333"/>
<stop offset="1" stop-color="#333333" stop-opacity="0"/>
</linearGradient>
<linearGradient id="paint42_linear_121_1833" x1="459.923" y1="-216.726" x2="459.923" y2="48.9728" gradientUnits="userSpaceOnUse">
<stop stop-color="#333333"/>
<stop offset="1" stop-color="#333333" stop-opacity="0"/>
</linearGradient>
<linearGradient id="paint43_linear_121_1833" x1="459.949" y1="-222.724" x2="459.949" y2="10.6519" gradientUnits="userSpaceOnUse">
<stop stop-color="#333333"/>
<stop offset="1" stop-color="#333333" stop-opacity="0"/>
</linearGradient>
</defs>
</svg>
