<svg width="1597" height="952" viewBox="0 0 1597 952" fill="none" xmlns="http://www.w3.org/2000/svg">
<path d="M-402.941 1087.8C-159.652 1037.83 78.9894 1067.4 318.689 1121.51C424.132 1145.3 529.864 1158.32 636.237 1131.99C691.458 1118.33 743.635 1096.04 794.017 1069.87C869.43 1030.71 936.158 965.289 1011.83 930.299C1215.21 836.236 1360.33 1073.43 1541.26 1112.81C1623.59 1130.74 1678.36 1091.36 1754.29 1072.02C1844.54 1049.06 1923.22 1086.1 2000.78 1129.94" stroke="url(#paint0_linear_104_13757)" stroke-miterlimit="10"/>
<path d="M-402.941 1043.77C-164.46 987.097 54.279 1034.4 285.357 1097.36C392.659 1126.57 499.897 1144.24 609.155 1113.94C666.972 1097.9 720.784 1071.48 772.448 1041.36C853.405 994.185 923.241 918.979 1004.74 876.196C1218.8 763.852 1345.75 1039.31 1530.74 1083.18C1617.69 1103.8 1668.62 1056.53 1746.05 1032.12C1839.77 1002.59 1923.06 1051.66 2000.75 1100.24" stroke="url(#paint1_linear_104_13757)" stroke-miterlimit="10"/>
<path d="M-402.941 999.252C-175.197 936.457 18.2232 998.482 234.046 1069.49C341.091 1104.7 447.849 1131.06 559.414 1102.2C729.149 1058.29 839.784 924.687 982.437 834.664C1214.09 688.517 1317.32 1013.97 1519.43 1055.41C1606.92 1073.37 1656.41 1017.53 1733.75 990.561C1831.69 956.405 1922.1 1017.92 2000.78 1070.48" stroke="url(#paint2_linear_104_13757)" stroke-miterlimit="10"/>
<path d="M-402.941 954.962C-181.959 883.54 -12.2881 963.813 190.65 1043.38C300.228 1086.32 411.056 1121.15 527.813 1085.65C700.913 1033.02 813.728 889.666 956.83 789.957C1200.12 620.463 1279.99 982.639 1488.95 1025.23C1577.89 1043.35 1632.79 981.388 1708.94 951.145C1816.5 908.427 1915.24 981.132 2000.78 1040.88" stroke="url(#paint3_linear_104_13757)" stroke-miterlimit="10"/>
<path d="M-402.941 911.474C-303.94 873.726 -207.31 865.035 -104.912 895.503C-10.3651 923.629 70.8167 980.426 160.043 1020.61C265.422 1068.08 373.686 1109.7 489.001 1071.89C672.165 1011.82 782.415 848.711 931.895 740.504C1173.93 565.269 1244.35 938.798 1443.05 989.181C1543.66 1014.68 1601.96 940.755 1687.5 906.952C1803.1 861.251 1911.11 946.559 2000.78 1011.18" stroke="url(#paint4_linear_104_13757)" stroke-miterlimit="10"/>
<path d="M-402.941 869.493C-313.843 829.116 -225.066 816.544 -130.968 848.102C-38.2804 879.179 37.0042 944.603 122.385 989.887C221.706 1042.58 323.913 1095.46 438.202 1061.73C629.827 1005.22 750.109 822.028 898.82 703.494C1152.4 501.352 1194.48 907.85 1402.22 954.641C1508.82 978.662 1575.2 892.937 1666.73 859.519C1789.86 814.588 1907.97 912.757 2000.75 981.452" stroke="url(#paint5_linear_104_13757)" stroke-miterlimit="10"/>
<path d="M-402.941 829.629C-197.022 718.985 -73.3427 849.866 94.3732 955.636C189.625 1015.7 292.184 1085.2 408.909 1046.52C597.937 983.89 722.29 795.57 865.584 670.333C958.08 589.515 1046.63 570.753 1125.86 672.995C1194.57 761.639 1238.71 889.313 1360.98 915.002C1467.44 937.355 1542.63 849.609 1633.97 813.85C1768.39 761.19 1901.46 876.324 2000.78 951.787" stroke="url(#paint6_linear_104_13757)" stroke-miterlimit="10"/>
<path d="M-402.941 792.555C-203.496 667.126 -79.2078 797.366 78.0919 915.579C161.998 978.63 256.993 1065.96 370.353 1036.36C439.356 1018.33 500.539 967.117 553.228 921.897C654.505 835.017 738.571 732.519 834.72 640.732C926.895 552.729 1017.76 518.093 1096.79 634.189C1155.7 720.717 1200.89 854.388 1319.31 873.278C1431.9 891.237 1514.3 794.576 1613.05 761.158C1755.47 712.923 1899.06 842.554 2000.78 922.025" stroke="url(#paint7_linear_104_13757)" stroke-miterlimit="10"/>
<path d="M-402.941 758.945C-325.189 702.981 -239.392 667.864 -144.653 701.955C-60.2985 732.326 5.27509 802.882 70.1116 861.668C143.185 927.926 235.488 1045.56 347.662 1022.44C410.799 1009.42 466.342 961.055 513.519 919.876C617.648 828.955 708.925 723.635 802.542 622.323C890.166 527.457 987.277 459.211 1069 591.246C1124.03 680.115 1166.75 820.681 1291.56 825.62C1402.32 830.014 1485.55 741.498 1585.39 708.85C1738.52 658.788 1893.87 805.929 2000.82 892.359" stroke="url(#paint8_linear_104_13757)" stroke-miterlimit="10"/>
<path d="M-402.941 728.093C-323.138 665.875 -234.232 624.568 -133.436 660.423C-48.376 690.666 22.0691 759.619 84.9506 821.611C150.332 886.106 238.084 1012.79 345.13 991.17C405.031 979.079 457.72 930.62 501.885 891.301C602.873 801.343 693.061 698.78 784.306 599.264C867.86 508.151 965.996 425.088 1048.88 556.514C1103.1 642.496 1144.29 779.727 1266.75 781.427C1376.55 782.934 1468.12 703.174 1570.64 675.85C1730.22 633.292 1886.17 772.8 2000.78 861.925" stroke="url(#paint9_linear_104_13757)" stroke-miterlimit="10"/>
<path d="M-402.941 693.713C-314.901 624.408 -220.963 587.141 -113.341 635.248C-24.3388 675.048 53.606 750.35 122.481 817.025C184.272 876.869 260.839 977.86 358.27 946.399C417.722 927.189 469.418 875.875 513.775 834.632C602.681 751.986 685.305 662.476 769.179 574.794C849.111 491.185 946.093 409.854 1032.02 526.431C1093.14 609.367 1132.05 742.012 1254.06 748.073C1362.74 753.461 1467.83 681.718 1572.6 662.476C1731.05 633.356 1878.42 742.653 2000.82 826.871" stroke="url(#paint10_linear_104_13757)" stroke-miterlimit="10"/>
<path d="M-402.941 655.517C-308.267 583.229 -211.797 551.447 -101.194 608.533C-16.4545 652.245 61.7466 722.641 131.455 786.879C196.419 846.755 276.191 949.927 374.359 904.258C425.606 880.429 467.784 835.049 508.038 796.66C592.713 715.842 672.805 630.149 755.494 547.342C841.034 461.68 937.952 395.262 1026.7 509.145C1087.78 587.558 1131.79 710.999 1247.62 716.13C1354.18 720.877 1460.04 669.788 1564.04 652.791C1724.58 626.557 1867.1 708.466 2000.82 787.392" stroke="url(#paint11_linear_104_13757)" stroke-miterlimit="10"/>
<path d="M-402.941 614.209C-293.748 535.379 -189.587 517.548 -73.3107 590.894C10.2428 643.586 87.4824 714.976 162.254 779.342C224.687 833.093 294.908 917.471 382.275 868.595C429.068 842.425 468.008 795.762 505.282 758.015C584.637 677.613 661.908 595.256 743.571 517.163C828.182 436.248 925.036 377.847 1015.1 480.089C1082.34 556.418 1128.9 678.159 1244.44 689.191C1346.26 698.909 1457.22 659.077 1557.38 643.554C1717.43 618.763 1858.26 675.369 2000.75 744.481" stroke="url(#paint12_linear_104_13757)" stroke-miterlimit="10"/>
<path d="M-402.941 570.561C-284.646 490.929 -175.87 482.398 -57.3179 565.718C32.1327 628.577 112.513 708.016 197.573 776.905C256.064 824.241 320.772 889.153 393.877 834.76C442.208 798.809 481.661 744.641 521.787 700.512C589.637 625.947 659.184 552.377 733.828 484.579C825.298 401.483 924.491 362.229 1016.6 462.386C1084.03 535.7 1135.7 650.129 1246.49 662.54C1351.36 674.278 1464.75 646.729 1568.63 632.458C1721.37 611.483 1857.33 645.639 2000.78 698.78" stroke="url(#paint13_linear_104_13757)" stroke-miterlimit="10"/>
<path d="M-402.941 525.245C-268.076 440.866 -153.435 449.846 -29.627 548.753C64.3106 623.799 144.371 711.127 242.282 781.94C309.458 830.495 357.886 857.916 419.197 790.246C523.39 675.24 607.777 544.167 729.854 445.004C819.465 372.235 918.049 345.103 1007.34 429.802C1082.78 501.352 1133.55 611.195 1242.46 636.98C1343 660.744 1469.18 637.3 1570.26 623.51C1719.45 603.145 1854.09 615.107 2000.82 651.283" stroke="url(#paint14_linear_104_13757)" stroke-miterlimit="10"/>
<path d="M-402.941 479.031C-251.923 390.868 -128.949 419.507 -1.61555 532.365C89.5978 613.215 165.459 706.83 268.98 773.249C344.969 822.028 384.968 830.655 436.952 752.98C519.32 629.924 602.232 504.142 722.226 413.382C819.24 339.972 917.537 323.487 1012.34 408.122C1091.28 478.614 1147.46 592.016 1259.09 616.967C1358.09 639.096 1473.63 628.577 1573.43 614.979C1718.33 595.223 1854.44 586.308 2000.82 602.632" stroke="url(#paint15_linear_104_13757)" stroke-miterlimit="10"/>
<path d="M-402.941 432.656C-238.334 341.735 -109.559 386.538 20.9154 510.941C113.25 598.976 189.368 706.509 303.049 768.919C387.435 815.261 417.049 791.176 457.304 711.737C521.339 585.41 602.328 457.736 720.944 375.442C821.356 305.752 922.921 303.603 1017.24 383.684C1099.51 453.567 1159.45 564.018 1269.67 594.999C1506.06 661.45 1763.33 562.126 2000.82 553.884" stroke="url(#paint16_linear_104_13757)" stroke-miterlimit="10"/>
<path d="M-402.941 386.827C-321.055 343.179 -244.071 317.265 -152.441 349.048C-76.6438 375.346 -14.5636 430.54 41.0425 486.76C132.769 579.573 211.194 704.457 333.4 759.618C425.062 800.99 446.759 745.251 477.687 667.479C528.101 540.607 604.219 410.624 723.156 336.347C982.373 174.422 1075.93 502.058 1282.17 573.094C1523.02 656.062 1765.28 551.382 2000.82 505.746" stroke="url(#paint17_linear_104_13757)" stroke-miterlimit="10"/>
<path d="M-402.941 342.281C-317.529 297.061 -238.815 271.853 -145.519 306.201C-67.2533 335 -3.98724 393.85 52.7086 453.47C141.871 547.213 234.078 709.492 367.084 746.822C460.188 772.96 474.867 685.791 498.455 615.62C539.735 492.789 610.886 357.354 729.918 292.378C977.021 157.488 1101.47 460.782 1288.03 546.508C1532.79 658.98 1769.8 543.653 2000.78 459.05" stroke="url(#paint18_linear_104_13757)" stroke-miterlimit="10"/>
<path d="M-402.941 299.787C-316.696 252.835 -239.007 227.339 -144.076 260.596C-65.3623 288.177 -1.03866 349.721 54.92 409.693C145.717 507.028 243.052 691.917 384.23 719.498C480.187 738.259 493.648 642.335 514.608 570.304C550.6 446.735 615.405 309.953 739.789 252.482C987.245 138.15 1120.7 429.321 1303.22 523.481C1398.25 572.485 1521.29 597.597 1627.15 580.535C1761.34 558.919 1884.06 479.351 2000.82 414.793" stroke="url(#paint19_linear_104_13757)" stroke-miterlimit="10"/>
<path d="M-402.941 260.019C-311.087 206.878 -222.31 176.25 -120.616 222.175C-44.3058 256.652 16.236 320.024 70.9448 381.535C152.928 473.707 256.256 667.896 394.166 682.456C497.974 693.424 511.083 579.99 533.325 503.405C567.714 385.031 629.634 258.127 754.276 212.458C999.872 122.435 1141.88 392.375 1319.09 497.856C1408.63 551.158 1525.68 587.655 1630.42 574.602C1770.73 557.091 1892.17 455.491 2000.75 373.55" stroke="url(#paint20_linear_104_13757)" stroke-miterlimit="10"/>
<path d="M-402.941 223.747C-316.215 168.457 -230.835 129.972 -128.372 171.375C-46.2607 204.568 19.1206 275.028 75.528 340.869C156.165 434.997 257.57 628.256 400.832 631.656C502.974 634.061 521.884 518.991 545.985 442.149C583.259 323.423 642.198 208.257 772.929 174.678C1023.27 110.344 1162.27 357.161 1341.39 475.567C1429.08 533.551 1546.03 581.369 1652.85 565.943C1792.56 545.738 1904.79 429.545 2000.78 336.347" stroke="url(#paint21_linear_104_13757)" stroke-miterlimit="10"/>
<path d="M-402.941 191.708C-323.33 133.949 -240.642 85.5536 -139.397 119.485C-60.4908 145.911 1.6535 210.63 54.7598 272.013C141.743 372.523 229.238 551.318 378.974 562.736C492.815 571.395 522.396 460.686 555.151 373.101C599.828 253.605 662.101 152.421 798.921 133.916C1041.47 101.108 1181.24 309.793 1349.76 441.155C1434.24 506.996 1548.63 570.048 1659.17 559.272C1805.79 544.968 1913.7 408.539 2000.78 303.956" stroke="url(#paint22_linear_104_13757)" stroke-miterlimit="10"/>
<path d="M-402.941 166.436C-323.715 111.114 -242.02 65.5734 -142.794 97.9008C-65.5226 123.076 -4.01929 184.941 48.446 244.465C132.961 340.292 222.412 524.251 367.853 529.286C480.315 533.166 518.807 433.49 559.125 345.873C610.821 233.593 680.786 130.806 813.471 112.878C1047.53 81.2561 1193.74 276.215 1359.85 400.906C1441.36 462.065 1556.32 524.283 1660.99 522.23C1807.33 519.344 1915.72 380.06 2000.78 278.396" stroke="url(#paint23_linear_104_13757)" stroke-miterlimit="10"/>
<path d="M-402.941 149.15C-324.965 95.752 -244.456 51.4621 -147.185 80.9032C-72.0287 103.641 -11.4228 161.561 40.2092 218.263C123.378 309.632 212.444 491.666 353.174 492.532C463.521 493.206 510.506 405.332 558.676 319.735C617.52 215.184 694.759 114.866 822.734 97.2914C1048.33 66.343 1200.73 241.193 1366.94 357.578C1447.64 414.087 1561.35 477.138 1661.22 486.054C1806.82 499.043 1916.97 358.38 2000.75 260.372" stroke="url(#paint24_linear_104_13757)" stroke-miterlimit="10"/>
<path d="M-402.941 138.438C-328.137 87.2854 -248.174 43.0597 -154.749 66.7921C-75.1054 86.9967 -11.8394 147.258 42.3886 205.595C124.82 294.271 207.476 458.986 345.194 452.861C449.387 448.243 502.494 369.092 556.914 291.192C623.737 195.492 704.406 105.758 826.772 88.3758C1048.97 56.786 1204.64 207.936 1377.51 315.758C1457.38 365.596 1558.72 424.703 1650.74 448.531C1799.9 487.145 1913.48 347.284 2000.78 248.505" stroke="url(#paint25_linear_104_13757)" stroke-miterlimit="10"/>
<path d="M-402.941 132.922C-330.189 82.5388 -251.923 37.351 -160.037 56.0483C-83.5345 71.6347 -21.3582 125.257 31.9404 179.104C115.526 263.515 193.342 415.113 326.765 409.18C427.978 404.69 488.84 338.047 550.76 266.241C624.955 180.227 710.592 98.5101 828.246 81.3843C1041.06 50.4038 1204.12 171.247 1379.02 267.395C1465.81 315.117 1557.09 373.453 1648.2 412.067C1794.9 474.252 1910.21 339.683 2000.75 241.514" stroke="url(#paint26_linear_104_13757)" stroke-miterlimit="10"/>
<path d="M-402.941 131.222C-249.872 22.6305 -117.475 23.1756 21.5243 151.94C106.873 230.995 179.401 366.686 308.144 362.068C406.056 358.54 474.13 304.533 543.133 241.129C624.443 166.436 714.021 94.1805 826.996 77.3754C1029.77 47.1967 1201.46 134.59 1377.93 217.493C1475.07 263.13 1553.66 320.376 1644.13 375.891C1787.01 463.54 1903.64 338.4 2000.82 238.179" stroke="url(#paint27_linear_104_13757)" stroke-miterlimit="10"/>
<path d="M-402.941 131.96C-260.481 27.5374 -129.365 7.26863 11.7171 123.493C99.3088 195.653 166.773 313.866 290.293 311.429C495.955 307.388 622.616 105.822 823.631 75.4192C1016.19 46.2989 1197.07 97.9329 1374.18 166.34C1482.44 208.16 1550.61 267.395 1638.43 339.651C1776.18 452.989 1893.26 342.12 2000.78 237.024" stroke="url(#paint28_linear_104_13757)" stroke-miterlimit="10"/>
<path d="M-402.941 133.756C-272.66 34.4005 -142.57 -7.67642 -0.269471 90.749C87.7068 151.587 152.223 253.252 265.903 257.165C470.316 264.252 622.423 104.026 818.599 73.3987C997.597 45.465 1188.9 60.9552 1361.58 112.782C1484.53 149.695 1547.31 216.819 1633.97 306.425C1666.34 339.907 1702.75 374.768 1751.37 380.028C1848.1 390.451 1938.57 294.527 2000.78 236.928" stroke="url(#paint29_linear_104_13757)" stroke-miterlimit="10"/>
<path d="M-402.941 135.231C-281.73 39.0829 -152.249 -22.0121 -6.77561 58.4857C83.2198 108.292 145.813 192.83 253.147 199.084C452.848 210.726 621.077 103.641 813.183 73.7835C985.514 47.0044 1180.79 24.6831 1352.9 61.6287C1485.3 90.0434 1544.84 169.29 1625.1 270.57C1655.83 309.376 1690.64 354.019 1741.44 366.205C1839.57 389.745 1936.39 292.988 2000.75 236.575" stroke="url(#paint30_linear_104_13757)" stroke-miterlimit="10"/>
<path d="M-402.941 134.975C-284.646 37.4794 -153.178 -37.9833 -0.878423 27.0563C82.1622 62.5267 143.954 127.534 236.353 136.578C434.933 156.045 615.501 103.225 809.401 74.7457C911.575 59.7365 1012.24 44.8557 1113.55 24.4265C1192.3 8.55147 1268.83 0.309258 1348.89 11.7906C1487.22 31.6104 1545.65 130.517 1617.37 238.275C1646.09 281.41 1680.61 334.969 1732.78 352.126C1832.78 385.031 1932.52 291.384 2000.78 234.523" stroke="url(#paint31_linear_104_13757)" stroke-miterlimit="10"/>
<path d="M-402.941 131.639C-289.005 34.7213 -157.473 -55.0771 -1.74378 -13.5453C80.8161 8.48733 147.447 59.7365 233.244 70.5765C428.972 95.271 610.309 100.883 805.876 73.6232C909.428 59.1913 1006.51 37.9283 1105.28 3.67669C1181.34 -22.6855 1254.31 -44.3013 1335.85 -38.5285C1481.03 -28.2659 1540.01 88.5682 1605.55 202.035C1633.46 250.366 1667.18 312.551 1721.28 336.059C1823.2 380.349 1928.22 287.279 2000.85 229.648" stroke="url(#paint32_linear_104_13757)" stroke-miterlimit="10"/>
<path d="M-402.941 123.846C-290.607 26.03 -159.588 -73.8707 -2.00016 -58.7333C82.6109 -50.6193 160.043 -10.5949 244.045 1.78444C436.055 30.103 604.956 94.7257 802.19 70.6405C906.544 57.8763 1000.32 30.6161 1094.35 -16.0149C1165.18 -51.1325 1232.68 -86.667 1313.83 -87.6932C1471.58 -89.6175 1531.16 48.2551 1594.68 169.868C1622.12 222.4 1655.1 290.743 1710.99 318.901C1814.7 371.176 1924.06 279.101 2000.78 220.508" stroke="url(#paint33_linear_104_13757)" stroke-miterlimit="10"/>
<path d="M-402.941 110.216C-288.3 9.22491 -156.928 -97.1861 2.19834 -107.705C87.9953 -113.382 178.311 -87.8535 261.801 -70.5353C449.58 -31.6013 605.918 86.8364 805.331 65.2847C907.858 54.2203 998.398 20.8346 1084.36 -35.4818C1153.71 -80.9262 1217.26 -129.642 1303.38 -134.677C1464.56 -144.074 1523.6 16.056 1582.41 137.572C1610.35 195.268 1642.44 265.054 1700.06 299.21C1803.55 360.529 1922.87 263.643 2000.78 205.915" stroke="url(#paint34_linear_104_13757)" stroke-miterlimit="10"/>
<path d="M-402.941 89.3057C-206.765 -83.1071 -0.0131282 -216.041 267.057 -151.45C457.175 -105.46 603.61 73.3986 809.882 56.5293C914.396 47.9664 1002.44 5.98571 1081.95 -60.4971C1144.22 -112.548 1199.7 -169.634 1284.67 -178.839C1446.71 -196.381 1506.1 -32.371 1561.64 88.985C1591.96 155.211 1624.78 238.05 1690.57 277.497C1796.66 341.094 1919.86 243.374 2000.75 184.492" stroke="url(#paint35_linear_104_13757)" stroke-miterlimit="10"/>
<path d="M-402.941 60.891C-214.169 -100.489 28.6713 -278.996 292.76 -204.976C478.136 -153.022 618.193 44.8235 821.932 34.3684C923.818 29.1408 1010.38 -19.703 1082.3 -88.9119C1139.35 -143.785 1190.34 -205.682 1274.25 -214.982C1429.69 -232.269 1492.96 -70.375 1547.73 44.7273C1580.52 113.583 1614.87 197.866 1682.31 240.231C1790.28 308.061 1914.99 215.44 2000.75 155.66" stroke="url(#paint36_linear_104_13757)" stroke-miterlimit="10"/>
<path d="M-402.941 31.1934C-213.496 -123.324 35.2095 -293.941 295.132 -229.863C486.18 -182.783 637.519 13.5545 844.367 0.116779C938.113 -5.97668 1016.67 -51.5493 1082.5 -115.819C1135.03 -167.101 1181.08 -225.534 1257.78 -238.073C1410.75 -263.089 1486.32 -97.122 1545.68 12.9451C1579.78 76.1247 1616.76 149.342 1678.65 190.104C1786.88 261.398 1908.67 182.472 2000.78 123.141" stroke="url(#paint37_linear_104_13757)" stroke-miterlimit="10"/>
<path d="M-402.941 1.4959C-209.906 -147.569 50.9138 -312.413 308.914 -246.732C496.5 -198.979 657.069 -19.7671 859.495 -30.7674C945.805 -35.4497 1021.38 -81.4714 1081.73 -140.033C1130.09 -186.952 1173.13 -242.852 1242.62 -257.572C1393.19 -289.451 1479.78 -122.201 1545.36 -17.7787C1584.78 44.984 1625.99 114.065 1693.68 149.567C1800.79 205.723 1907.33 143.73 2000.78 88.2155" stroke="url(#paint38_linear_104_13757)" stroke-miterlimit="10"/>
<path d="M-402.941 -28.2017C-203.721 -172.617 63.4453 -324.28 321.189 -260.395C506.981 -214.341 674.376 -48.4064 873.693 -62.0365C953.977 -67.5206 1022.6 -107.898 1079.96 -161.873C1128.2 -207.253 1171.53 -262.575 1240.44 -275.308C1383.6 -301.798 1476.87 -144.747 1546.74 -47.4442C1586.83 8.39109 1629.33 65.3489 1690.45 99.1836C1796.79 158.002 1903.96 104.155 2000.78 51.3019" stroke="url(#paint39_linear_104_13757)" stroke-miterlimit="10"/>
<path d="M-402.941 -57.8993C-202.343 -193.078 56.4905 -323.574 308.016 -276.141C502.686 -239.42 678.606 -76.6287 883.051 -90.9644C960.579 -96.4164 1026.6 -135.992 1083.07 -186.856C1129.26 -228.484 1171.21 -276.462 1235.21 -288.553C1367.71 -313.6 1466.35 -178.325 1539.17 -89.9381C1586.83 -32.0502 1638.91 31.4821 1710.22 61.0835C1811.05 102.936 1910.31 58.2292 2000.82 12.881" stroke="url(#paint40_linear_104_13757)" stroke-miterlimit="10"/>
<path d="M-402.941 -87.597C-197.343 -214.79 66.8425 -331.496 316.029 -283.806C505.987 -247.438 690.561 -102.991 889.237 -117.647C1033.52 -128.295 1096.5 -269.824 1226.56 -298.495C1357.32 -327.294 1463.79 -199.845 1544.17 -117.359C1592.5 -67.7452 1642.95 -15.6301 1708.2 11.3095C1809.22 53.0015 1907.26 16.0239 2000.75 -26.6304" stroke="url(#paint41_linear_104_13757)" stroke-miterlimit="10"/>
<path d="M-402.941 -117.295C-191.926 -235.347 67.2592 -331.175 314.106 -291.439C505.602 -260.619 693.574 -129.674 891.865 -144.523C1028.08 -154.721 1100.89 -281.882 1226.62 -306.545C1349.21 -330.566 1454.69 -229.382 1538.88 -155.459C1590.87 -109.79 1644.36 -61.8761 1709.84 -36.5081C1810.12 2.36181 1906.04 -27.4641 2000.82 -66.6867" stroke="url(#paint42_linear_104_13757)" stroke-miterlimit="10"/>
<defs>
<linearGradient id="paint0_linear_104_13757" x1="798.921" y1="908.415" x2="798.921" y2="1146.54" gradientUnits="userSpaceOnUse">
<stop stop-color="#333333"/>
<stop offset="1" stop-color="#333333" stop-opacity="0"/>
</linearGradient>
<linearGradient id="paint1_linear_104_13757" x1="798.905" y1="849.473" x2="798.905" y2="1129.72" gradientUnits="userSpaceOnUse">
<stop stop-color="#333333"/>
<stop offset="1" stop-color="#333333" stop-opacity="0"/>
</linearGradient>
<linearGradient id="paint2_linear_104_13757" x1="798.921" y1="797.176" x2="798.921" y2="1114.52" gradientUnits="userSpaceOnUse">
<stop stop-color="#333333"/>
<stop offset="1" stop-color="#333333" stop-opacity="0"/>
</linearGradient>
<linearGradient id="paint3_linear_104_13757" x1="798.921" y1="745.08" x2="798.921" y2="1100.31" gradientUnits="userSpaceOnUse">
<stop stop-color="#333333"/>
<stop offset="1" stop-color="#333333" stop-opacity="0"/>
</linearGradient>
<linearGradient id="paint4_linear_104_13757" x1="798.921" y1="694.064" x2="798.921" y2="1086.6" gradientUnits="userSpaceOnUse">
<stop stop-color="#333333"/>
<stop offset="1" stop-color="#333333" stop-opacity="0"/>
</linearGradient>
<linearGradient id="paint5_linear_104_13757" x1="798.905" y1="647.487" x2="798.905" y2="1072.34" gradientUnits="userSpaceOnUse">
<stop stop-color="#333333"/>
<stop offset="1" stop-color="#333333" stop-opacity="0"/>
</linearGradient>
<linearGradient id="paint6_linear_104_13757" x1="798.921" y1="602.885" x2="798.921" y2="1057.69" gradientUnits="userSpaceOnUse">
<stop stop-color="#333333"/>
<stop offset="1" stop-color="#333333" stop-opacity="0"/>
</linearGradient>
<linearGradient id="paint7_linear_104_13757" x1="798.921" y1="560.157" x2="798.921" y2="1042.3" gradientUnits="userSpaceOnUse">
<stop stop-color="#333333"/>
<stop offset="1" stop-color="#333333" stop-opacity="0"/>
</linearGradient>
<linearGradient id="paint8_linear_104_13757" x1="798.937" y1="517.824" x2="798.937" y2="1025.4" gradientUnits="userSpaceOnUse">
<stop stop-color="#333333"/>
<stop offset="1" stop-color="#333333" stop-opacity="0"/>
</linearGradient>
<linearGradient id="paint9_linear_104_13757" x1="798.921" y1="488.26" x2="798.921" y2="993.622" gradientUnits="userSpaceOnUse">
<stop stop-color="#333333"/>
<stop offset="1" stop-color="#333333" stop-opacity="0"/>
</linearGradient>
<linearGradient id="paint10_linear_104_13757" x1="798.937" y1="468.345" x2="798.937" y2="952.335" gradientUnits="userSpaceOnUse">
<stop stop-color="#333333"/>
<stop offset="1" stop-color="#333333" stop-opacity="0"/>
</linearGradient>
<linearGradient id="paint11_linear_104_13757" x1="798.937" y1="448.587" x2="798.937" y2="915.591" gradientUnits="userSpaceOnUse">
<stop stop-color="#333333"/>
<stop offset="1" stop-color="#333333" stop-opacity="0"/>
</linearGradient>
<linearGradient id="paint12_linear_104_13757" x1="798.905" y1="425.544" x2="798.905" y2="883.275" gradientUnits="userSpaceOnUse">
<stop stop-color="#333333"/>
<stop offset="1" stop-color="#333333" stop-opacity="0"/>
</linearGradient>
<linearGradient id="paint13_linear_104_13757" x1="798.921" y1="402.884" x2="798.921" y2="855.421" gradientUnits="userSpaceOnUse">
<stop stop-color="#333333"/>
<stop offset="1" stop-color="#333333" stop-opacity="0"/>
</linearGradient>
<linearGradient id="paint14_linear_104_13757" x1="798.937" y1="377.305" x2="798.937" y2="830.676" gradientUnits="userSpaceOnUse">
<stop stop-color="#333333"/>
<stop offset="1" stop-color="#333333" stop-opacity="0"/>
</linearGradient>
<linearGradient id="paint15_linear_104_13757" x1="798.937" y1="351.206" x2="798.937" y2="810.636" gradientUnits="userSpaceOnUse">
<stop stop-color="#333333"/>
<stop offset="1" stop-color="#333333" stop-opacity="0"/>
</linearGradient>
<linearGradient id="paint16_linear_104_13757" x1="798.937" y1="323.376" x2="798.937" y2="792.357" gradientUnits="userSpaceOnUse">
<stop stop-color="#333333"/>
<stop offset="1" stop-color="#333333" stop-opacity="0"/>
</linearGradient>
<linearGradient id="paint17_linear_104_13757" x1="798.937" y1="291.934" x2="798.937" y2="773.671" gradientUnits="userSpaceOnUse">
<stop stop-color="#333333"/>
<stop offset="1" stop-color="#333333" stop-opacity="0"/>
</linearGradient>
<linearGradient id="paint18_linear_104_13757" x1="798.921" y1="258.299" x2="798.921" y2="751.567" gradientUnits="userSpaceOnUse">
<stop stop-color="#333333"/>
<stop offset="1" stop-color="#333333" stop-opacity="0"/>
</linearGradient>
<linearGradient id="paint19_linear_104_13757" x1="798.937" y1="226.277" x2="798.937" y2="721.882" gradientUnits="userSpaceOnUse">
<stop stop-color="#333333"/>
<stop offset="1" stop-color="#333333" stop-opacity="0"/>
</linearGradient>
<linearGradient id="paint20_linear_104_13757" x1="798.905" y1="194.375" x2="798.905" y2="683.196" gradientUnits="userSpaceOnUse">
<stop stop-color="#333333"/>
<stop offset="1" stop-color="#333333" stop-opacity="0"/>
</linearGradient>
<linearGradient id="paint21_linear_104_13757" x1="798.921" y1="153.97" x2="798.921" y2="631.693" gradientUnits="userSpaceOnUse">
<stop stop-color="#333333"/>
<stop offset="1" stop-color="#333333" stop-opacity="0"/>
</linearGradient>
<linearGradient id="paint22_linear_104_13757" x1="798.921" y1="108.25" x2="798.921" y2="563.214" gradientUnits="userSpaceOnUse">
<stop stop-color="#333333"/>
<stop offset="1" stop-color="#333333" stop-opacity="0"/>
</linearGradient>
<linearGradient id="paint23_linear_104_13757" x1="798.921" y1="87.124" x2="798.921" y2="529.396" gradientUnits="userSpaceOnUse">
<stop stop-color="#333333"/>
<stop offset="1" stop-color="#333333" stop-opacity="0"/>
</linearGradient>
<linearGradient id="paint24_linear_104_13757" x1="798.905" y1="71.4895" x2="798.905" y2="492.536" gradientUnits="userSpaceOnUse">
<stop stop-color="#333333"/>
<stop offset="1" stop-color="#333333" stop-opacity="0"/>
</linearGradient>
<linearGradient id="paint25_linear_104_13757" x1="798.921" y1="60.2057" x2="798.921" y2="455.107" gradientUnits="userSpaceOnUse">
<stop stop-color="#333333"/>
<stop offset="1" stop-color="#333333" stop-opacity="0"/>
</linearGradient>
<linearGradient id="paint26_linear_104_13757" x1="798.905" y1="51.7388" x2="798.905" y2="427.888" gradientUnits="userSpaceOnUse">
<stop stop-color="#333333"/>
<stop offset="1" stop-color="#333333" stop-opacity="0"/>
</linearGradient>
<linearGradient id="paint27_linear_104_13757" x1="798.937" y1="52.3938" x2="798.937" y2="405.518" gradientUnits="userSpaceOnUse">
<stop stop-color="#333333"/>
<stop offset="1" stop-color="#333333" stop-opacity="0"/>
</linearGradient>
<linearGradient id="paint28_linear_104_13757" x1="798.921" y1="44.6349" x2="798.921" y2="387.33" gradientUnits="userSpaceOnUse">
<stop stop-color="#333333"/>
<stop offset="1" stop-color="#333333" stop-opacity="0"/>
</linearGradient>
<linearGradient id="paint29_linear_104_13757" x1="798.921" y1="34.7502" x2="798.921" y2="380.812" gradientUnits="userSpaceOnUse">
<stop stop-color="#333333"/>
<stop offset="1" stop-color="#333333" stop-opacity="0"/>
</linearGradient>
<linearGradient id="paint30_linear_104_13757" x1="798.905" y1="21.2097" x2="798.905" y2="369.828" gradientUnits="userSpaceOnUse">
<stop stop-color="#333333"/>
<stop offset="1" stop-color="#333333" stop-opacity="0"/>
</linearGradient>
<linearGradient id="paint31_linear_104_13757" x1="798.921" y1="2.73706" x2="798.921" y2="358.957" gradientUnits="userSpaceOnUse">
<stop stop-color="#333333"/>
<stop offset="1" stop-color="#333333" stop-opacity="0"/>
</linearGradient>
<linearGradient id="paint32_linear_104_13757" x1="798.953" y1="-39.4695" x2="798.953" y2="347.633" gradientUnits="userSpaceOnUse">
<stop stop-color="#333333"/>
<stop offset="1" stop-color="#333333" stop-opacity="0"/>
</linearGradient>
<linearGradient id="paint33_linear_104_13757" x1="798.921" y1="-87.7131" x2="798.921" y2="334.386" gradientUnits="userSpaceOnUse">
<stop stop-color="#333333"/>
<stop offset="1" stop-color="#333333" stop-opacity="0"/>
</linearGradient>
<linearGradient id="paint34_linear_104_13757" x1="798.921" y1="-135.072" x2="798.921" y2="318.821" gradientUnits="userSpaceOnUse">
<stop stop-color="#333333"/>
<stop offset="1" stop-color="#333333" stop-opacity="0"/>
</linearGradient>
<linearGradient id="paint35_linear_104_13757" x1="798.905" y1="-180.136" x2="798.905" y2="298.213" gradientUnits="userSpaceOnUse">
<stop stop-color="#333333"/>
<stop offset="1" stop-color="#333333" stop-opacity="0"/>
</linearGradient>
<linearGradient id="paint36_linear_104_13757" x1="798.905" y1="-222.216" x2="798.905" y2="264.04" gradientUnits="userSpaceOnUse">
<stop stop-color="#333333"/>
<stop offset="1" stop-color="#333333" stop-opacity="0"/>
</linearGradient>
<linearGradient id="paint37_linear_104_13757" x1="798.921" y1="-243.704" x2="798.921" y2="218.389" gradientUnits="userSpaceOnUse">
<stop stop-color="#333333"/>
<stop offset="1" stop-color="#333333" stop-opacity="0"/>
</linearGradient>
<linearGradient id="paint38_linear_104_13757" x1="798.921" y1="-261.576" x2="798.921" y2="171.686" gradientUnits="userSpaceOnUse">
<stop stop-color="#333333"/>
<stop offset="1" stop-color="#333333" stop-opacity="0"/>
</linearGradient>
<linearGradient id="paint39_linear_104_13757" x1="798.921" y1="-278.274" x2="798.921" y2="124.789" gradientUnits="userSpaceOnUse">
<stop stop-color="#333333"/>
<stop offset="1" stop-color="#333333" stop-opacity="0"/>
</linearGradient>
<linearGradient id="paint40_linear_104_13757" x1="798.937" y1="-291.595" x2="798.937" y2="77.767" gradientUnits="userSpaceOnUse">
<stop stop-color="#333333"/>
<stop offset="1" stop-color="#333333" stop-opacity="0"/>
</linearGradient>
<linearGradient id="paint41_linear_104_13757" x1="798.905" y1="-302.65" x2="798.905" y2="29.5772" gradientUnits="userSpaceOnUse">
<stop stop-color="#333333"/>
<stop offset="1" stop-color="#333333" stop-opacity="0"/>
</linearGradient>
<linearGradient id="paint42_linear_104_13757" x1="798.937" y1="-310.149" x2="798.937" y2="-18.3388" gradientUnits="userSpaceOnUse">
<stop stop-color="#333333"/>
<stop offset="1" stop-color="#333333" stop-opacity="0"/>
</linearGradient>
</defs>
</svg>
