<svg width="260" height="44" viewBox="0 0 260 44" fill="none" xmlns="http://www.w3.org/2000/svg">
<rect x="0.5" y="0.5" width="43" height="43" rx="21.5" fill="#1A1A1A"/>
<rect x="0.5" y="0.5" width="43" height="43" rx="21.5" stroke="#262626"/>
<path d="M21.1586 11.31C21.5522 10.6972 22.4478 10.6972 22.8414 11.31L25.8804 16.0414C26.0158 16.2522 26.2255 16.4046 26.4678 16.4682L31.9068 17.8964C32.6112 18.0813 32.888 18.9331 32.4268 19.4968L28.8661 23.8492C28.7074 24.0431 28.6273 24.2896 28.6417 24.5397L28.9641 30.1539C29.0059 30.8809 28.2813 31.4074 27.6028 31.143L22.363 29.1014C22.1296 29.0105 21.8704 29.0105 21.637 29.1014L16.3973 31.143C15.7187 31.4074 14.9941 30.8809 15.0359 30.1539L15.3583 24.5397C15.3727 24.2896 15.2926 24.0431 15.1339 23.8492L11.5732 19.4968C11.112 18.9331 11.3888 18.0813 12.0932 17.8964L17.5322 16.4682C17.7745 16.4046 17.9842 16.2522 18.1196 16.0414L21.1586 11.31Z" fill="#FFE600"/>
<rect x="54.5" y="0.5" width="43" height="43" rx="21.5" fill="#1A1A1A"/>
<rect x="54.5" y="0.5" width="43" height="43" rx="21.5" stroke="#262626"/>
<path d="M75.1586 11.31C75.5522 10.6972 76.4478 10.6972 76.8414 11.31L79.8804 16.0414C80.0158 16.2522 80.2255 16.4046 80.4678 16.4682L85.9068 17.8964C86.6112 18.0813 86.888 18.9331 86.4268 19.4968L82.8661 23.8492C82.7074 24.0431 82.6273 24.2896 82.6417 24.5397L82.9641 30.1539C83.0059 30.8809 82.2813 31.4074 81.6028 31.143L76.363 29.1014C76.1296 29.0105 75.8704 29.0105 75.637 29.1014L70.3973 31.143C69.7187 31.4074 68.9941 30.8809 69.0359 30.1539L69.3583 24.5397C69.3727 24.2896 69.2926 24.0431 69.1339 23.8492L65.5732 19.4968C65.112 18.9331 65.3888 18.0813 66.0932 17.8964L71.5322 16.4682C71.7745 16.4046 71.9842 16.2522 72.1196 16.0414L75.1586 11.31Z" fill="#FFE600"/>
<rect x="108.5" y="0.5" width="43" height="43" rx="21.5" fill="#1A1A1A"/>
<rect x="108.5" y="0.5" width="43" height="43" rx="21.5" stroke="#262626"/>
<path d="M129.159 11.31C129.552 10.6972 130.448 10.6972 130.841 11.31L133.88 16.0414C134.016 16.2522 134.225 16.4046 134.468 16.4682L139.907 17.8964C140.611 18.0813 140.888 18.9331 140.427 19.4968L136.866 23.8492C136.707 24.0431 136.627 24.2896 136.642 24.5397L136.964 30.1539C137.006 30.8809 136.281 31.4074 135.603 31.143L130.363 29.1014C130.13 29.0105 129.87 29.0105 129.637 29.1014L124.397 31.143C123.719 31.4074 122.994 30.8809 123.036 30.1539L123.358 24.5397C123.373 24.2896 123.293 24.0431 123.134 23.8492L119.573 19.4968C119.112 18.9331 119.389 18.0813 120.093 17.8964L125.532 16.4682C125.775 16.4046 125.984 16.2522 126.12 16.0414L129.159 11.31Z" fill="#FFE600"/>
<rect x="162.5" y="0.5" width="43" height="43" rx="21.5" fill="#1A1A1A"/>
<rect x="162.5" y="0.5" width="43" height="43" rx="21.5" stroke="#262626"/>
<path d="M183.159 11.31C183.552 10.6972 184.448 10.6972 184.841 11.31L187.88 16.0414C188.016 16.2522 188.225 16.4046 188.468 16.4682L193.907 17.8964C194.611 18.0813 194.888 18.9331 194.427 19.4968L190.866 23.8492C190.707 24.0431 190.627 24.2896 190.642 24.5397L190.964 30.1539C191.006 30.8809 190.281 31.4074 189.603 31.143L184.363 29.1014C184.13 29.0105 183.87 29.0105 183.637 29.1014L178.397 31.143C177.719 31.4074 176.994 30.8809 177.036 30.1539L177.358 24.5397C177.373 24.2896 177.293 24.0431 177.134 23.8492L173.573 19.4968C173.112 18.9331 173.389 18.0813 174.093 17.8964L179.532 16.4682C179.775 16.4046 179.984 16.2522 180.12 16.0414L183.159 11.31Z" fill="#FFE600"/>
<rect x="216.5" y="0.5" width="43" height="43" rx="21.5" fill="#1A1A1A"/>
<rect x="216.5" y="0.5" width="43" height="43" rx="21.5" stroke="#262626"/>
<path d="M237.159 11.31C237.552 10.6972 238.448 10.6972 238.841 11.31L241.88 16.0414C242.016 16.2522 242.225 16.4046 242.468 16.4682L247.907 17.8964C248.611 18.0813 248.888 18.9331 248.427 19.4968L244.866 23.8492C244.707 24.0431 244.627 24.2896 244.642 24.5397L244.964 30.1539C245.006 30.8809 244.281 31.4074 243.603 31.143L238.363 29.1014C238.13 29.0105 237.87 29.0105 237.637 29.1014L232.397 31.143C231.719 31.4074 230.994 30.8809 231.036 30.1539L231.358 24.5397C231.373 24.2896 231.293 24.0431 231.134 23.8492L227.573 19.4968C227.112 18.9331 227.389 18.0813 228.093 17.8964L233.532 16.4682C233.775 16.4046 233.984 16.2522 234.12 16.0414L237.159 11.31Z" fill="#FFE600"/>
</svg>
