<svg width="31" height="28" viewBox="0 0 31 28" fill="none" xmlns="http://www.w3.org/2000/svg">
<path fill-rule="evenodd" clip-rule="evenodd" d="M0.200195 1.67499C0.200195 0.970831 0.771032 0.399994 1.4752 0.399994H19.3252C20.0294 0.399994 20.6002 0.970831 20.6002 1.67499C20.6002 2.37916 20.0294 2.94999 19.3252 2.94999H18.9002V26.325C18.9002 27.0292 18.3294 27.6 17.6252 27.6H15.0752C14.371 27.6 13.8002 27.0292 13.8002 26.325V22.075C13.8002 21.3708 13.2294 20.8 12.5252 20.8H8.2752C7.57103 20.8 7.0002 21.3708 7.0002 22.075V26.325C7.0002 27.0292 6.42936 27.6 5.7252 27.6H1.4752C0.771032 27.6 0.200195 27.0292 0.200195 26.325C0.200195 25.6208 0.771032 25.05 1.4752 25.05H1.9002V2.94999H1.4752C0.771032 2.94999 0.200195 2.37916 0.200195 1.67499ZM5.3002 6.34999C5.3002 5.88055 5.68075 5.49999 6.1502 5.49999H7.8502C8.31964 5.49999 8.7002 5.88055 8.7002 6.34999V8.04999C8.7002 8.51944 8.31964 8.89999 7.8502 8.89999H6.1502C5.68075 8.89999 5.3002 8.51944 5.3002 8.04999V6.34999ZM6.1502 12.3C5.68075 12.3 5.3002 12.6806 5.3002 13.15V14.85C5.3002 15.3194 5.68075 15.7 6.1502 15.7H7.8502C8.31964 15.7 8.7002 15.3194 8.7002 14.85V13.15C8.7002 12.6806 8.31964 12.3 7.8502 12.3H6.1502ZM12.1002 6.34999C12.1002 5.88055 12.4808 5.49999 12.9502 5.49999H14.6502C15.1196 5.49999 15.5002 5.88055 15.5002 6.34999V8.04999C15.5002 8.51944 15.1196 8.89999 14.6502 8.89999H12.9502C12.4808 8.89999 12.1002 8.51944 12.1002 8.04999V6.34999ZM12.9502 12.3C12.4808 12.3 12.1002 12.6806 12.1002 13.15V14.85C12.1002 15.3194 12.4808 15.7 12.9502 15.7H14.6502C15.1196 15.7 15.5002 15.3194 15.5002 14.85V13.15C15.5002 12.6806 15.1196 12.3 14.6502 12.3H12.9502Z" fill="#A685FA"/>
<path fill-rule="evenodd" clip-rule="evenodd" d="M22.7252 7.19999C22.021 7.19999 21.4502 7.77083 21.4502 8.47499V25.9C21.4502 26.8389 22.2113 27.6 23.1502 27.6H29.5252C30.2294 27.6 30.8002 27.0292 30.8002 26.325C30.8002 25.6208 30.2294 25.05 29.5252 25.05H29.1002V9.74999H29.5252C30.2294 9.74999 30.8002 9.17916 30.8002 8.47499C30.8002 7.77083 30.2294 7.19999 29.5252 7.19999H22.7252ZM23.5752 13.15C23.5752 12.6806 23.9558 12.3 24.4252 12.3H26.1252C26.5946 12.3 26.9752 12.6806 26.9752 13.15V14.85C26.9752 15.3194 26.5946 15.7 26.1252 15.7H24.4252C23.9558 15.7 23.5752 15.3194 23.5752 14.85V13.15ZM24.4252 19.1C23.9558 19.1 23.5752 19.4806 23.5752 19.95V21.65C23.5752 22.1194 23.9558 22.5 24.4252 22.5H26.1252C26.5946 22.5 26.9752 22.1194 26.9752 21.65V19.95C26.9752 19.4806 26.5946 19.1 26.1252 19.1H24.4252Z" fill="#A685FA"/>
</svg>
