<svg width="31" height="27" viewBox="0 0 31 27" fill="none" xmlns="http://www.w3.org/2000/svg">
<path d="M15.5 6.625C13.7396 6.625 12.3125 8.05209 12.3125 9.8125C12.3125 11.5729 13.7396 13 15.5 13C17.2604 13 18.6875 11.5729 18.6875 9.8125C18.6875 8.05209 17.2604 6.625 15.5 6.625Z" fill="#A685FA"/>
<path fill-rule="evenodd" clip-rule="evenodd" d="M0.625 2.90625C0.625 1.43924 1.81424 0.25 3.28125 0.25H27.7188C29.1858 0.25 30.375 1.43924 30.375 2.90625V16.7188C30.375 18.1858 29.1858 19.375 27.7188 19.375H3.28125C1.81424 19.375 0.625 18.1858 0.625 16.7188V2.90625ZM10.1875 9.8125C10.1875 6.87849 12.566 4.5 15.5 4.5C18.434 4.5 20.8125 6.87849 20.8125 9.8125C20.8125 12.7465 18.434 15.125 15.5 15.125C12.566 15.125 10.1875 12.7465 10.1875 9.8125ZM25.0625 8.75C24.4757 8.75 24 9.2257 24 9.8125V9.82312C24 10.4099 24.4757 10.8856 25.0625 10.8856H25.0731C25.6599 10.8856 26.1356 10.4099 26.1356 9.82312V9.8125C26.1356 9.2257 25.6599 8.75 25.0731 8.75H25.0625ZM4.875 9.8125C4.875 9.2257 5.3507 8.75 5.9375 8.75H5.94813C6.53493 8.75 7.01063 9.2257 7.01063 9.8125V9.82312C7.01063 10.4099 6.53493 10.8856 5.94813 10.8856H5.9375C5.3507 10.8856 4.875 10.4099 4.875 9.82312V9.8125Z" fill="#A685FA"/>
<path d="M1.6875 21.5C1.1007 21.5 0.625 21.9757 0.625 22.5625C0.625 23.1493 1.1007 23.625 1.6875 23.625C9.33757 23.625 16.747 24.6481 23.7872 26.5644C25.4738 27.0235 27.1875 25.7738 27.1875 23.9864V22.5625C27.1875 21.9757 26.7118 21.5 26.125 21.5H1.6875Z" fill="#A685FA"/>
</svg>
