<svg width="29" height="28" viewBox="0 0 29 28" fill="none" xmlns="http://www.w3.org/2000/svg">
<path d="M2.39366 9.10579C4.38533 11.0975 7.61447 11.0975 9.60615 9.10579C9.85089 8.86105 10.0656 8.59762 10.2502 8.3201C11.1639 9.69409 12.7261 10.5996 14.4999 10.5996C16.2739 10.5996 17.8364 9.69385 18.75 8.31955C18.9347 8.5973 19.1495 8.86093 19.3944 9.10585C21.3861 11.0975 24.6152 11.0975 26.6069 9.10585C28.5986 7.11418 28.5986 3.88504 26.6069 1.89336L26.1094 1.39583C25.4718 0.758207 24.607 0.399994 23.7052 0.399994H5.29529C4.39356 0.399994 3.52876 0.758207 2.89113 1.39583L2.39366 1.8933C0.401984 3.88498 0.401984 7.11412 2.39366 9.10579Z" fill="#A685FA"/>
<path d="M2.5999 12.3548C5.02749 13.5591 7.96159 13.3947 10.2509 11.8615C11.4654 12.6741 12.9269 13.1496 14.4999 13.1496C16.073 13.1496 17.5347 12.674 18.7493 11.8612C21.0384 13.3946 23.9723 13.5592 26.3999 12.3552V25.05H26.8249C27.5291 25.05 28.0999 25.6208 28.0999 26.325C28.0999 27.0292 27.5291 27.6 26.8249 27.6H19.1749C18.4707 27.6 17.8999 27.0292 17.8999 26.325V20.375C17.8999 19.6708 17.3291 19.1 16.6249 19.1H12.3749C11.6707 19.1 11.0999 19.6708 11.0999 20.375V26.325C11.0999 27.0292 10.5291 27.6 9.8249 27.6H2.1749C1.47074 27.6 0.899902 27.0292 0.899902 26.325C0.899902 25.6208 1.47074 25.05 2.1749 25.05H2.5999V12.3548Z" fill="#A685FA"/>
</svg>
