<svg width="29" height="28" viewBox="0 0 29 28" fill="none" xmlns="http://www.w3.org/2000/svg">
<path d="M14.5 0.1875C15.0868 0.1875 15.5625 0.663197 15.5625 1.25V4.4375C15.5625 5.0243 15.0868 5.5 14.5 5.5C13.9132 5.5 13.4375 5.0243 13.4375 4.4375V1.25C13.4375 0.663197 13.9132 0.1875 14.5 0.1875Z" fill="#A685FA"/>
<path d="M8.125 14C8.125 10.4792 10.9792 7.625 14.5 7.625C18.0208 7.625 20.875 10.4792 20.875 14C20.875 17.5208 18.0208 20.375 14.5 20.375C10.9792 20.375 8.125 17.5208 8.125 14Z" fill="#A685FA"/>
<path d="M24.267 5.73565C24.6819 5.32071 24.6819 4.64798 24.267 4.23304C23.8521 3.81811 23.1793 3.81811 22.7644 4.23304L20.5105 6.48695C20.0955 6.90188 20.0955 7.57462 20.5105 7.98955C20.9254 8.40448 21.5982 8.40448 22.0131 7.98955L24.267 5.73565Z" fill="#A685FA"/>
<path d="M28.3125 14C28.3125 14.5868 27.8368 15.0625 27.25 15.0625H24.0625C23.4757 15.0625 23 14.5868 23 14C23 13.4132 23.4757 12.9375 24.0625 12.9375H27.25C27.8368 12.9375 28.3125 13.4132 28.3125 14Z" fill="#A685FA"/>
<path d="M22.7642 23.7669C23.1792 24.1818 23.8519 24.1818 24.2668 23.7669C24.6818 23.3519 24.6818 22.6792 24.2668 22.2643L22.0129 20.0104C21.598 19.5954 20.9253 19.5954 20.5103 20.0104C20.0954 20.4253 20.0954 21.098 20.5103 21.513L22.7642 23.7669Z" fill="#A685FA"/>
<path d="M14.5 22.5C15.0868 22.5 15.5625 22.9757 15.5625 23.5625V26.75C15.5625 27.3368 15.0868 27.8125 14.5 27.8125C13.9132 27.8125 13.4375 27.3368 13.4375 26.75V23.5625C13.4375 22.9757 13.9132 22.5 14.5 22.5Z" fill="#A685FA"/>
<path d="M8.4898 21.513C8.90473 21.098 8.90473 20.4253 8.4898 20.0104C8.07486 19.5954 7.40213 19.5954 6.98719 20.0104L4.73329 22.2643C4.31836 22.6792 4.31836 23.3519 4.73329 23.7669C5.14822 24.1818 5.82096 24.1818 6.23589 23.7669L8.4898 21.513Z" fill="#A685FA"/>
<path d="M6 14C6 14.5868 5.5243 15.0625 4.9375 15.0625H1.75C1.1632 15.0625 0.6875 14.5868 0.6875 14C0.6875 13.4132 1.1632 12.9375 1.75 12.9375H4.9375C5.5243 12.9375 6 13.4132 6 14Z" fill="#A685FA"/>
<path d="M6.98703 7.98954C7.40197 8.40447 8.0747 8.40447 8.48964 7.98954C8.90457 7.5746 8.90457 6.90187 8.48964 6.48693L6.23573 4.23303C5.8208 3.8181 5.14806 3.8181 4.73313 4.23303C4.3182 4.64796 4.3182 5.3207 4.73313 5.73563L6.98703 7.98954Z" fill="#A685FA"/>
</svg>
