<svg width="34" height="34" viewBox="0 0 34 34" fill="none" xmlns="http://www.w3.org/2000/svg">
<path d="M26.0312 3.1875C24.5642 3.1875 23.375 4.37674 23.375 5.84375V28.1562C23.375 29.6233 24.5642 30.8125 26.0312 30.8125H27.0938C28.5608 30.8125 29.75 29.6233 29.75 28.1562V5.84375C29.75 4.37674 28.5608 3.1875 27.0938 3.1875H26.0312Z" fill="#A685FA"/>
<path d="M13.8125 12.2188C13.8125 10.7517 15.0017 9.5625 16.4688 9.5625H17.5312C18.9983 9.5625 20.1875 10.7517 20.1875 12.2188V28.1562C20.1875 29.6233 18.9983 30.8125 17.5312 30.8125H16.4688C15.0017 30.8125 13.8125 29.6233 13.8125 28.1562V12.2188Z" fill="#A685FA"/>
<path d="M4.25 18.5938C4.25 17.1267 5.43924 15.9375 6.90625 15.9375H7.96875C9.43576 15.9375 10.625 17.1267 10.625 18.5938V28.1562C10.625 29.6233 9.43576 30.8125 7.96875 30.8125H6.90625C5.43924 30.8125 4.25 29.6233 4.25 28.1562V18.5938Z" fill="#A685FA"/>
</svg>
