<svg width="34" height="34" viewBox="0 0 34 34" fill="none" xmlns="http://www.w3.org/2000/svg">
<path d="M29.75 9.03125C29.75 12.8455 24.0416 15.9375 17 15.9375C9.95837 15.9375 4.25 12.8455 4.25 9.03125C4.25 5.21703 9.95837 2.125 17 2.125C24.0416 2.125 29.75 5.21703 29.75 9.03125Z" fill="#A685FA"/>
<path d="M17 18.0625C20.804 18.0625 24.3532 17.2319 27.0277 15.7832C28.0052 15.2537 28.9351 14.5978 29.7142 13.822C29.7379 13.9943 29.75 14.1682 29.75 14.3438C29.75 18.158 24.0416 21.25 17 21.25C9.95837 21.25 4.25 18.158 4.25 14.3438C4.25 14.1682 4.26209 13.9943 4.28583 13.822C5.0649 14.5978 5.9948 15.2537 6.97229 15.7832C9.64678 17.2319 13.196 18.0625 17 18.0625Z" fill="#A685FA"/>
<path d="M17 23.375C20.804 23.375 24.3532 22.5444 27.0277 21.0957C28.0052 20.5662 28.9351 19.9103 29.7142 19.1345C29.7379 19.3068 29.75 19.4807 29.75 19.6562C29.75 23.4705 24.0416 26.5625 17 26.5625C9.95837 26.5625 4.25 23.4705 4.25 19.6562C4.25 19.4807 4.26209 19.3068 4.28583 19.1345C5.0649 19.9103 5.9948 20.5662 6.97229 21.0957C9.64678 22.5444 13.196 23.375 17 23.375Z" fill="#A685FA"/>
<path d="M17 28.6875C20.804 28.6875 24.3532 27.8569 27.0277 26.4082C28.0052 25.8787 28.9351 25.2228 29.7142 24.447C29.7379 24.6193 29.75 24.7932 29.75 24.9687C29.75 28.783 24.0416 31.875 17 31.875C9.95837 31.875 4.25 28.783 4.25 24.9687C4.25 24.7932 4.26209 24.6193 4.28583 24.447C5.0649 25.2228 5.9948 25.8787 6.97229 26.4082C9.64678 27.8569 13.196 28.6875 17 28.6875Z" fill="#A685FA"/>
</svg>
