<svg width="133" height="136" viewBox="0 0 133 136" fill="none" xmlns="http://www.w3.org/2000/svg">
<path d="M62.554 125.606L60.9771 135.992L57.5422 135.471C56.825 135.362 56.173 135.124 55.5862 134.756C54.9986 134.394 54.5039 133.937 54.1019 133.385C53.6992 132.838 53.412 132.23 53.2403 131.562C53.0629 130.897 53.0286 130.206 53.1375 129.489C53.2464 128.772 53.4845 128.12 53.8519 127.533C54.2136 126.95 54.6683 126.455 55.2159 126.048C55.7628 125.645 56.371 125.355 57.0404 125.179C57.7091 125.007 58.402 124.976 59.1192 125.084L62.554 125.606ZM60.7766 126.915L58.8849 126.628C58.3804 126.551 57.8963 126.574 57.4325 126.695C56.9638 126.817 56.5357 127.02 56.1483 127.305C55.756 127.589 55.4325 127.938 55.1777 128.349C54.9229 128.761 54.7572 129.219 54.6806 129.723C54.604 130.228 54.6263 130.714 54.7474 131.183C54.8685 131.652 55.0741 132.08 55.3643 132.468C55.6496 132.856 55.998 133.177 56.4097 133.432C56.8164 133.686 57.272 133.851 57.7765 133.928L59.6682 134.215L60.7766 126.915Z" fill="white"/>
<path d="M45.6088 129.57L44.1382 129.048L46.6519 121.977L48.1225 122.5L45.6088 129.57ZM44.4949 130.329C44.7211 130.41 44.8837 130.55 44.9826 130.749C45.0815 130.949 45.0915 131.16 45.0128 131.381C44.9357 131.598 44.7957 131.753 44.593 131.845C44.3885 131.943 44.1755 131.952 43.954 131.873C43.7372 131.796 43.5801 131.655 43.4829 131.451C43.384 131.251 43.3731 131.043 43.4502 130.826C43.529 130.604 43.6698 130.447 43.8726 130.355C44.0706 130.261 44.2781 130.252 44.4949 130.329Z" fill="white"/>
<path d="M39.4267 118.548C39.7621 118.758 40.0625 119.012 40.3279 119.31C40.5932 119.608 40.7964 119.926 40.9372 120.264C41.0713 120.604 41.1248 120.946 41.0976 121.29L39.6582 121.158C39.6655 121.008 39.6298 120.838 39.5511 120.647C39.468 120.454 39.35 120.268 39.1971 120.088C39.0418 119.913 38.8587 119.768 38.6476 119.653C38.441 119.541 38.2342 119.466 38.0273 119.428C37.8136 119.392 37.6162 119.404 37.4351 119.465C37.254 119.526 37.1169 119.642 37.0238 119.814C36.9189 120.007 36.9037 120.193 36.9783 120.37C37.0462 120.549 37.1614 120.719 37.3238 120.882C37.4863 121.044 37.6499 121.204 37.8148 121.361C38.1932 121.692 38.5173 122.039 38.7872 122.401C39.0503 122.766 39.2158 123.138 39.2837 123.516C39.3492 123.899 39.277 124.283 39.0671 124.67C38.838 125.093 38.5257 125.395 38.13 125.579C37.732 125.767 37.303 125.845 36.843 125.811C36.3786 125.776 35.9353 125.643 35.5132 125.414C34.9856 125.128 34.5628 124.753 34.2447 124.291C33.9267 123.828 33.7574 123.337 33.7367 122.82L35.1756 122.764C35.17 122.931 35.2045 123.104 35.2792 123.281C35.3538 123.458 35.458 123.623 35.5917 123.775C35.723 123.932 35.8764 124.063 36.0519 124.17C36.2713 124.3 36.4945 124.387 36.7214 124.431C36.9415 124.476 37.1433 124.466 37.3268 124.401C37.5103 124.335 37.6557 124.203 37.7631 124.006C37.868 123.812 37.8786 123.63 37.7948 123.459C37.7086 123.293 37.5777 123.125 37.402 122.956C37.222 122.784 37.0411 122.604 36.8595 122.414C36.5349 122.078 36.2501 121.728 36.005 121.361C35.7574 120.999 35.5985 120.631 35.5282 120.257C35.4579 119.883 35.5286 119.512 35.7402 119.143C35.9644 118.73 36.2866 118.435 36.7066 118.259C37.1222 118.08 37.572 118.017 38.056 118.069C38.54 118.121 38.9969 118.281 39.4267 118.548Z" fill="white"/>
<path d="M27.1251 112.763L26.5387 111.287C27.1043 111.14 27.6801 111.125 28.2661 111.243C28.8483 111.357 29.3737 111.61 29.8424 112.001C30.3726 112.443 30.7429 112.983 30.9534 113.621C31.16 114.256 31.2033 114.911 31.0833 115.586C30.9562 116.261 30.6604 116.878 30.1958 117.435C29.8434 117.857 29.44 118.189 28.9858 118.429C28.5284 118.673 28.0537 118.824 27.5618 118.883C27.0628 118.942 26.5728 118.905 26.0919 118.771C25.6109 118.636 25.1726 118.404 24.7768 118.074C24.3081 117.684 23.9653 117.212 23.7484 116.66C23.5277 116.104 23.4405 115.533 23.4868 114.947L25.0441 115.259C25.0452 115.585 25.1117 115.888 25.2436 116.168C25.3722 116.451 25.5498 116.687 25.7765 116.876C26.0915 117.139 26.4498 117.291 26.8514 117.333C27.246 117.375 27.6351 117.318 28.0188 117.163C28.3955 117.008 28.7216 116.766 28.9972 116.435C29.2695 116.109 29.4477 115.743 29.5318 115.337C29.6126 114.936 29.5968 114.545 29.4842 114.164C29.3678 113.78 29.154 113.459 28.8428 113.199C28.6046 113.001 28.3331 112.865 28.0282 112.793C27.7234 112.722 27.4223 112.712 27.1251 112.763Z" fill="white"/>
<path d="M21.3653 103.245C21.7867 103.792 22.0307 104.4 22.0974 105.068C22.1611 105.733 22.0609 106.381 21.797 107.014C21.526 107.646 21.1032 108.183 20.5286 108.626C20.0927 108.962 19.627 109.198 19.1315 109.333C18.632 109.472 18.1358 109.516 17.6428 109.466C17.1429 109.416 16.6727 109.273 16.2324 109.038C15.7921 108.802 15.4147 108.48 15.1002 108.072C14.6789 107.525 14.4364 106.92 14.3727 106.255C14.306 105.586 14.4082 104.936 14.6791 104.304C14.947 103.669 15.3703 103.128 15.9488 102.682C16.3808 102.349 16.8445 102.115 17.3401 101.979C17.8356 101.844 18.3333 101.801 18.8333 101.852C19.3262 101.902 19.7928 102.044 20.2332 102.28C20.6704 102.511 21.0478 102.833 21.3653 103.245ZM20.129 104.198C19.8756 103.869 19.5609 103.641 19.185 103.513C18.8092 103.386 18.4206 103.357 18.0192 103.427C17.6109 103.495 17.2383 103.659 16.9014 103.918C16.5567 104.184 16.3007 104.507 16.1336 104.889C15.9634 105.266 15.8938 105.651 15.9249 106.044C15.9521 106.44 16.0893 106.799 16.3366 107.12C16.587 107.444 16.9016 107.673 17.2805 107.804C17.6564 107.931 18.0485 107.96 18.4569 107.892C18.8622 107.82 19.2352 107.652 19.576 107.39C19.9287 107.118 20.1867 106.793 20.3498 106.415C20.513 106.036 20.5791 105.651 20.548 105.258C20.5098 104.864 20.3702 104.511 20.129 104.198Z" fill="white"/>
<path d="M13.969 91.3332L14.8175 93.1482L9.16602 98.8135L8.46056 97.3044L12.7634 93.0068L6.70328 93.5452L6.00101 92.0429L13.969 91.3332Z" fill="white"/>
<path d="M10.6066 80.6222C10.756 81.2962 10.719 81.95 10.4956 82.5836C10.2712 83.2124 9.90515 83.7572 9.39756 84.2181C8.88399 84.6752 8.27312 84.9823 7.56493 85.1392C7.02769 85.2583 6.50597 85.274 5.99977 85.1863C5.48869 85.0998 5.02053 84.9294 4.59527 84.6752C4.16405 84.4172 3.79907 84.0882 3.50033 83.6881C3.20159 83.2881 2.99647 82.8365 2.88499 82.3334C2.76051 81.7718 2.76354 81.2305 2.89406 80.7097C3.0197 80.19 3.25085 79.7186 3.58751 79.2955C3.91928 78.8736 4.33403 78.5255 4.83175 78.2512C5.32459 77.978 5.87597 77.8072 6.48589 77.7386L7.73768 83.387C8.0606 83.2488 8.3388 83.0591 8.57225 82.8177C8.79974 82.5726 8.96024 82.2911 9.05376 81.9732C9.14618 81.6504 9.15587 81.3126 9.08283 80.9599C9.00056 80.5887 8.83308 80.2723 8.58038 80.0106C8.3266 79.744 8.01444 79.5493 7.64392 79.4265L7.66032 77.8011C8.37484 77.9502 9.00515 78.2742 9.55127 78.7732C10.0925 79.2732 10.4443 79.8896 10.6066 80.6222ZM6.5842 83.6964L5.662 79.5352C5.32118 79.662 5.03132 79.8569 4.79242 80.1199C4.54756 80.3791 4.37511 80.6761 4.27508 81.0108C4.16908 81.3418 4.15505 81.683 4.23298 82.0347C4.30983 82.3815 4.4643 82.6854 4.69638 82.9465C4.92738 83.2028 5.20861 83.3966 5.54006 83.5281C5.86555 83.6558 6.21359 83.7119 6.5842 83.6964Z" fill="white"/>
<path d="M9.01704 70.964L1.51475 71.1149L1.48336 69.5544L2.2786 69.5384C1.96328 69.2846 1.71176 68.9694 1.52406 68.5929C1.33636 68.2164 1.23808 67.8081 1.22923 67.368C1.2236 67.0879 1.25553 66.8096 1.32501 66.533L2.91302 67.124C2.84192 67.3205 2.80833 67.5164 2.81226 67.7114C2.8189 68.0415 2.90751 68.3425 3.07809 68.6142C3.24367 68.8861 3.46567 69.1018 3.74407 69.2613C4.02248 69.4208 4.32923 69.4972 4.66433 69.4905L8.98565 69.4035L9.01704 70.964Z" fill="white"/>
<path d="M2.81238 43.6741L3.40176 41.9327L7.71061 47.1777L12.2027 48.6981L11.7023 50.1765L7.21024 48.6561L0.604004 50.199L1.19339 48.4576L5.84697 47.3708L2.81238 43.6741Z" fill="white"/>
<path d="M17.7445 37.5266C17.378 38.1116 16.8929 38.5514 16.2891 38.8461C15.688 39.1366 15.0449 39.2679 14.3598 39.2402C13.6732 39.2055 13.0225 38.9956 12.4078 38.6105C11.9415 38.3183 11.5587 37.9634 11.2596 37.5458C10.9562 37.1255 10.7422 36.6756 10.6176 36.1961C10.4914 35.7097 10.4622 35.2191 10.5301 34.7245C10.598 34.2298 10.7687 33.7642 11.0423 33.3275C11.4088 32.7425 11.8926 32.3048 12.4937 32.0143C13.0975 31.7196 13.7427 31.5896 14.4293 31.6243C15.1186 31.6547 15.7728 31.8638 16.3917 32.2516C16.8538 32.5411 17.2344 32.8946 17.5335 33.3123C17.8327 33.7299 18.0454 34.182 18.1716 34.6683C18.2962 35.1478 18.3246 35.6349 18.2567 36.1296C18.1915 36.62 18.0207 37.0857 17.7445 37.5266ZM16.4219 36.6979C16.6423 36.346 16.7469 35.9718 16.7357 35.5751C16.7244 35.1785 16.6167 34.804 16.4124 34.4517C16.2065 34.0925 15.9234 33.8 15.563 33.5742C15.1942 33.3432 14.802 33.2155 14.3863 33.1912C13.9732 33.1626 13.5879 33.2311 13.2303 33.3967C12.8685 33.5596 12.58 33.8128 12.3649 34.1562C12.1471 34.5038 12.0425 34.878 12.0511 35.2789C12.0623 35.6756 12.1709 36.0535 12.3768 36.4127C12.5853 36.7677 12.8719 37.0594 13.2364 37.2878C13.6137 37.5242 14.0081 37.6532 14.4196 37.6749C14.831 37.6965 15.2156 37.6246 15.5731 37.459C15.9291 37.2865 16.2121 37.0328 16.4219 36.6979Z" fill="white"/>
<path d="M21.1171 27.7451L17.7793 24.4506L18.8757 23.3397L21.9412 26.3655C22.1797 26.6009 22.4549 26.7565 22.7666 26.8323C23.0784 26.9081 23.3897 26.9061 23.7005 26.8262C24.0077 26.7429 24.2773 26.5837 24.5092 26.3487C24.7447 26.1102 24.9003 25.8385 24.9761 25.5338C25.0519 25.222 25.0481 24.9125 24.9648 24.6053C24.8849 24.2946 24.7257 24.0215 24.4872 23.786L21.4217 20.7603L22.5182 19.6495L27.8639 24.9154L26.7675 26.0262L26.1855 25.4623C26.227 25.8617 26.1783 26.26 26.0394 26.6571C25.9005 27.0542 25.6781 27.4076 25.3724 27.7174C24.9823 28.1126 24.5313 28.3773 24.0192 28.5115C23.5072 28.6457 22.9943 28.6491 22.4805 28.5215C21.9668 28.394 21.5123 28.1352 21.1171 27.7451Z" fill="white"/>
<path d="M32.4153 21.2552L28.172 15.0663L29.4593 14.1837L29.9091 14.8397C29.9483 14.4368 30.0737 14.0536 30.2854 13.6901C30.4972 13.3266 30.7846 13.0203 31.1477 12.7714C31.3787 12.613 31.6289 12.4869 31.8983 12.3932L32.2757 14.0451C32.0723 14.0935 31.8902 14.1729 31.7293 14.2832C31.457 14.4699 31.254 14.7091 31.1205 15.0009C30.9841 15.2885 30.9256 15.5924 30.945 15.9127C30.9644 16.233 31.0689 16.5313 31.2584 16.8078L33.7025 20.3726L32.4153 21.2552Z" fill="white"/>
<path d="M48.2223 12.8537L45.6489 2.66846L49.0173 1.81741C49.7206 1.63973 50.4139 1.60645 51.0973 1.71759C51.7794 1.82387 52.4127 2.05342 52.9972 2.40624C53.5805 2.75422 54.0809 3.2031 54.4984 3.75289C54.9195 4.29661 55.219 4.92011 55.3966 5.62338C55.5743 6.32665 55.6076 7.01996 55.4965 7.70332C55.389 8.38061 55.1618 9.01331 54.8151 9.60141C54.4671 10.1847 54.0188 10.6875 53.4703 11.1099C52.9205 11.5274 52.294 11.825 51.5907 12.0027L48.2223 12.8537ZM49.3532 10.9582L51.2084 10.4894C51.7031 10.3645 52.1406 10.1559 52.5208 9.86375C52.9059 9.57038 53.2217 9.21713 53.4682 8.80399C53.7195 8.38963 53.8828 7.94334 53.958 7.46511C54.0333 6.98689 54.0084 6.50042 53.8834 6.0057C53.7584 5.51099 53.5492 5.07108 53.2559 4.68599C52.9625 4.30089 52.6068 3.98572 52.1888 3.74046C51.7757 3.49398 51.33 3.33312 50.8518 3.25787C50.3784 3.1814 49.8944 3.20566 49.3997 3.33066L47.5445 3.79937L49.3532 10.9582Z" fill="white"/>
<path d="M62.7033 10.0934L62.4381 2.59425L63.9979 2.53908L64.026 3.33399C64.275 3.01483 64.5863 2.75854 64.9599 2.56513C65.3335 2.37171 65.7403 2.26722 66.1802 2.25166C66.4602 2.24176 66.739 2.26944 67.0166 2.33471L66.4499 3.93154C66.2522 3.86344 66.0559 3.83284 65.861 3.83974C65.531 3.85141 65.2315 3.9446 64.9623 4.1193C64.693 4.28901 64.4807 4.51426 64.3255 4.79506C64.1702 5.07587 64.0985 5.38375 64.1104 5.71871L64.2631 10.0382L62.7033 10.0934Z" fill="white"/>
<path d="M75.7104 10.8791C75.0292 10.7673 74.4359 10.49 73.9307 10.0472C73.4304 9.60518 73.0605 9.06291 72.8212 8.42038C72.5877 7.77373 72.5296 7.09251 72.6471 6.37671C72.7362 5.83369 72.9155 5.34349 73.1849 4.90611C73.4552 4.46379 73.7874 4.09246 74.1814 3.7921C74.5811 3.48763 75.0222 3.27104 75.5046 3.14235C75.9871 3.01366 76.4825 2.99103 76.991 3.07445C77.5587 3.1676 78.06 3.37153 78.4951 3.68623C78.9309 3.99601 79.2826 4.38577 79.5503 4.85551C79.8188 5.32032 79.9878 5.83473 80.0575 6.39873C80.128 6.95779 80.0817 7.53319 79.9188 8.12491L74.2097 7.18819C74.2179 7.53934 74.2907 7.86813 74.428 8.17454C74.5711 8.47683 74.7728 8.73044 75.0332 8.93539C75.2985 9.14115 75.6085 9.27565 75.9631 9.33891C76.3383 9.40046 76.6943 9.36256 77.0312 9.22519C77.3729 9.08863 77.6697 8.87117 77.9214 8.57282L79.4243 9.19201C79.0204 9.79997 78.4853 10.2648 77.8192 10.5864C77.1538 10.903 76.4509 11.0006 75.7104 10.8791ZM74.351 6.00233L78.5569 6.69241C78.5659 6.32888 78.4926 5.98736 78.3372 5.66783C78.1876 5.34418 77.9759 5.07372 77.7023 4.85647C77.4345 4.6351 77.1229 4.49525 76.7674 4.43693C76.4169 4.37943 76.0773 4.40989 75.7487 4.52832C75.425 4.64757 75.1405 4.83662 74.8952 5.09548C74.6557 5.35021 74.4743 5.65249 74.351 6.00233Z" fill="white"/>
<path d="M93.5144 8.17454L94.9586 8.76633L92.1135 15.7098L90.6623 15.1152L91.0193 14.0856C90.6696 14.3586 90.2765 14.5327 89.8402 14.608C89.4039 14.6834 88.9497 14.6243 88.4775 14.4308C87.9683 14.2222 87.5281 13.9309 87.1568 13.5572C86.7875 13.1788 86.5017 12.7481 86.2995 12.2652C86.102 11.7842 85.9994 11.2826 85.9917 10.7605C85.9859 10.2337 86.0882 9.71338 86.2988 9.19956C86.5017 8.70426 86.7849 8.27698 87.1484 7.91773C87.5137 7.55384 87.9281 7.2749 88.3914 7.08091C88.8547 6.88693 89.3396 6.78555 89.8459 6.77679C90.3588 6.7653 90.8629 6.86103 91.3582 7.06398C91.8628 7.27073 92.2598 7.56854 92.5491 7.95742C92.845 8.34357 93.0472 8.76703 93.1558 9.22778L93.5144 8.17454ZM89.0146 13.0209C89.422 13.1878 89.8192 13.2344 90.2063 13.1605C90.5953 13.082 90.9432 12.9056 91.2503 12.6314C91.5619 12.359 91.8031 12.0145 91.9738 11.5979C92.1464 11.1767 92.2172 10.7597 92.1863 10.347C92.1554 9.93424 92.028 9.56576 91.804 9.24153C91.5866 8.91457 91.2742 8.66762 90.8668 8.50071C90.4641 8.33569 90.0544 8.28674 89.6376 8.35385C89.2209 8.42095 88.8451 8.58595 88.5104 8.84883C88.1756 9.11171 87.9228 9.45146 87.7521 9.86807C87.5795 10.2893 87.5226 10.712 87.5812 11.1361C87.6465 11.5575 87.8017 11.9373 88.0469 12.2757C88.2986 12.6113 88.6212 12.8597 89.0146 13.0209Z" fill="white"/>
<path d="M97.1733 18.2957L101.717 12.3244L102.96 13.2696L102.478 13.9025C102.873 13.8132 103.274 13.8105 103.682 13.8944C104.093 13.9814 104.474 14.1581 104.824 14.4247C105.25 14.7489 105.564 15.1508 105.764 15.6305C105.968 16.1061 106.047 16.5934 106 17.0924C106.469 16.9146 106.956 16.8574 107.46 16.921C107.972 16.9836 108.441 17.177 108.867 17.5012C109.309 17.8374 109.629 18.2509 109.828 18.7415C110.027 19.2322 110.096 19.7405 110.035 20.2663C109.974 20.7922 109.776 21.276 109.439 21.7179L106.59 25.462L105.348 24.5168L107.956 21.0892C108.156 20.8265 108.276 20.5371 108.315 20.2212C108.354 19.9054 108.318 19.5979 108.206 19.299C108.094 19 107.907 18.7506 107.644 18.5507C107.381 18.3507 107.094 18.2326 106.782 18.1964C106.47 18.1602 106.167 18.2031 105.873 18.3251C105.579 18.4471 105.326 18.6475 105.114 18.9261L102.506 22.3537L101.264 21.4085L103.872 17.981C104.084 17.7023 104.21 17.405 104.249 17.0891C104.288 16.7732 104.247 16.4683 104.125 16.1743C104.007 15.8833 103.816 15.6378 103.554 15.4379C103.295 15.241 103.005 15.1269 102.683 15.0956C102.365 15.0674 102.059 15.1142 101.765 15.2362C101.471 15.3582 101.224 15.5506 101.024 15.8134L98.4153 19.2409L97.1733 18.2957Z" fill="white"/>
<path d="M115.16 36.0193L124.254 30.7599L126.065 33.8909C126.348 34.3802 126.482 34.8921 126.467 35.4264C126.455 35.965 126.311 36.4703 126.035 36.942C125.761 37.4181 125.375 37.8002 124.877 38.0882C124.371 38.3812 123.842 38.5254 123.29 38.5208C122.745 38.5181 122.236 38.3876 121.763 38.1295C121.29 37.8713 120.916 37.5041 120.641 37.0277L119.611 35.2479L115.941 37.3704L115.16 36.0193ZM120.962 34.4665L121.913 36.1099C122.063 36.3697 122.265 36.5682 122.517 36.7052C122.772 36.8466 123.045 36.9175 123.334 36.9179C123.625 36.9226 123.908 36.846 124.18 36.6882C124.453 36.5305 124.66 36.324 124.802 36.0689C124.95 35.8156 125.024 35.5443 125.025 35.2552C125.032 34.9678 124.96 34.6943 124.81 34.4344L123.86 32.791L120.962 34.4665Z" fill="white"/>
<path d="M120.717 46.9616L127.808 44.5058L128.319 45.9806L127.567 46.2409C127.945 46.3852 128.282 46.6075 128.576 46.9078C128.871 47.2082 129.09 47.5663 129.234 47.9823C129.326 48.247 129.381 48.5216 129.401 48.8062L127.708 48.7334C127.715 48.5245 127.686 48.3278 127.622 48.1435C127.514 47.8315 127.337 47.5725 127.091 47.3666C126.85 47.159 126.572 47.0222 126.258 46.9563C125.944 46.8903 125.629 46.9122 125.312 47.0219L121.228 48.4364L120.717 46.9616Z" fill="white"/>
<path d="M123.787 59.6262C123.694 58.9422 123.784 58.2937 124.059 57.6807C124.335 57.0726 124.745 56.5598 125.289 56.1424C125.838 55.7292 126.472 55.4737 127.191 55.3757C127.736 55.3014 128.257 55.3289 128.755 55.458C129.257 55.5865 129.709 55.7949 130.112 56.0833C130.521 56.376 130.857 56.7341 131.122 57.1574C131.387 57.5808 131.554 58.0478 131.623 58.5583C131.717 59.2423 131.625 59.8884 131.35 60.4964C131.075 61.1095 130.663 61.6226 130.113 62.0357C129.564 62.4538 128.928 62.7122 128.204 62.8108C127.664 62.8845 127.145 62.8567 126.648 62.7276C126.151 62.5984 125.698 62.3875 125.289 62.0948C124.887 61.8064 124.553 61.4505 124.288 61.0271C124.024 60.6087 123.857 60.1417 123.787 59.6262ZM125.333 59.4155C125.389 59.8269 125.549 60.1813 125.811 60.4787C126.074 60.7762 126.397 60.9947 126.779 61.1345C127.167 61.2785 127.572 61.3217 127.993 61.2643C128.425 61.2056 128.808 61.0524 129.143 60.8048C129.478 60.5622 129.73 60.2628 129.899 59.9066C130.072 59.5497 130.132 59.1705 130.077 58.7691C130.021 58.3626 129.862 58.0082 129.599 57.7058C129.336 57.4084 129.011 57.1877 128.622 57.0437C128.235 56.9046 127.828 56.8642 127.402 56.9222C126.961 56.9824 126.575 57.1359 126.245 57.3828C125.915 57.6297 125.666 57.9312 125.498 58.2874C125.335 58.6479 125.28 59.0239 125.333 59.4155Z" fill="white"/>
<path d="M120.78 70.5703L120.921 69.016L132.13 70.0368L131.989 71.5912L130.89 71.4911C131.251 71.7752 131.534 72.1224 131.737 72.5327C131.941 72.9431 132.019 73.4123 131.971 73.9404C131.921 74.4834 131.773 74.9823 131.526 75.437C131.278 75.8966 130.956 76.2892 130.559 76.6148C130.168 76.9409 129.726 77.1844 129.234 77.3456C128.743 77.5068 128.225 77.5626 127.682 77.5132C127.139 77.4637 126.638 77.3151 126.178 77.0673C125.718 76.8194 125.323 76.4996 124.992 76.1078C124.666 75.7164 124.423 75.2723 124.262 74.7755C124.101 74.2836 124.045 73.7661 124.094 73.2231C124.142 72.695 124.304 72.2476 124.578 71.8808C124.858 71.5144 125.198 71.2239 125.6 71.0093L120.78 70.5703ZM130.47 73.7887C130.51 73.3552 130.435 72.9641 130.245 72.6154C130.056 72.2666 129.786 71.9833 129.434 71.7654C129.087 71.5479 128.689 71.4188 128.241 71.3779C127.792 71.3371 127.376 71.3921 126.99 71.5428C126.605 71.6936 126.287 71.9234 126.038 72.2322C125.789 72.5411 125.645 72.9122 125.605 73.3456C125.566 73.7741 125.638 74.1774 125.819 74.5556C126.006 74.9343 126.273 75.2475 126.623 75.4953C126.972 75.7431 127.373 75.8876 127.826 75.9289C128.27 75.9693 128.686 75.8992 129.074 75.7185C129.461 75.5428 129.781 75.2856 130.033 74.9469C130.285 74.6082 130.431 74.2221 130.47 73.7887Z" fill="white"/>
<path d="M121.613 85.3804C121.829 84.7244 122.194 84.1809 122.709 83.7498C123.223 83.3234 123.816 83.0414 124.487 82.9038C125.162 82.7726 125.844 82.82 126.533 83.0462C127.056 83.2177 127.513 83.4703 127.904 83.8038C128.299 84.139 128.615 84.5243 128.851 84.9598C129.091 85.4016 129.237 85.8708 129.29 86.3673C129.343 86.8638 129.289 87.3568 129.128 87.8464C128.949 88.393 128.67 88.857 128.292 89.2384C127.919 89.6214 127.48 89.909 126.974 90.1012C126.474 90.295 125.94 90.3829 125.372 90.365C124.808 90.3486 124.247 90.2144 123.687 89.9623L125.491 84.4653C125.143 84.4195 124.807 84.4408 124.483 84.5293C124.162 84.6242 123.881 84.7845 123.638 85.0102C123.394 85.2407 123.213 85.5263 123.096 85.867C122.978 86.2283 122.96 86.5859 123.044 86.9398C123.127 87.2985 123.296 87.6252 123.552 87.9198L122.709 89.3096C122.17 88.8169 121.793 88.2168 121.578 87.5091C121.368 86.8029 121.379 86.0933 121.613 85.3804ZM126.641 84.7874L125.312 88.8371C125.67 88.9018 126.019 88.882 126.358 88.7776C126.701 88.6795 127.001 88.512 127.258 88.2751C127.518 88.0445 127.704 87.7581 127.816 87.4159C127.927 87.0784 127.949 86.7382 127.883 86.3952C127.815 86.057 127.672 85.7468 127.453 85.4646C127.239 85.1888 126.968 84.963 126.641 84.7874Z" fill="white"/>
<path d="M118.056 94.4993L124.587 98.1956L123.818 99.5539L123.126 99.1621C123.267 99.5412 123.323 99.9406 123.292 100.36C123.262 100.78 123.138 101.181 122.921 101.564C122.783 101.808 122.614 102.031 122.413 102.234L121.349 100.915C121.51 100.783 121.639 100.631 121.735 100.461C121.897 100.174 121.975 99.8701 121.967 99.5493C121.963 99.231 121.882 98.9323 121.724 98.6531C121.566 98.3739 121.341 98.1517 121.049 97.9866L117.288 95.8576L118.056 94.4993Z" fill="white"/>
<path d="M114.906 109.606L115.902 108.385L111.304 104.621L112.291 103.412L116.89 107.176L117.644 106.252L118.853 107.239L118.099 108.163L119.928 109.648L118.941 110.857L117.111 109.372L116.115 110.593L114.906 109.606Z" fill="white"/>
<path d="M107.149 119.133L105.87 120.2L101.819 108.922L103.092 107.86L104.452 111.612L111.327 115.649L110.019 116.74L105.223 113.754L107.149 119.133Z" fill="white"/>
</svg>
