<svg width="1920" height="263" viewBox="0 0 1920 263" fill="none" xmlns="http://www.w3.org/2000/svg">
<g clip-path="url(#clip0_181_2)">
<mask id="path-1-inside-1_181_2" fill="white">
<path d="M0 0H1920V263H0V0Z"/>
</mask>
<g clip-path="url(#clip1_181_2)">
<path fill-rule="evenodd" clip-rule="evenodd" d="M1885.71 273.661C1892.88 267.266 1899.2 261.187 1905.34 255.338C1912.51 264.936 1919.87 275.173 1927.04 285.271C1921.56 292.261 1915.52 299.408 1909.3 307.306C1901.4 295.893 1893.83 284.828 1885.71 273.661Z" fill="#1A1A1A"/>
<path fill-rule="evenodd" clip-rule="evenodd" d="M1908.31 252.648C1913.97 247.701 1919.39 242.679 1924.47 238.015C1930.83 246.422 1937.42 254.588 1944.1 263.3C1939.45 269.033 1934.71 275.084 1929.65 281.891C1922.53 272.089 1915.33 261.977 1908.31 252.648H1908.31Z" fill="#1A1A1A"/>
<path fill-rule="evenodd" clip-rule="evenodd" d="M1793.99 282.874C1805.15 275.02 1815.58 267.499 1825.24 260.606C1833.34 272.645 1841.36 284.64 1849.35 297.376C1839.97 306.044 1830.38 315.694 1819.41 325.064C1811 310.307 1802.26 296.532 1793.99 282.874Z" fill="#1A1A1A"/>
<path fill-rule="evenodd" clip-rule="evenodd" d="M1829.86 257.392C1839.11 252.044 1847.3 246.145 1855.27 240.653C1862.61 250.474 1870.2 260.772 1877.54 271.516C1870.07 278.505 1862.41 285.639 1853.82 293.822C1845.64 281.005 1837.99 268.93 1829.86 257.392Z" fill="#1A1A1A"/>
<path fill-rule="evenodd" clip-rule="evenodd" d="M1858.89 237.732C1866.56 232.799 1873.56 227.8 1880.29 223.6C1887.03 232.007 1894.21 241.539 1901.06 251.261C1894.79 256.761 1888.1 262.129 1880.89 268.291C1873.83 258.026 1866.29 247.825 1858.89 237.732Z" fill="#1A1A1A"/>
<path fill-rule="evenodd" clip-rule="evenodd" d="M1883.5 221.552C1889.92 217.751 1895.72 213.704 1901.47 210.398C1907.86 217.903 1913.99 225.707 1920.52 234.092C1915.39 238.56 1909.74 243.116 1904.07 248.179C1897.29 239.302 1890.26 229.898 1883.5 221.552Z" fill="#1A1A1A"/>
<path fill-rule="evenodd" clip-rule="evenodd" d="M1517.36 180.444C1540.25 175.632 1561.28 170.89 1581.09 166.378C1588.72 178.672 1596.51 190.412 1603.81 203.01C1584.59 208.35 1563.4 215.232 1539.92 222.241C1532.29 207.733 1524.88 194.008 1517.35 180.444H1517.36Z" fill="#1A1A1A"/>
<path fill-rule="evenodd" clip-rule="evenodd" d="M1649.35 166.561C1665.33 163.023 1679.39 159.535 1693.38 156.897C1700.25 166.176 1707.72 175.787 1715.17 185.864C1701.52 190.005 1687.19 194.451 1671.79 199.37C1664.61 188.319 1656.81 176.969 1649.35 166.558V166.561Z" fill="#1A1A1A"/>
<path fill-rule="evenodd" clip-rule="evenodd" d="M1668.15 94.3403C1680.88 93.831 1692.79 93.0614 1704.28 92.4524C1710.74 99.5003 1717.07 106.374 1723.15 113.516C1712.01 114.526 1700.17 115.811 1687.58 117.649C1681.3 109.599 1675.03 101.803 1668.15 94.3403Z" fill="#1A1A1A"/>
<path fill-rule="evenodd" clip-rule="evenodd" d="M1715.11 264.288C1729.73 257.124 1743.22 250.469 1755.62 243.872C1763.61 255.983 1772.12 268.983 1779.8 282.395C1767.72 290.749 1754.73 299.323 1740.45 308.557C1732.2 293.089 1723.58 278.719 1715.11 264.288Z" fill="#1A1A1A"/>
<path fill-rule="evenodd" clip-rule="evenodd" d="M1762.41 242.034C1774.48 235.866 1785.49 230.474 1795.92 225.322C1803.12 235.531 1810.71 246.095 1818.34 256.838C1808.32 263.654 1797.35 271.167 1785.79 279.07C1777.87 265.738 1770.22 253.946 1762.41 242.031V242.034Z" fill="#1A1A1A"/>
<path fill-rule="evenodd" clip-rule="evenodd" d="M1802.36 221.566C1812 217.125 1821.11 212.796 1829.73 208.489C1836.61 217.294 1843.53 226.587 1850.45 236.135C1842.28 241.779 1833.74 247.172 1824.41 252.556C1817.19 242.347 1809.72 231.899 1802.36 221.568V221.566Z" fill="#1A1A1A"/>
<path fill-rule="evenodd" clip-rule="evenodd" d="M1834.72 205.967C1842.56 201.543 1850.06 198.279 1857.5 195.046C1863.98 203.279 1870.63 211.691 1877.46 220.193C1870.42 224.137 1863.06 228.716 1855.64 233.801C1848.77 224.392 1841.59 214.961 1834.72 205.967Z" fill="#1A1A1A"/>
<path fill-rule="evenodd" clip-rule="evenodd" d="M1860.76 194.141C1867.38 190.943 1873.91 187.937 1880.26 185.277C1885.89 192.369 1891.85 199.436 1897.73 206.506C1891.96 210.075 1885.84 213.917 1879.65 218.036C1873.27 209.942 1866.83 201.842 1860.76 194.141H1860.76Z" fill="#1A1A1A"/>
<path fill-rule="evenodd" clip-rule="evenodd" d="M1902.78 174.688C1908.03 172.784 1912.62 170.649 1917.18 168.548C1922.08 174.063 1927.18 179.854 1931.87 185.31C1927.74 187.976 1923.71 190.846 1918.77 193.374C1913.59 187.154 1908.24 180.87 1902.78 174.686V174.688Z" fill="#1A1A1A"/>
<path fill-rule="evenodd" clip-rule="evenodd" d="M1919.6 167.563C1924.03 165.47 1928.02 163.386 1931.96 161.844C1936.52 166.791 1940.75 171.607 1945.47 176.956C1941.87 179.295 1938.16 181.554 1934.33 184.142C1929.31 178.525 1924.59 172.997 1919.6 167.563Z" fill="#1A1A1A"/>
<path fill-rule="evenodd" clip-rule="evenodd" d="M1730.31 127.645C1740.97 126.183 1751.12 124.935 1760.97 123.396C1767.12 130.756 1773.31 137.854 1779.82 145.243C1770.43 147.219 1760.44 149.085 1749.79 151.709C1743.25 143.477 1736.7 135.551 1730.31 127.645H1730.31Z" fill="#1A1A1A"/>
<path fill-rule="evenodd" clip-rule="evenodd" d="M1736.03 58.179C1745.22 58.6579 1753.94 59.0786 1762.25 59.4717C1767.37 64.5431 1772.44 69.6865 1777.67 74.5974C1769.36 74.6472 1761.04 74.5309 1752.1 74.4091C1746.91 68.9169 1741.41 63.5466 1736.03 58.179H1736.03Z" fill="#1A1A1A"/>
<path fill-rule="evenodd" clip-rule="evenodd" d="M1557.65 269.619C1581.03 260.08 1602.47 251.645 1622.87 243.847C1630.82 258.508 1639.33 274.262 1647.09 291.14C1627.06 301.587 1606.08 312.195 1582.62 323.545C1574.7 305.205 1566.13 287.034 1557.65 269.619H1557.65Z" fill="#1A1A1A"/>
<path fill-rule="evenodd" clip-rule="evenodd" d="M1690.01 217.643C1704.81 212.156 1718.89 207.276 1731.94 202.473C1739.55 213.327 1747.29 224.835 1754.83 236.47C1742.35 242.842 1728.61 249.314 1714.56 255.861C1706.38 243.044 1698.21 229.851 1690.02 217.646L1690.01 217.643Z" fill="#1A1A1A"/>
<path fill-rule="evenodd" clip-rule="evenodd" d="M1779.78 186.866C1790 183.414 1799.32 180.261 1808.2 177.014C1814.64 184.925 1821.38 193.521 1827.84 202.357C1819.39 206.432 1810.13 210.756 1800.78 215.224C1794.03 205.407 1786.75 195.788 1779.78 186.866H1779.78Z" fill="#1A1A1A"/>
<path fill-rule="evenodd" clip-rule="evenodd" d="M1813.28 175.444C1821.74 172.609 1829.67 170.104 1837.27 167.815C1843.64 175.314 1849.82 182.926 1856.18 190.498C1848.95 193.579 1841.59 196.674 1833.62 200.524C1826.71 191.682 1820.1 183.167 1813.28 175.444Z" fill="#1A1A1A"/>
<path fill-rule="evenodd" clip-rule="evenodd" d="M1840.55 166.982C1847.59 164.714 1854.43 162.483 1861.14 160.216C1866.73 166.827 1872.32 173.324 1878.03 180.064C1871.85 182.824 1865.33 185.922 1858.69 188.906C1852.47 181.429 1846.34 174.041 1840.55 166.979L1840.55 166.982Z" fill="#1A1A1A"/>
<path fill-rule="evenodd" clip-rule="evenodd" d="M1865.57 158.873C1871.58 157.066 1877.47 155.327 1882.85 153.597C1888.47 159.845 1893.8 165.658 1899.07 171.906C1894.02 173.891 1888.59 176.142 1882.65 178.976C1877.04 171.865 1871.13 165.202 1865.57 158.873Z" fill="#1A1A1A"/>
<path fill-rule="evenodd" clip-rule="evenodd" d="M1885.49 153.038C1890.95 151.535 1895.85 149.813 1900.77 148.401C1905.59 153.597 1910.51 159.183 1915.09 164.595C1910.65 166.536 1906.08 168.692 1900.77 170.489C1895.84 164.872 1890.61 158.79 1885.49 153.038H1885.49Z" fill="#1A1A1A"/>
<path fill-rule="evenodd" clip-rule="evenodd" d="M1903.39 147.56C1908.1 146.295 1912.54 145.198 1916.72 143.978C1921.14 148.786 1925.69 153.517 1929.88 158.226C1926.05 159.679 1921.85 161.393 1917.68 163.449C1913.02 157.999 1908.22 152.814 1903.39 147.56Z" fill="#1A1A1A"/>
<path fill-rule="evenodd" clip-rule="evenodd" d="M1918.65 143.374C1922.64 142.278 1926.46 141.115 1930.12 139.842C1934.2 144.229 1938.32 148.603 1942.17 152.869C1938.95 154.408 1935.4 155.936 1931.76 157.367C1927.4 152.761 1923.08 148.025 1918.65 143.374H1918.65Z" fill="#1A1A1A"/>
<path fill-rule="evenodd" clip-rule="evenodd" d="M1798.77 119.523C1806.76 118.709 1814.44 118.092 1821.81 117.286C1827.26 123.141 1832.82 129.137 1838.36 135.05C1831.25 136.24 1824.15 137.666 1816.18 139.277C1810.36 132.564 1804.61 125.887 1798.77 119.523Z" fill="#1A1A1A"/>
<path fill-rule="evenodd" clip-rule="evenodd" d="M1825.16 116.755C1832.1 115.883 1838.89 115.293 1844.99 114.482C1850.33 119.952 1855.61 125.547 1860.57 131.025C1854.54 132.193 1848.31 133.372 1841.58 134.446C1836.24 128.708 1830.61 122.59 1825.16 116.755Z" fill="#1A1A1A"/>
<path fill-rule="evenodd" clip-rule="evenodd" d="M1848.02 114.147C1854.36 113.538 1860.04 112.998 1865.55 112.469C1870.33 117.308 1875.34 122.496 1880.1 127.465C1874.8 128.462 1869.32 129.469 1863.55 130.69C1858.52 125.037 1853.23 119.457 1848.02 114.147Z" fill="#1A1A1A"/>
<path fill-rule="evenodd" clip-rule="evenodd" d="M1868.15 112.171C1873.55 111.656 1878.67 111.343 1883.56 110.892C1888.04 115.404 1892.81 120.395 1897.13 124.835C1892.47 125.619 1887.59 126.2 1882.59 126.986C1878.02 122.228 1872.93 117.04 1868.15 112.171H1868.15Z" fill="#1A1A1A"/>
<path fill-rule="evenodd" clip-rule="evenodd" d="M1885.96 110.717C1890.68 110.194 1895.09 109.555 1899.52 109.38C1903.68 113.513 1907.94 117.815 1912.15 122.261C1908.18 122.944 1903.96 123.728 1899.4 124.572C1895.01 119.899 1890.36 115.221 1885.96 110.717Z" fill="#1A1A1A"/>
<path fill-rule="evenodd" clip-rule="evenodd" d="M1901.57 109.308C1905.7 108.915 1909.5 108.553 1913.36 108.298C1917.42 112.215 1921.5 116.245 1925.03 119.988C1921.65 120.664 1918.02 121.361 1914.02 121.862C1909.95 117.524 1905.9 113.427 1901.57 109.308H1901.57Z" fill="#1A1A1A"/>
<path fill-rule="evenodd" clip-rule="evenodd" d="M1915.1 108.168C1918.8 107.791 1922.4 107.55 1925.63 107.202C1929.36 110.828 1933.03 114.568 1936.67 118.18C1933.62 118.892 1930.14 119.255 1926.86 119.736C1923.03 115.952 1919.24 112.085 1915.1 108.171V108.168Z" fill="#1A1A1A"/>
<path fill-rule="evenodd" clip-rule="evenodd" d="M1920.76 85.8696C1915.12 85.3824 1909.42 85.3963 1903.21 85.1139C1902.05 85.0059 1900.73 84.909 1899.37 84.4966C1905.85 85.1139 1911.79 84.9755 1917.52 85.3187C1918.87 85.8198 1919.9 85.6399 1920.76 85.8724V85.8696Z" fill="#1A1A1A"/>
<path fill-rule="evenodd" clip-rule="evenodd" d="M1807.79 97.5654C1814.98 97.1086 1822.11 96.854 1828.55 96.4387C1833.71 101.596 1838.81 106.842 1843.79 112.182C1837.42 112.821 1830.64 113.438 1823.88 114.222C1818.55 108.475 1813.03 102.772 1807.79 97.5626L1807.79 97.5654Z" fill="#1A1A1A"/>
<path fill-rule="evenodd" clip-rule="evenodd" d="M1831.68 96.2587C1838.12 96.1563 1844.22 96.0262 1849.96 95.7798C1854.61 100.547 1859.73 105.538 1864.23 110.296C1858.81 110.828 1852.92 111.24 1846.83 111.736C1841.9 106.54 1836.71 101.289 1831.68 96.2615V96.2587Z" fill="#1A1A1A"/>
<path fill-rule="evenodd" clip-rule="evenodd" d="M1852.72 95.7576C1858.4 95.6192 1863.74 95.6275 1869 95.5029C1873.47 99.7522 1877.93 104.273 1882.26 108.929C1877.32 109.197 1872.2 109.554 1866.87 110.177C1862.43 105.441 1857.39 100.428 1852.72 95.7548L1852.72 95.7576Z" fill="#1A1A1A"/>
<path fill-rule="evenodd" clip-rule="evenodd" d="M1871.45 95.3507C1876.47 95.2483 1881.14 95.3369 1885.68 95.1902C1889.97 99.2955 1894.14 103.387 1898.2 107.448C1893.92 107.636 1889.45 108.173 1884.67 108.691C1880.3 104.245 1875.84 99.6526 1871.45 95.3507Z" fill="#1A1A1A"/>
<path fill-rule="evenodd" clip-rule="evenodd" d="M1887.87 95.0877C1892.36 95.1735 1896.28 94.9631 1900.38 95.0019C1904.42 98.8968 1908.35 102.645 1912.15 106.46C1908.37 106.8 1904.43 107.121 1900.25 107.381C1896.19 103.248 1892.07 99.3397 1887.87 95.0877Z" fill="#1A1A1A"/>
<path fill-rule="evenodd" clip-rule="evenodd" d="M1902.25 94.8635C1906.27 94.8192 1909.9 94.8054 1913.53 94.6753C1917.26 98.2629 1920.86 101.809 1924.48 105.427C1921.23 106.053 1917.71 106.211 1914.03 106.465C1910.08 102.548 1906.37 98.764 1902.25 94.8635H1902.25Z" fill="#1A1A1A"/>
<path fill-rule="evenodd" clip-rule="evenodd" d="M1915.23 94.7168C1918.62 94.7168 1922.06 94.8691 1925 94.7888C1928.4 97.9639 1931.89 101.363 1935.33 104.619C1932.37 104.793 1929.33 105.04 1926.11 105.419C1922.64 101.823 1918.88 98.2989 1915.23 94.7168Z" fill="#1A1A1A"/>
<path fill-rule="evenodd" clip-rule="evenodd" d="M1789.78 78.4368C1797.34 78.517 1804.64 78.625 1811.45 78.7939C1816.43 83.7712 1821.39 88.5574 1826.29 93.4932C1819.58 93.7174 1812.53 94.0524 1805.45 94.3569C1800.14 89.0031 1794.81 83.5746 1789.78 78.4395V78.4368Z" fill="#1A1A1A"/>
<path fill-rule="evenodd" clip-rule="evenodd" d="M1814.64 79.0181C1821.29 79.0402 1827.73 79.3309 1833.73 79.5274C1838.44 84.0978 1843.18 88.6681 1847.75 93.208C1841.92 93.1499 1835.67 93.244 1829.38 93.5347C1824.57 88.4854 1819.65 83.7545 1814.64 79.0181Z" fill="#1A1A1A"/>
<path fill-rule="evenodd" clip-rule="evenodd" d="M1836.76 79.5774C1842.66 79.6937 1848.37 79.9262 1853.77 80.167C1858.07 84.2945 1862.45 88.552 1866.83 93.0282C1861.66 93.0642 1856.24 93.1667 1850.65 93.2525C1846.09 88.6461 1841.35 83.99 1836.76 79.5774H1836.76Z" fill="#1A1A1A"/>
<path fill-rule="evenodd" clip-rule="evenodd" d="M1856.24 80.1946C1861.61 80.4991 1866.25 80.5932 1871.14 80.87C1875.49 84.9033 1879.44 88.7761 1883.62 92.8067C1878.95 92.8288 1874.2 92.779 1869.12 92.8786C1865.01 88.5934 1860.63 84.3359 1856.24 80.1946Z" fill="#1A1A1A"/>
<path fill-rule="evenodd" clip-rule="evenodd" d="M1873.66 81.0806C1878.12 81.1664 1882.48 81.291 1886.83 81.5456C1890.85 85.4184 1894.7 89.0946 1898.44 92.7127C1894.55 92.9092 1890.36 92.9369 1885.8 92.8373C1881.76 88.7901 1877.73 84.9976 1873.66 81.0806Z" fill="#1A1A1A"/>
<path fill-rule="evenodd" clip-rule="evenodd" d="M1888.96 81.6121C1893.21 81.9027 1896.95 82.0633 1900.54 82.2072C1904.34 85.7007 1908.22 89.2247 1911.7 92.6407C1908.15 92.6988 1904.44 92.8151 1900.37 92.7127C1896.63 89.1084 1892.85 85.4405 1888.96 81.6121Z" fill="#1A1A1A"/>
<path fill-rule="evenodd" clip-rule="evenodd" d="M1902.77 82.6279C1906.55 82.9407 1909.9 83.1151 1913.31 83.3172C1916.78 86.6003 1920.42 89.9859 1923.77 93.3742C1920.57 93.1278 1917.19 93.0836 1913.67 92.9396C1910.18 89.662 1906.7 86.3872 1902.77 82.6307V82.6279Z" fill="#1A1A1A"/>
<path fill-rule="evenodd" clip-rule="evenodd" d="M1798.61 63.0537C1805.53 63.4468 1812.08 63.7153 1818.41 64.2302C1823.11 68.6981 1827.64 73.0221 1832.22 77.6783C1825.97 77.2575 1819.72 77.2132 1812.95 77.0167C1808.35 72.3522 1803.54 67.696 1798.61 63.0537H1798.61Z" fill="#1A1A1A"/>
<path fill-rule="evenodd" clip-rule="evenodd" d="M1821.58 64.676C1827.78 64.9584 1833.48 65.4899 1839.23 66.0934C1843.59 70.1045 1847.82 74.1932 1852.16 78.3566C1846.57 77.8916 1841.14 77.8777 1835.1 77.6895C1830.55 73.2492 1825.98 68.7315 1821.58 64.676Z" fill="#1A1A1A"/>
<path fill-rule="evenodd" clip-rule="evenodd" d="M1841.88 66.3174C1847.34 66.7382 1852.4 67.2752 1857.52 67.8288C1861.67 71.577 1865.67 75.4802 1869.84 79.3945C1864.9 78.8935 1860.05 78.7911 1854.63 78.3924C1850.56 74.4698 1846.24 70.4227 1841.88 66.3174Z" fill="#1A1A1A"/>
<path fill-rule="evenodd" clip-rule="evenodd" d="M1860.01 68.0088C1864.84 68.4379 1869.39 68.6981 1873.9 69.1271C1877.79 72.7591 1881.58 76.3495 1885.44 80.0312C1881.1 79.807 1876.82 79.616 1872.01 79.4001C1867.9 75.5356 1864.09 71.7791 1860.01 68.0088Z" fill="#1A1A1A"/>
<path fill-rule="evenodd" clip-rule="evenodd" d="M1876.14 69.3984C1880.22 69.667 1884.27 70.0517 1888.45 70.6414C1892.12 73.9826 1895.79 77.4651 1899.35 80.798C1895.55 80.6153 1891.62 80.2388 1887.57 80.1364C1883.63 76.4519 1879.83 72.9584 1876.14 69.3984Z" fill="#1A1A1A"/>
<path fill-rule="evenodd" clip-rule="evenodd" d="M1900.92 73.2407C1904.51 73.6836 1907.94 74.0906 1911.09 74.3674C1914.33 77.3377 1917.79 80.4852 1921.12 83.6105C1917.95 83.3282 1914.69 83.2534 1911.43 83.0513C1908.12 79.8097 1904.55 76.5349 1900.92 73.2435V73.2407Z" fill="#1A1A1A"/>
<path fill-rule="evenodd" clip-rule="evenodd" d="M1913.03 74.5337C1916.1 74.8022 1919.03 74.9987 1921.87 75.3558C1924.85 78.2182 1927.85 80.8923 1930.71 83.6882C1928.2 83.6523 1925.33 83.4474 1922.59 83.3616C1919.53 80.5131 1916.21 77.4099 1913.03 74.5337Z" fill="#1A1A1A"/>
<path fill-rule="evenodd" clip-rule="evenodd" d="M1806.1 50.3835C1812.32 51.1171 1818.33 51.823 1824.38 52.5428C1828.67 56.5235 1832.85 60.3824 1837.25 64.4296C1831.32 63.66 1825.74 63.325 1819.39 62.6413C1815.05 58.4502 1810.54 54.5027 1806.1 50.3835Z" fill="#1A1A1A"/>
<path fill-rule="evenodd" clip-rule="evenodd" d="M1827.16 52.8333C1832.7 53.4368 1838.27 54.2202 1843.57 54.8818C1847.49 58.5802 1851.58 62.3145 1855.68 66.143C1850.5 65.57 1845.49 65.1686 1839.9 64.7035C1835.5 60.5927 1831.31 56.7698 1827.16 52.8306V52.8333Z" fill="#1A1A1A"/>
<path fill-rule="evenodd" clip-rule="evenodd" d="M1846.1 55.1782C1851.02 55.7374 1855.85 56.399 1860.8 57.1409C1864.57 60.6732 1868.17 63.9065 1872.11 67.5245C1867.6 67.0955 1863 66.7328 1858.16 66.4117C1854.14 62.5611 1849.98 58.7382 1846.1 55.1782Z" fill="#1A1A1A"/>
<path fill-rule="evenodd" clip-rule="evenodd" d="M1862.95 57.4758C1867.32 58.143 1871.69 58.7188 1875.84 59.278C1879.44 62.5777 1883.21 65.8885 1886.79 69.1384C1882.68 68.7176 1878.63 68.2747 1874.36 67.793C1870.41 64.2248 1866.67 60.8475 1862.95 57.4758Z" fill="#1A1A1A"/>
<path fill-rule="evenodd" clip-rule="evenodd" d="M1889.21 62.1182C1892.97 62.7216 1896.45 63.1369 1899.72 63.5576C1903.09 66.6442 1906.5 69.6837 1909.71 72.7925C1906.49 72.4575 1903.2 72.1253 1899.55 71.6603C1896.15 68.5072 1892.76 65.4124 1889.21 62.1209V62.1182Z" fill="#1A1A1A"/>
<path fill-rule="evenodd" clip-rule="evenodd" d="M1902.14 64.4849C1905.47 64.9279 1908.43 65.3929 1911.46 65.9521C1914.6 68.748 1917.69 71.5163 1920.99 74.4949C1918.15 74.1239 1915.08 73.8914 1912.02 73.6367C1908.8 70.5695 1905.54 67.5328 1902.14 64.4822L1902.14 64.4849Z" fill="#1A1A1A"/>
<path fill-rule="evenodd" clip-rule="evenodd" d="M1792.74 35.6759C1799.3 36.7029 1805.5 37.6192 1811.46 38.6462C1815.74 42.2006 1819.8 45.8547 1824.19 49.8575C1818.19 48.9412 1812.12 48.2879 1805.93 47.4879C1801.51 43.4131 1797.15 39.5459 1792.74 35.6731L1792.74 35.6759Z" fill="#1A1A1A"/>
<path fill-rule="evenodd" clip-rule="evenodd" d="M1814.29 38.9424C1820.16 39.95 1825.76 40.7362 1831.25 41.6857C1835.06 45.2097 1839.05 48.609 1843.09 52.3019C1837.76 51.5323 1832.26 50.8569 1826.69 50.0125C1822.61 46.3142 1818.54 42.7099 1814.29 38.9424Z" fill="#1A1A1A"/>
<path fill-rule="evenodd" clip-rule="evenodd" d="M1799.09 25.8459C1805.06 26.8951 1810.78 28.0467 1816.37 29.0875C1820.39 32.6392 1824.33 36.0469 1828.26 39.4657C1822.99 38.5632 1817.26 37.6912 1811.25 36.6725C1807.28 33.1485 1803.14 29.5056 1799.09 25.8459H1799.09Z" fill="#1A1A1A"/>
<path fill-rule="evenodd" clip-rule="evenodd" d="M1734.19 29.5747C1742.77 30.7567 1750.76 31.8557 1758.37 32.6447C1763.43 36.9936 1768.06 41.456 1772.54 45.6415C1765.16 45.0242 1757.3 44.1384 1748.97 43.2442C1744.23 38.7292 1739.29 34.1534 1734.19 29.5775L1734.19 29.5747Z" fill="#1A1A1A"/>
<path fill-rule="evenodd" clip-rule="evenodd" d="M1917.39 123.7C1921.25 123.105 1924.8 122.435 1928.18 121.724C1932.4 126.003 1936.36 130.114 1940.06 134.009C1936.95 134.895 1933.59 135.999 1930.14 137.038C1925.81 132.467 1921.8 128.268 1917.39 123.697V123.7Z" fill="#1A1A1A"/>
<path fill-rule="evenodd" clip-rule="evenodd" d="M1903.22 126.67C1907.61 125.923 1911.68 125.079 1915.66 124.273C1919.91 128.785 1924.15 133.129 1928.4 137.619C1924.76 138.804 1920.86 139.958 1916.88 141.121C1912.37 136.215 1907.67 131.299 1903.22 126.67Z" fill="#1A1A1A"/>
<path fill-rule="evenodd" clip-rule="evenodd" d="M1885.29 129.264C1890.33 128.262 1895.15 127.512 1899.64 126.859C1904.24 131.438 1908.91 136.448 1913.49 141.34C1909.25 142.35 1904.66 143.438 1900.09 144.944C1895.06 139.429 1890.27 134.308 1885.28 129.264H1885.29Z" fill="#1A1A1A"/>
<path fill-rule="evenodd" clip-rule="evenodd" d="M1866.85 132.52C1872.53 131.415 1878.12 130.167 1883.02 129.201C1888.05 134.469 1893.14 139.662 1897.95 145.046C1893.1 146.522 1887.98 148.133 1882.39 149.45C1877.27 143.767 1872.1 138.253 1866.85 132.523V132.52Z" fill="#1A1A1A"/>
<path fill-rule="evenodd" clip-rule="evenodd" d="M1844.93 136.423C1851.51 135.282 1858.03 134.294 1863.66 132.675C1868.97 138.51 1874.39 144.396 1879.42 150.126C1873.83 151.74 1867.96 153.381 1861.74 154.942C1856.05 148.578 1850.61 142.555 1844.93 136.423H1844.93Z" fill="#1A1A1A"/>
<path fill-rule="evenodd" clip-rule="evenodd" d="M1820.1 141.661C1827.83 140.069 1834.93 138.646 1841.61 137.135C1847.34 143.418 1853.14 149.697 1858.79 156.244C1851.83 158.168 1845.4 160.568 1838.02 162.447C1831.93 155.457 1825.91 148.498 1820.1 141.661Z" fill="#1A1A1A"/>
<path fill-rule="evenodd" clip-rule="evenodd" d="M1791.4 148.213C1800.44 146.447 1808.45 144.777 1816.52 143.025C1822.55 149.926 1828.56 156.952 1834.58 163.82C1827.04 166.306 1819.06 168.739 1810.68 171.231C1804.05 163.172 1797.75 155.596 1791.4 148.213Z" fill="#1A1A1A"/>
<path fill-rule="evenodd" clip-rule="evenodd" d="M1492.68 108.32C1498.37 103.786 1503.94 99.2097 1509.03 95.0325C1517.25 99.6748 1525.44 103.999 1533.71 108.901C1529.09 113.704 1524.53 118.74 1519 123.891C1510.09 118.637 1501.18 113.414 1492.69 108.32H1492.68Z" fill="#1A1A1A"/>
<path fill-rule="evenodd" clip-rule="evenodd" d="M1771.73 99.013C1773.99 96.7403 1776.2 94.6254 1778.5 92.8149C1781.7 95.0517 1785.04 97.4351 1788.33 99.7023C1786.29 101.853 1784.35 104.165 1782.28 106.764C1778.73 104.12 1775.2 101.496 1771.72 99.013H1771.73Z" fill="#1A1A1A"/>
<path fill-rule="evenodd" clip-rule="evenodd" d="M1861.29 15.0497C1862.17 13.7099 1862.98 12.3147 1863.72 10.9167C1866.6 13.2947 1869.68 15.8691 1872.7 18.3771C1872.23 19.9855 1871.57 21.4554 1870.81 23.0305C1867.65 20.3813 1864.44 17.6879 1861.29 15.0497H1861.29Z" fill="#1A1A1A"/>
<path fill-rule="evenodd" clip-rule="evenodd" d="M1393.43 247.482C1400.54 241.931 1407.24 236.614 1413.76 231.933C1422.24 234.535 1430.56 237.616 1439.29 240.556C1432.96 245.671 1426.73 251.2 1420.32 257.157C1411.22 253.741 1401.9 250.663 1393.43 247.479L1393.43 247.482Z" fill="#1A1A1A"/>
<path fill-rule="evenodd" clip-rule="evenodd" d="M1840.99 33.0543C1841.69 32.2875 1842.24 31.5401 1842.79 30.8203C1844.67 32.1767 1846.55 33.5083 1848.37 34.837C1847.95 35.6592 1847.51 36.6253 1847.03 37.4336C1845.01 35.9803 1843.07 34.5381 1840.99 33.0515V33.0543Z" fill="#1A1A1A"/>
<path fill-rule="evenodd" clip-rule="evenodd" d="M1776.45 -2.0274C1778.14 -2.74438 1779.74 -3.3783 1781.33 -3.9624C1783.71 -2.34299 1786.1 -0.668204 1788.54 1.09793C1787.21 1.89795 1785.75 2.60939 1784.08 3.52844C1781.6 1.59345 1779.02 -0.214213 1776.45 -2.02464V-2.0274Z" fill="#1A1A1A"/>
<path fill-rule="evenodd" clip-rule="evenodd" d="M1417.23 63.6654C1423.92 60.9194 1430.14 58.5221 1436.06 56.2632C1443.71 59.4245 1450.95 62.453 1457.88 65.6641C1452.53 68.3244 1446.91 71.0483 1440.61 74.3979C1432.53 70.6414 1424.67 66.9153 1417.23 63.6654Z" fill="#1A1A1A"/>
<path fill-rule="evenodd" clip-rule="evenodd" d="M1388.29 153.78C1393.05 151.507 1396.91 149.362 1400.98 147.308C1406.95 148.993 1412.68 150.519 1418.38 152.169C1414.88 154.275 1410.92 156.731 1406.73 159.056C1400.48 157.362 1394.36 155.518 1388.29 153.78Z" fill="#1A1A1A"/>
<path fill-rule="evenodd" clip-rule="evenodd" d="M1849.81 20.099C1850.77 19.7834 1851.68 19.4208 1852.56 19.1882C1853.97 20.1433 1855.52 21.1675 1857.01 22.1198C1856.12 22.4354 1855.22 22.7676 1854.39 23.144C1852.91 22.1392 1851.36 21.1288 1849.81 20.099Z" fill="#1A1A1A"/>
<path fill-rule="evenodd" clip-rule="evenodd" d="M1699.78 33.309C1701.87 32.7637 1703.88 32.2073 1705.8 31.6924C1708.34 33.0571 1710.82 34.3554 1713.49 35.7838C1711.51 36.2351 1709.57 36.8524 1707.62 37.4254C1705.1 36.0191 1702.33 34.6239 1699.78 33.309Z" fill="#1A1A1A"/>
<path fill-rule="evenodd" clip-rule="evenodd" d="M1873.16 41.7161C1874.05 41.4033 1874.96 40.9908 1875.78 40.6614C1877.16 41.5832 1878.41 42.4275 1879.73 43.3272C1878.98 43.676 1878.22 44.0691 1877.39 44.4898C1876.01 43.532 1874.61 42.696 1873.16 41.7133V41.7161Z" fill="#1A1A1A"/>
<path fill-rule="evenodd" clip-rule="evenodd" d="M1861.8 5.07295C1862.59 4.87087 1863.35 4.79336 1864.13 4.64941C1865.27 5.42452 1866.47 6.29098 1867.62 7.01902C1866.97 7.15743 1866.19 7.35674 1865.54 7.5782C1864.28 6.70621 1863.08 5.86467 1861.8 5.07572V5.07295Z" fill="#1A1A1A"/>
<path fill-rule="evenodd" clip-rule="evenodd" d="M1287 204.785C1293.36 202.875 1300.09 200.607 1306.88 198.639C1313.18 199.985 1319.98 200.942 1326.37 202.119C1320.26 203.985 1313.64 206.172 1307.53 208.339C1300.38 207.14 1293.78 206.036 1287 204.787V204.785Z" fill="#1A1A1A"/>
<path fill-rule="evenodd" clip-rule="evenodd" d="M1601.12 81.4958C1604.29 80.7262 1607.68 80.2667 1610.91 79.5691C1614.09 80.6736 1616.99 81.6397 1619.84 82.7747C1616.9 83.3117 1613.73 84.0675 1610.42 84.8232C1607.32 83.6827 1604.14 82.5865 1601.13 81.4958H1601.12Z" fill="#1A1A1A"/>
<path fill-rule="evenodd" clip-rule="evenodd" d="M1611.93 138.848C1614.79 137.068 1617.61 135.296 1620.46 133.754C1624.44 135.28 1628.5 137.074 1632.58 138.804C1629.94 140.561 1627.31 142.275 1624.65 144.274C1620.22 142.269 1616.03 140.589 1611.93 138.845V138.848Z" fill="#1A1A1A"/>
<path fill-rule="evenodd" clip-rule="evenodd" d="M1681.11 68.0256C1683.68 66.5584 1686.06 65.2491 1688.26 63.9729C1691.65 65.847 1695.18 67.8374 1698.71 69.8637C1696.49 71.2229 1694.51 72.8562 1692.04 74.2597C1688.29 72.1586 1684.7 70.0686 1681.11 68.0256Z" fill="#1A1A1A"/>
</g>
<g clip-path="url(#clip2_181_2)">
<path fill-rule="evenodd" clip-rule="evenodd" d="M29.6826 217.733C26.447 212.356 23.8076 206.442 21.2182 201.166C19.8409 203.291 15.8938 226.543 10.4409 263H22.2388C25.8116 236.238 28.4684 219.642 29.6826 217.733Z" fill="#1A1A1A"/>
<path fill-rule="evenodd" clip-rule="evenodd" d="M19.58 202.308C16.9646 197.316 14.5341 192.562 12.0753 188.95C10.7371 190.887 5.96097 219.387 -0.605957 263H10.0582C14.83 227.201 18.2984 204.358 19.58 202.308Z" fill="#1A1A1A"/>
<path fill-rule="evenodd" clip-rule="evenodd" d="M10.8982 187.5C8.69403 184.36 6.58991 181.378 4.51191 178.543C2.05095 192.772 -0.440478 206.812 -2.83181 220.765C-5.26449 234.935 -7.66453 249.034 -10.0015 262.97L-9.8448 262.998H-0.257701C3.31516 238.201 7.10996 212.949 10.8982 187.498V187.5Z" fill="#1A1A1A"/>
<path fill-rule="evenodd" clip-rule="evenodd" d="M3.64789 177.068C1.80706 174.131 0.0510921 171.519 -1.62001 169.059C-4.78815 184.678 -7.95194 200.127 -10.9982 215.279C-14.0728 230.585 -17.0908 245.716 -20 260.553V261.161C-17.2366 261.682 -14.397 262.199 -11.4813 262.671C-9.103 248.625 -6.58764 234.357 -4.05051 219.967C-1.55691 205.818 1.09771 191.534 3.64789 177.068Z" fill="#1A1A1A"/>
<path fill-rule="evenodd" clip-rule="evenodd" d="M120.499 263C114.226 256.906 108.264 251.236 102.606 245.45C99.1249 251.169 95.4846 257.071 91.853 263H120.499Z" fill="#1A1A1A"/>
<path fill-rule="evenodd" clip-rule="evenodd" d="M99.3774 242.526C92.9019 235.723 86.8942 230.083 81.2411 224.875C74.8548 233.673 68.9363 242.215 62.6914 251.682C65.4831 255.101 68.3336 258.94 71.3168 263.002H86.5743C90.8739 255.976 95.1387 249.183 99.3774 242.526Z" fill="#1A1A1A"/>
<path fill-rule="evenodd" clip-rule="evenodd" d="M78.5929 222.085C72.9921 217.086 68.0592 212.334 63.2701 207.762C57.6714 215.264 51.927 223.267 46.3262 231.161C50.6019 236.625 55.3214 242.213 60.1759 248.386C66.3468 239.464 72.2566 230.815 78.5929 222.085Z" fill="#1A1A1A"/>
<path fill-rule="evenodd" clip-rule="evenodd" d="M60.9505 205.658C56.5334 201.791 52.299 197.866 48.3345 194.219C43.3712 200.792 38.223 207.175 33.0073 213.985C36.6389 218.467 40.3423 223.198 44.2895 228.519C49.8489 220.856 55.4693 212.951 60.9527 205.658H60.9505Z" fill="#1A1A1A"/>
<path fill-rule="evenodd" clip-rule="evenodd" d="M34.5742 180.805C31.5344 177.795 28.5425 175.109 25.6529 172.512C21.5557 177.362 17.0798 182.696 12.9956 187.853C15.3108 190.965 17.998 194.289 20.6766 198.076C25.3287 191.986 29.872 186.676 34.5742 180.805Z" fill="#1A1A1A"/>
<path fill-rule="evenodd" clip-rule="evenodd" d="M23.9731 171.621C21.3903 169.093 18.777 166.799 16.5053 164.237C12.8411 168.559 8.99842 173.012 5.42773 177.334C7.37518 180.253 9.54675 183.179 11.8141 186.297C15.7764 181.441 19.9999 176.375 23.9731 171.621Z" fill="#1A1A1A"/>
<path fill-rule="evenodd" clip-rule="evenodd" d="M14.8602 162.761C12.7604 160.439 10.7477 158.325 8.81985 156.224C5.47111 160.035 2.01793 164.062 -1.15674 167.816C0.381636 170.225 2.19853 172.666 4.10246 175.354C7.67096 171.078 11.4462 166.795 14.8624 162.761H14.8602Z" fill="#1A1A1A"/>
<path fill-rule="evenodd" clip-rule="evenodd" d="M7.60802 155.053C5.77372 153.253 4.14178 151.379 2.39887 149.641C-0.501626 152.907 -3.56097 156.252 -6.46582 159.518C-5.24295 161.87 -3.81338 164.181 -2.49912 166.667C0.869202 162.885 4.38331 158.875 7.60802 155.053Z" fill="#1A1A1A"/>
<path fill-rule="evenodd" clip-rule="evenodd" d="M1.72202 148.732C0.187995 147.079 -1.20894 145.159 -2.41223 143.45C-5.11254 146.362 -7.65184 149.232 -10.5371 152.333C-9.35123 154.423 -8.1523 156.399 -6.88374 158.546C-4.04852 155.382 -1.11756 152.099 1.72419 148.732H1.72202Z" fill="#1A1A1A"/>
<path fill-rule="evenodd" clip-rule="evenodd" d="M6.45069 87.2376C8.22624 86.2833 9.89299 85.3852 11.7208 84.6538C11.7186 84.9157 11.773 85.0736 11.9384 85.0563C9.99744 85.9652 7.94119 87.1684 6.32666 88.0318C6.33319 87.6791 6.33319 87.5774 6.45069 87.2376Z" fill="#1A1A1A"/>
<path fill-rule="evenodd" clip-rule="evenodd" d="M184.989 252.92C174.029 245.543 164.54 238.556 154.637 232.133C148.732 242.152 142.593 252.057 136.394 263.002H179.595C181.377 259.605 183.174 256.244 184.989 252.92Z" fill="#1A1A1A"/>
<path fill-rule="evenodd" clip-rule="evenodd" d="M150.198 229.287C141.488 223.148 133.341 217.268 125.802 211.88C119.478 221.291 113.216 230.668 106.98 240.624C114.3 247.4 121.791 254.943 130.354 262.269C136.918 250.732 143.742 239.964 150.198 229.287Z" fill="#1A1A1A"/>
<path fill-rule="evenodd" clip-rule="evenodd" d="M122.194 209.367C114.97 205.187 108.577 200.575 102.36 196.282C96.6247 203.96 90.6997 212.01 84.9727 220.408C90.8041 225.872 96.7857 231.449 103.49 237.846C109.878 227.826 115.849 218.387 122.194 209.367Z" fill="#1A1A1A"/>
<path fill-rule="evenodd" clip-rule="evenodd" d="M99.5296 193.999C93.5415 190.142 88.0821 186.234 82.8229 182.951C77.5594 189.523 71.9585 196.974 66.6123 204.574C71.5081 208.874 76.726 213.07 82.3573 217.887C87.8689 209.863 93.7547 201.889 99.5296 193.999Z" fill="#1A1A1A"/>
<path fill-rule="evenodd" clip-rule="evenodd" d="M80.3163 181.35C75.3074 178.379 70.7815 175.215 66.2925 172.631C61.301 178.498 56.5161 184.598 51.418 191.153C55.426 194.646 59.8366 198.208 64.2624 202.166C69.5543 195.226 75.0397 187.875 80.3163 181.35Z" fill="#1A1A1A"/>
<path fill-rule="evenodd" clip-rule="evenodd" d="M20.6178 81.3084C19.4537 81.1894 18.4006 81.0639 17.4606 80.8821C15.5327 82.7799 13.7637 84.5501 11.875 86.3505C12.8172 86.4803 13.7049 86.7876 14.7059 87.0213C16.6511 85.1863 18.529 83.2776 20.6178 81.3084Z" fill="#1A1A1A"/>
<path fill-rule="evenodd" clip-rule="evenodd" d="M50.5954 162.045C47.0508 159.927 43.8414 157.682 40.5427 155.622C36.4563 160.478 32.2481 165.358 28.1182 170.32C31.0622 172.69 34.115 175.313 37.4006 177.948C41.7503 172.599 46.113 167.366 50.5954 162.045Z" fill="#1A1A1A"/>
<path fill-rule="evenodd" clip-rule="evenodd" d="M38.7017 154.962C35.7621 152.9 32.7963 151.043 29.9763 149.146C26.4665 153.19 22.7958 157.421 19.2729 161.692C21.6708 164.084 24.2188 166.349 26.8691 168.814C30.7618 164.315 34.7263 159.63 38.7017 154.962Z" fill="#1A1A1A"/>
<path fill-rule="evenodd" clip-rule="evenodd" d="M28.2205 148.022C25.5724 146.415 23.44 144.534 21.0857 143.002C17.7413 146.733 14.3664 150.424 11.2026 154.105C13.1305 156.122 15.2694 158.092 17.5628 160.301C21.2075 155.86 24.7651 151.866 28.2183 148.022H28.2205Z" fill="#1A1A1A"/>
<path fill-rule="evenodd" clip-rule="evenodd" d="M19.7541 141.978C17.5477 140.433 15.5436 138.866 13.4374 137.657C10.5151 140.821 7.44488 144.114 4.33984 147.817C6.01965 149.561 7.77997 151.264 9.74482 153.246C12.9717 149.593 16.4097 145.625 19.7541 141.978Z" fill="#1A1A1A"/>
<path fill-rule="evenodd" clip-rule="evenodd" d="M12.6934 136.992C10.8482 135.527 9.07699 134.294 7.5582 132.874C4.88182 135.772 2.12058 138.776 -0.544922 141.597C0.84549 143.238 2.24678 145.051 3.90918 146.828C6.82274 143.419 9.76893 140.206 12.6934 136.99V136.992Z" fill="#1A1A1A"/>
<path fill-rule="evenodd" clip-rule="evenodd" d="M6.47241 131.903C4.85135 130.847 3.54362 129.438 2.24242 128.228C-0.309929 130.886 -2.88622 133.682 -5.42334 136.527C-4.06339 137.761 -3.00589 139.408 -1.75474 140.907C0.912936 137.949 3.79821 134.824 6.47241 131.905V131.903Z" fill="#1A1A1A"/>
<path fill-rule="evenodd" clip-rule="evenodd" d="M1.52855 127.847C0.116374 126.82 -0.806216 125.45 -1.96381 124.275C-4.14843 126.547 -6.40921 128.966 -8.50244 131.273C-7.47106 132.563 -6.55935 134.004 -5.51926 135.493C-3.17144 132.937 -0.84103 130.375 1.52855 127.847Z" fill="#1A1A1A"/>
<path fill-rule="evenodd" clip-rule="evenodd" d="M366.163 149.215C348.294 145.454 331.874 141.747 316.41 138.219C310.45 147.83 304.366 157.007 298.67 166.856C313.671 171.03 330.221 176.41 348.546 181.889C354.508 170.547 360.288 159.818 366.165 149.215H366.163Z" fill="#1A1A1A"/>
<path fill-rule="evenodd" clip-rule="evenodd" d="M263.113 138.362C250.639 135.597 239.664 132.87 228.74 130.808C223.383 138.061 217.55 145.575 211.733 153.452C222.391 156.689 233.577 160.164 245.599 164.01C251.2 155.371 257.297 146.499 263.113 138.36V138.362Z" fill="#1A1A1A"/>
<path fill-rule="evenodd" clip-rule="evenodd" d="M248.436 81.9055C238.501 81.5074 229.206 80.9058 220.237 80.4297C215.191 85.9392 210.251 91.3125 205.503 96.8956C214.203 97.6854 223.442 98.6895 233.27 100.126C238.175 93.8335 243.071 87.7397 248.436 81.9055Z" fill="#1A1A1A"/>
<path fill-rule="evenodd" clip-rule="evenodd" d="M301.225 263C288.489 256.246 276.571 249.858 265.348 243.701C262.141 250.005 258.927 256.434 255.75 263H301.222H301.225Z" fill="#1A1A1A"/>
<path fill-rule="evenodd" clip-rule="evenodd" d="M257.723 239.748C243.101 231.973 230.218 224.476 217.613 217.768C211 229.207 204.226 241.509 197.485 253.788C201.611 256.839 205.81 259.899 210.117 263H246.374C250.214 255.054 253.99 247.33 257.723 239.748Z" fill="#1A1A1A"/>
<path fill-rule="evenodd" clip-rule="evenodd" d="M211.781 214.758C200.368 209.157 189.833 203.955 180.154 198.798C173.918 208.266 167.275 218.428 161.276 228.913C170.704 235.444 180.846 242.145 191.998 249.365C198.441 237.272 205.166 226.039 211.781 214.758Z" fill="#1A1A1A"/>
<path fill-rule="evenodd" clip-rule="evenodd" d="M174.856 197.361C165.427 192.54 156.835 188.325 148.688 184.297C143.072 192.278 137.147 200.536 131.191 208.935C139.014 214.262 147.578 220.135 156.597 226.314C162.786 215.892 168.754 206.673 174.856 197.359V197.361Z" fill="#1A1A1A"/>
<path fill-rule="evenodd" clip-rule="evenodd" d="M143.664 181.361C136.135 177.89 129.026 174.505 122.294 171.138C116.922 178.022 111.525 185.286 106.123 192.75C112.496 197.162 119.165 201.378 126.446 205.587C132.088 197.606 137.921 189.439 143.664 181.363V181.361Z" fill="#1A1A1A"/>
<path fill-rule="evenodd" clip-rule="evenodd" d="M118.401 169.167C112.283 165.709 106.425 163.157 100.613 160.63C95.5564 167.066 90.3669 173.642 85.0337 180.288C90.5301 183.371 96.2767 186.951 102.069 190.926C107.435 183.57 113.04 176.198 118.401 169.167Z" fill="#1A1A1A"/>
<path fill-rule="evenodd" clip-rule="evenodd" d="M98.0697 159.922C92.9062 157.423 87.808 155.073 82.8448 152.993C78.4494 158.537 73.7995 164.062 69.2104 169.589C73.7168 172.378 78.4886 175.382 83.3278 178.602C88.3063 172.274 93.3327 165.943 98.0675 159.922H98.0697Z" fill="#1A1A1A"/>
<path fill-rule="evenodd" clip-rule="evenodd" d="M65.2676 144.716C61.166 143.227 57.5845 141.558 54.0268 139.916C50.1994 144.227 46.2196 148.754 42.5532 153.019C45.7845 155.103 48.9265 157.347 52.7822 159.323C56.8251 154.46 61.0028 149.548 65.2676 144.714V144.716Z" fill="#1A1A1A"/>
<path fill-rule="evenodd" clip-rule="evenodd" d="M52.1358 139.146C48.6805 137.51 45.5602 135.88 42.49 134.675C38.9258 138.542 35.6271 142.307 31.939 146.488C34.7503 148.317 37.6442 150.082 40.6361 152.106C44.5549 147.715 48.2366 143.394 52.1358 139.146Z" fill="#1A1A1A"/>
<path fill-rule="evenodd" clip-rule="evenodd" d="M40.9603 134.073C38.1599 132.755 35.6184 131.388 32.9812 130.245C29.6325 133.829 26.3055 137.345 23.3267 140.894C25.5004 142.496 28.0571 144.03 30.5768 145.677C34.154 141.719 37.5768 137.884 40.9581 134.073H40.9603Z" fill="#1A1A1A"/>
<path fill-rule="evenodd" clip-rule="evenodd" d="M31.0602 129.745C28.5056 128.598 26.2144 127.518 23.995 126.281C21.3403 129.148 18.1896 132.517 15.4937 135.601C17.4172 136.992 19.6018 138.377 21.8103 139.946C24.7957 136.482 28.003 133.069 31.0602 129.745Z" fill="#1A1A1A"/>
<path fill-rule="evenodd" clip-rule="evenodd" d="M22.7677 125.655C20.6353 124.707 18.5095 123.77 16.6382 122.816C14.0358 125.577 11.5335 128.308 8.94629 131.007C10.5848 132.245 12.4756 133.387 14.2599 134.915C17.0777 131.734 19.8128 128.696 22.7677 125.657V125.655Z" fill="#1A1A1A"/>
<path fill-rule="evenodd" clip-rule="evenodd" d="M16.0921 122.288C14.2317 121.403 12.6215 120.414 10.8438 119.613C8.59171 121.92 6.2069 124.458 3.80469 126.951C5.28866 128.064 6.72259 129.319 8.34365 130.598C10.8677 127.821 13.4897 125.106 16.0921 122.288Z" fill="#1A1A1A"/>
<path fill-rule="evenodd" clip-rule="evenodd" d="M10.0753 118.834C8.66098 117.789 7.25751 116.807 5.8584 116.069C3.55192 118.488 1.46522 120.687 -0.636719 122.928C0.46212 124.11 1.68716 125.207 2.97966 126.376C5.38187 123.796 7.7645 121.338 10.0753 118.832V118.834Z" fill="#1A1A1A"/>
<path fill-rule="evenodd" clip-rule="evenodd" d="M5.04479 115.541C3.77188 114.848 2.56424 114.121 1.53503 113.212C-0.418942 115.279 -2.2032 117.148 -4.30078 119.386C-3.3956 120.392 -2.48389 121.375 -1.45033 122.39C0.649434 120.208 2.73396 118.062 5.04479 115.541Z" fill="#1A1A1A"/>
<path fill-rule="evenodd" clip-rule="evenodd" d="M199.909 107.941C191.593 106.798 183.668 105.822 175.976 104.619C171.178 110.373 166.346 115.921 161.258 121.697C168.589 123.242 176.392 124.701 184.704 126.752C189.809 120.317 194.926 114.121 199.911 107.941H199.909Z" fill="#1A1A1A"/>
<path fill-rule="evenodd" clip-rule="evenodd" d="M45.5802 78.3156C43.3172 78.3329 41.1718 78.3373 39.1438 78.3719C36.7677 80.7523 34.3176 83.0743 32.0264 85.3854C34.0065 85.3508 35.7232 85.6819 37.8905 85.7598C40.3928 83.2604 42.9364 80.7675 45.5823 78.3135L45.5802 78.3156Z" fill="#1A1A1A"/>
<path fill-rule="evenodd" clip-rule="evenodd" d="M45.2231 70.9211C43.1712 71.17 41.2259 71.3583 39.3416 71.5119C37.0351 73.6759 34.8309 75.7555 32.6724 77.7983C34.4066 77.8092 36.1974 77.7875 38.0447 77.7139C40.3599 75.511 42.8208 73.1869 45.2231 70.9211Z" fill="#1A1A1A"/>
<path fill-rule="evenodd" clip-rule="evenodd" d="M439.332 263C433.268 260.444 427.343 257.928 421.564 255.441C420.593 257.923 419.64 260.444 418.7 263H439.334H439.332Z" fill="#1A1A1A"/>
<path fill-rule="evenodd" clip-rule="evenodd" d="M195.446 53.6372C188.274 54.0116 181.464 54.3405 174.977 54.6478C170.978 58.6122 167.02 62.633 162.938 66.4719C169.427 66.5108 175.92 66.42 182.904 66.3247C186.956 62.0314 191.245 57.8332 195.444 53.6372H195.446Z" fill="#1A1A1A"/>
<path fill-rule="evenodd" clip-rule="evenodd" d="M334.707 218.926C316.456 211.469 299.719 204.875 283.791 198.779C277.585 210.24 270.942 222.555 264.884 235.749C280.52 243.916 296.899 252.208 315.209 261.081C321.399 246.744 328.086 232.54 334.705 218.926H334.707Z" fill="#1A1A1A"/>
<path fill-rule="evenodd" clip-rule="evenodd" d="M231.371 178.295C219.823 174.005 208.831 170.19 198.639 166.436C192.703 174.921 186.654 183.917 180.77 193.012C190.512 197.993 201.241 203.053 212.206 208.171C218.594 198.151 224.969 187.838 231.369 178.297L231.371 178.295Z" fill="#1A1A1A"/>
<path fill-rule="evenodd" clip-rule="evenodd" d="M161.293 154.235C153.314 151.537 146.034 149.072 139.101 146.533C134.075 152.718 128.815 159.437 123.77 166.345C130.371 169.53 137.597 172.91 144.893 176.403C150.168 168.73 155.849 161.21 161.295 154.235H161.293Z" fill="#1A1A1A"/>
<path fill-rule="evenodd" clip-rule="evenodd" d="M135.141 145.307C128.532 143.091 122.342 141.132 116.408 139.343C111.438 145.205 106.614 151.156 101.645 157.074C107.289 159.483 113.04 161.902 119.261 164.912C124.651 158.001 129.814 151.344 135.141 145.307Z" fill="#1A1A1A"/>
<path fill-rule="evenodd" clip-rule="evenodd" d="M113.852 138.691C108.351 136.919 103.014 135.175 97.7761 133.402C93.4134 138.57 89.0485 143.649 84.5879 148.918C89.4119 151.076 94.5057 153.497 99.6888 155.83C104.541 149.985 109.332 144.209 113.85 138.689L113.852 138.691Z" fill="#1A1A1A"/>
<path fill-rule="evenodd" clip-rule="evenodd" d="M94.3162 132.353C89.6228 130.94 85.025 129.581 80.8255 128.228C76.4389 133.112 72.2742 137.657 68.166 142.541C72.1044 144.093 76.3431 145.852 80.9844 148.068C85.3623 142.509 89.9753 137.3 94.3162 132.353Z" fill="#1A1A1A"/>
<path fill-rule="evenodd" clip-rule="evenodd" d="M78.7669 127.791C74.4999 126.616 70.6768 125.27 66.8342 124.167C63.0698 128.228 59.2315 132.595 55.6543 136.826C59.1249 138.343 62.6934 140.029 66.8363 141.433C70.6834 137.042 74.7676 132.288 78.7647 127.791H78.7669Z" fill="#1A1A1A"/>
<path fill-rule="evenodd" clip-rule="evenodd" d="M64.7888 123.508C61.1115 122.52 57.6496 121.663 54.3814 120.708C50.9326 124.467 47.3836 128.165 44.1089 131.846C47.1008 132.982 50.3799 134.322 53.6351 135.93C57.2754 131.669 61.0223 127.616 64.7888 123.508Z" fill="#1A1A1A"/>
<path fill-rule="evenodd" clip-rule="evenodd" d="M52.876 120.237C49.7601 119.38 46.7791 118.471 43.9265 117.475C40.7388 120.905 37.5206 124.324 34.5156 127.659C37.0266 128.862 39.7988 130.057 42.6449 131.176C46.0502 127.575 49.4163 123.872 52.8782 120.237H52.876Z" fill="#1A1A1A"/>
<path fill-rule="evenodd" clip-rule="evenodd" d="M41.97 117.131C39.211 116.296 36.7609 115.355 34.3935 114.61C31.4625 117.547 28.5772 120.557 25.7246 123.476C27.8244 124.777 30.2309 125.952 32.8355 127.003C35.9057 123.64 38.8911 120.399 41.9722 117.131H41.97Z" fill="#1A1A1A"/>
<path fill-rule="evenodd" clip-rule="evenodd" d="M32.653 114.467C30.3595 113.677 28.0792 113.013 25.8684 112.405C23.451 114.933 20.7833 117.694 18.3311 120.379C20.3177 121.197 22.2564 122.128 24.3845 123.037C27.0608 120.23 29.8373 117.408 32.653 114.465V114.467Z" fill="#1A1A1A"/>
<path fill-rule="evenodd" clip-rule="evenodd" d="M25.2657 111.944C23.3574 111.165 21.4644 110.444 19.5191 109.804C17.2083 112.195 14.7125 114.87 12.4321 117.285C14.1511 118.148 15.8179 119.068 17.613 119.955C20.124 117.298 22.7373 114.684 25.2679 111.946L25.2657 111.944Z" fill="#1A1A1A"/>
<path fill-rule="evenodd" clip-rule="evenodd" d="M18.6333 109.265C16.8774 108.611 15.302 108.034 13.6744 107.538C11.418 109.769 9.20725 111.95 7.04004 114.275C8.49355 114.974 9.89702 115.82 11.3658 116.746C13.7658 114.288 16.1484 111.743 18.6312 109.265H18.6333Z" fill="#1A1A1A"/>
<path fill-rule="evenodd" clip-rule="evenodd" d="M146.464 101.592C140.232 100.955 134.233 100.473 128.48 99.843C124.226 104.42 119.887 109.107 115.56 113.729C121.11 114.66 126.652 115.774 132.876 117.034C137.415 111.786 141.906 106.567 146.464 101.592Z" fill="#1A1A1A"/>
<path fill-rule="evenodd" clip-rule="evenodd" d="M125.867 99.4275C120.443 98.7459 115.142 98.2849 110.381 97.6509C106.212 101.927 102.089 106.3 98.2178 110.583C102.931 111.496 107.794 112.418 113.047 113.258C117.216 108.772 121.611 103.989 125.867 99.4275Z" fill="#1A1A1A"/>
<path fill-rule="evenodd" clip-rule="evenodd" d="M108.018 97.389C103.07 96.9129 98.6335 96.491 94.3295 96.0776C90.6021 99.8603 86.692 103.916 82.9712 107.8C87.1098 108.579 91.3898 109.367 95.8961 110.321C99.8172 105.902 103.954 101.54 108.018 97.389Z" fill="#1A1A1A"/>
<path fill-rule="evenodd" clip-rule="evenodd" d="M92.2991 95.844C88.0865 95.4415 84.0872 95.197 80.2684 94.8442C76.7717 98.3716 73.0531 102.273 69.6782 105.744C73.3142 106.357 77.1264 106.811 81.0322 107.426C84.5985 103.706 88.5739 99.6505 92.3012 95.844H92.2991Z" fill="#1A1A1A"/>
<path fill-rule="evenodd" clip-rule="evenodd" d="M78.3993 94.7078C74.7133 94.2988 71.2688 93.7989 67.8112 93.6626C64.5626 96.8935 61.2356 100.256 57.9521 103.732C61.0507 104.266 64.3493 104.879 67.907 105.539C71.3297 101.886 74.9591 98.2286 78.3993 94.7078Z" fill="#1A1A1A"/>
<path fill-rule="evenodd" clip-rule="evenodd" d="M66.2097 93.6063C62.9894 93.299 60.0192 93.0155 57.0056 92.8164C53.8353 95.8785 50.6497 99.0293 47.895 101.955C50.5366 102.483 53.3653 103.028 56.4899 103.42C59.6689 100.029 62.8327 96.8263 66.2076 93.6063H66.2097Z" fill="#1A1A1A"/>
<path fill-rule="evenodd" clip-rule="evenodd" d="M55.6502 92.7147C52.7628 92.4204 49.9493 92.2321 47.4296 91.9595C44.5161 94.7943 41.6482 97.7179 38.813 100.542C41.1869 101.098 43.909 101.382 46.4657 101.758C49.4554 98.7999 52.4168 95.7768 55.6502 92.7169V92.7147Z" fill="#1A1A1A"/>
<path fill-rule="evenodd" clip-rule="evenodd" d="M45.9784 92.0049C43.4173 91.7777 41.0325 91.5505 38.7717 91.3406C36.2955 93.9028 33.6866 96.4801 31.0581 98.9903C33.2188 99.3539 35.51 99.9057 37.6925 100.393C40.4146 97.5642 43.1236 94.8787 45.9784 92.0049Z" fill="#1A1A1A"/>
<path fill-rule="evenodd" clip-rule="evenodd" d="M37.3857 91.1914C35.1967 91.0378 33.2406 90.7824 31.2366 90.6851C28.8496 92.9508 26.4517 95.3074 24.043 97.6986C25.8925 98.0405 27.6332 98.4538 29.6046 98.7784C32.1766 96.2617 34.8464 93.6887 37.3857 91.1893V91.1914Z" fill="#1A1A1A"/>
<path fill-rule="evenodd" clip-rule="evenodd" d="M30.0876 90.4815C28.2033 90.2543 26.5496 90.0509 24.7914 89.8972C22.5089 92.124 20.2133 94.2815 17.9634 96.5991C19.5083 96.9735 21.1707 97.2462 22.8962 97.6833C25.2505 95.2748 27.705 92.8489 30.0898 90.4815H30.0876Z" fill="#1A1A1A"/>
<path fill-rule="evenodd" clip-rule="evenodd" d="M24.0514 89.8561C22.463 89.5943 21.1052 89.2588 19.6952 88.9927C17.6324 91.055 15.5044 93.1454 13.5874 95.0822C14.832 95.4522 16.2507 95.8093 17.5606 96.2464C19.6974 94.1105 21.9364 91.9422 24.0514 89.8561Z" fill="#1A1A1A"/>
<path fill-rule="evenodd" clip-rule="evenodd" d="M18.7965 88.811C17.5605 88.5665 16.2158 88.4929 15.0974 88.1921C13.1434 90.1181 11.1764 92.0268 9.37256 93.8662C10.38 94.2059 11.3918 94.5759 12.5755 94.8941C14.5469 92.9638 16.6793 90.9642 18.7986 88.811H18.7965Z" fill="#1A1A1A"/>
<path fill-rule="evenodd" clip-rule="evenodd" d="M4.74443 89.9708C4.36364 89.6462 4.04378 89.1419 3.77179 88.7827C2.47277 90.1569 1.17375 91.3665 0.0901402 92.5827C0.0705569 93.18 0.279446 93.708 0.542732 94.2187C1.96578 92.8099 3.27351 91.4639 4.74225 89.9708H4.74443Z" fill="#1A1A1A"/>
<path fill-rule="evenodd" clip-rule="evenodd" d="M30.0786 78.7526C33.1858 78.0947 36.2386 77.4347 39.744 76.7422C40.5687 76.3224 41.3455 76.1298 42.3377 75.7598C38.6169 76.6686 35.2312 77.3893 31.9586 78.1618C31.1927 78.679 30.6813 78.441 30.0786 78.7526Z" fill="#1A1A1A"/>
<path fill-rule="evenodd" clip-rule="evenodd" d="M51.2329 75.2838C55.6326 74.9029 60.0846 74.9137 64.9303 74.693C65.8399 74.6086 66.8669 74.5329 67.9287 74.2104C62.8676 74.693 58.2307 74.5848 53.757 74.8532C52.7038 75.2448 51.9009 75.1042 51.2329 75.286V75.2838Z" fill="#1A1A1A"/>
<path fill-rule="evenodd" clip-rule="evenodd" d="M139.425 84.4266C133.813 84.0696 128.245 83.8705 123.217 83.5459C119.187 87.5774 115.205 91.6782 111.319 95.8526C116.291 96.3525 121.589 96.835 126.866 97.4474C131.026 92.955 135.33 88.4971 139.423 84.4245L139.425 84.4266Z" fill="#1A1A1A"/>
<path fill-rule="evenodd" clip-rule="evenodd" d="M120.771 83.4054C115.749 83.3253 110.982 83.2236 106.506 83.031C102.874 86.7574 98.8793 90.6591 95.3608 94.379C99.5952 94.7945 104.195 95.117 108.945 95.5043C112.792 91.4425 116.846 87.3374 120.771 83.4075V83.4054Z" fill="#1A1A1A"/>
<path fill-rule="evenodd" clip-rule="evenodd" d="M104.349 83.0135C99.9149 82.9053 95.748 82.9118 91.6377 82.8145C88.1475 86.1362 84.666 89.67 81.2847 93.3099C85.1447 93.5198 89.1376 93.7989 93.3001 94.2858C96.7642 90.5832 100.705 86.6642 104.352 83.0114L104.349 83.0135Z" fill="#1A1A1A"/>
<path fill-rule="evenodd" clip-rule="evenodd" d="M89.7227 82.6956C85.8082 82.6155 82.1592 82.6848 78.6168 82.5701C75.268 85.7793 72.0107 88.9777 68.8447 92.1523C72.1804 92.2994 75.6706 92.7192 79.4088 93.1239C82.8163 89.6485 86.2956 86.0584 89.7227 82.6956Z" fill="#1A1A1A"/>
<path fill-rule="evenodd" clip-rule="evenodd" d="M76.9087 82.4898C73.399 82.5569 70.344 82.3924 67.1432 82.4227C63.9881 85.4675 60.9201 88.3975 57.9478 91.3795C60.9005 91.6457 63.9816 91.8967 67.2455 92.1001C70.4092 88.8693 73.6274 85.8137 76.9087 82.4898Z" fill="#1A1A1A"/>
<path fill-rule="evenodd" clip-rule="evenodd" d="M65.6789 82.3146C62.5456 82.28 59.706 82.2692 56.8708 82.1675C53.9638 84.972 51.1525 87.7441 48.3281 90.5724C50.8609 91.0615 53.6091 91.1849 56.4856 91.384C59.5711 88.3219 62.4672 85.3637 65.6811 82.3146H65.6789Z" fill="#1A1A1A"/>
<path fill-rule="evenodd" clip-rule="evenodd" d="M55.548 82.2C52.9021 82.2 50.2126 82.319 47.9192 82.2562C45.2646 84.7383 42.5447 87.3957 39.8574 89.9406C42.1661 90.0769 44.5422 90.2695 47.051 90.566C49.7644 87.7549 52.6953 85.0002 55.548 82.2Z" fill="#1A1A1A"/>
<path fill-rule="evenodd" clip-rule="evenodd" d="M153.486 69.4734C147.583 69.5361 141.886 69.6205 136.564 69.7526C132.68 73.6434 128.807 77.385 124.981 81.2434C130.217 81.4187 135.724 81.6805 141.253 81.9186C145.398 77.7334 149.556 73.4898 153.486 69.4756V69.4734Z" fill="#1A1A1A"/>
<path fill-rule="evenodd" clip-rule="evenodd" d="M134.079 69.928C128.883 69.9453 123.854 70.1725 119.176 70.3261C115.499 73.8989 111.795 77.4717 108.229 81.0206C112.779 80.9752 117.655 81.0488 122.568 81.276C126.324 77.3289 130.162 73.6306 134.079 69.928Z" fill="#1A1A1A"/>
<path fill-rule="evenodd" clip-rule="evenodd" d="M116.811 70.365C112.204 70.4559 107.744 70.6377 103.531 70.8259C100.174 74.0524 96.7552 77.3807 93.3325 80.8799C97.3688 80.908 101.601 80.9881 105.966 81.0552C109.524 77.4543 113.227 73.8144 116.809 70.365H116.811Z" fill="#1A1A1A"/>
<path fill-rule="evenodd" clip-rule="evenodd" d="M101.597 70.8477C97.4059 71.0857 93.7874 71.1593 89.9643 71.3757C86.5699 74.5286 83.4888 77.5561 80.2271 80.7068C83.8695 80.7242 87.5751 80.6852 91.544 80.7631C94.7513 77.4132 98.1762 74.085 101.597 70.8477Z" fill="#1A1A1A"/>
<path fill-rule="evenodd" clip-rule="evenodd" d="M88.004 71.54C84.5226 71.6071 81.1129 71.7045 77.7206 71.9036C74.5786 74.931 71.5715 77.8048 68.6558 80.6332C71.6955 80.7868 74.9659 80.8085 78.5257 80.7306C81.6743 77.5668 84.825 74.6021 88.004 71.54Z" fill="#1A1A1A"/>
<path fill-rule="evenodd" clip-rule="evenodd" d="M76.0536 71.9556C72.7353 72.1828 69.8174 72.3083 67.017 72.4208C64.0512 75.1518 61.018 77.9066 58.3003 80.5769C61.0724 80.6224 63.9707 80.7133 67.1498 80.6332C70.0677 77.8157 73.0226 74.9484 76.0536 71.9556Z" fill="#1A1A1A"/>
<path fill-rule="evenodd" clip-rule="evenodd" d="M65.272 72.7498C62.3215 72.9943 59.7104 73.1306 57.0492 73.2886C54.3358 75.8551 51.4984 78.5017 48.8765 81.1504C51.3809 80.9578 54.016 80.9232 56.7663 80.8107C59.4928 78.2485 62.204 75.6885 65.272 72.7519V72.7498Z" fill="#1A1A1A"/>
<path fill-rule="evenodd" clip-rule="evenodd" d="M146.59 57.448C141.188 57.7553 136.074 57.9652 131.131 58.3677C127.466 61.8604 123.928 65.2406 120.351 68.8804C125.229 68.5515 130.108 68.5169 135.395 68.3632C138.988 64.7169 142.739 61.077 146.588 57.448H146.59Z" fill="#1A1A1A"/>
<path fill-rule="evenodd" clip-rule="evenodd" d="M128.657 58.7163C123.817 58.937 119.37 59.3525 114.883 59.8243C111.473 62.9599 108.17 66.1561 104.789 69.4108C109.147 69.0472 113.39 69.0364 118.104 68.8893C121.655 65.4182 125.223 61.8866 128.657 58.7163Z" fill="#1A1A1A"/>
<path fill-rule="evenodd" clip-rule="evenodd" d="M112.811 59.9995C108.551 60.3284 104.602 60.7483 100.602 61.1811C97.3646 64.1111 94.2378 67.1624 90.9805 70.2223C94.8362 69.8306 98.6223 69.7505 102.857 69.4389C106.031 66.3725 109.406 63.2087 112.811 59.9995Z" fill="#1A1A1A"/>
<path fill-rule="evenodd" clip-rule="evenodd" d="M98.6548 61.3218C94.8861 61.6572 91.3372 61.8606 87.8144 62.196C84.7725 65.0352 81.8198 67.8419 78.8018 70.72C82.1918 70.5447 85.5362 70.3954 89.2897 70.2266C92.497 67.2057 95.4693 64.2691 98.6548 61.3218Z" fill="#1A1A1A"/>
<path fill-rule="evenodd" clip-rule="evenodd" d="M86.0632 62.408C82.882 62.6179 79.7139 62.9187 76.4544 63.3796C73.593 65.9915 70.7273 68.7139 67.9443 71.3193C70.9079 71.1765 73.9803 70.8822 77.1398 70.8021C80.2187 67.9218 83.1801 65.1909 86.0632 62.408Z" fill="#1A1A1A"/>
<path fill-rule="evenodd" clip-rule="evenodd" d="M66.7171 65.4116C63.9189 65.7579 61.2382 66.076 58.7772 66.2924C56.2488 68.6143 53.5506 71.0748 50.9482 73.518C53.4223 73.2972 55.9703 73.2388 58.5117 73.0808C61.0946 70.5468 63.8863 67.9868 66.7171 65.4138V65.4116Z" fill="#1A1A1A"/>
<path fill-rule="evenodd" clip-rule="evenodd" d="M57.2667 66.4221C54.8688 66.632 52.5819 66.7857 50.3625 67.0648C48.0386 69.3024 45.6951 71.3928 43.4604 73.5785C45.4231 73.5503 47.6643 73.3902 49.8033 73.3231C52.1924 71.0964 54.7839 68.6705 57.2667 66.4221Z" fill="#1A1A1A"/>
<path fill-rule="evenodd" clip-rule="evenodd" d="M140.746 47.5435C135.885 48.1169 131.198 48.6687 126.474 49.2314C123.128 52.3432 119.862 55.3598 116.424 58.5236C121.059 57.922 125.408 57.6602 130.367 57.1257C133.755 53.8494 137.276 50.7635 140.746 47.5435Z" fill="#1A1A1A"/>
<path fill-rule="evenodd" clip-rule="evenodd" d="M124.303 49.4587C119.975 49.9305 115.627 50.5429 111.495 51.0601C108.429 53.9512 105.235 56.8704 102.034 59.8632C106.081 59.4153 109.989 59.1015 114.356 58.7379C117.788 55.5244 121.065 52.5359 124.303 49.4565V49.4587Z" fill="#1A1A1A"/>
<path fill-rule="evenodd" clip-rule="evenodd" d="M109.517 51.2915C105.675 51.7286 101.906 52.2458 98.0415 52.8258C95.0975 55.587 92.284 58.1146 89.2095 60.9429C92.7279 60.6075 96.3204 60.324 100.1 60.073C103.24 57.0629 106.486 54.0744 109.517 51.2915Z" fill="#1A1A1A"/>
<path fill-rule="evenodd" clip-rule="evenodd" d="M96.3597 53.0876C92.9478 53.6092 89.5381 54.0593 86.3004 54.4964C83.4869 57.0759 80.5451 59.664 77.749 62.2046C80.9607 61.8757 84.1223 61.5294 87.4558 61.1529C90.5391 58.3635 93.457 55.7234 96.3597 53.0876Z" fill="#1A1A1A"/>
<path fill-rule="evenodd" clip-rule="evenodd" d="M75.8642 56.7168C72.9289 57.1885 70.2112 57.5131 67.6588 57.8421C65.0216 60.2549 62.3605 62.631 59.8604 65.0612C62.3714 64.7993 64.9411 64.5397 67.7916 64.1761C70.444 61.7113 73.0856 59.292 75.8642 56.719V56.7168Z" fill="#1A1A1A"/>
<path fill-rule="evenodd" clip-rule="evenodd" d="M65.766 58.5669C63.168 58.9131 60.8528 59.2767 58.4919 59.7138C56.0375 61.8994 53.6288 64.0634 51.0503 66.3919C53.2654 66.1019 55.6611 65.9201 58.0568 65.721C60.5656 63.3233 63.1158 60.9494 65.7682 58.5647L65.766 58.5669Z" fill="#1A1A1A"/>
<path fill-rule="evenodd" clip-rule="evenodd" d="M151.175 36.0461C146.051 36.8489 141.212 37.5652 136.559 38.3681C133.217 41.1467 130.047 44.0031 126.618 47.1323C131.307 46.416 136.042 45.9053 140.879 45.2799C144.327 42.0945 147.733 39.0714 151.173 36.0439L151.175 36.0461Z" fill="#1A1A1A"/>
<path fill-rule="evenodd" clip-rule="evenodd" d="M134.351 38.5996C129.771 39.3873 125.397 40.0019 121.106 40.7441C118.134 43.4989 115.02 46.1563 111.865 49.0431C116.028 48.4415 120.325 47.9135 124.671 47.2534C127.854 44.3623 131.035 41.5448 134.351 38.5996Z" fill="#1A1A1A"/>
<path fill-rule="evenodd" clip-rule="evenodd" d="M146.214 28.3618C141.555 29.182 137.09 30.0822 132.726 30.8959C129.586 33.6723 126.515 36.3362 123.441 39.0087C127.56 38.3032 132.031 37.6216 136.723 36.8252C139.821 34.0704 143.055 31.2226 146.216 28.3618H146.214Z" fill="#1A1A1A"/>
<path fill-rule="evenodd" clip-rule="evenodd" d="M196.887 31.2766C190.185 32.2006 183.944 33.0597 178.008 33.6765C174.059 37.0761 170.443 40.5645 166.944 43.8365C172.706 43.3539 178.842 42.6614 185.348 41.9624C189.049 38.433 192.898 34.8559 196.884 31.2788L196.887 31.2766Z" fill="#1A1A1A"/>
<path fill-rule="evenodd" clip-rule="evenodd" d="M16.0331 97.2398C14.61 96.8481 13.3066 96.4326 12.062 96.0972C10.1298 98.0058 8.13231 99.9534 6.23926 102.096C7.20101 102.596 8.33467 103.197 9.53142 103.743C11.5985 101.659 13.8223 99.3799 16.0331 97.2398Z" fill="#1A1A1A"/>
<path fill-rule="evenodd" clip-rule="evenodd" d="M21.3645 98.5858C19.6955 98.1941 18.1484 97.7678 16.6623 97.3826C14.3928 99.6764 12.2256 101.882 10.1606 103.976C11.3618 104.634 12.6847 105.249 14.1295 105.878C16.4795 103.442 18.9296 100.949 21.3645 98.5858Z" fill="#1A1A1A"/>
<path fill-rule="evenodd" clip-rule="evenodd" d="M27.5591 99.9902C25.6443 99.6504 23.9035 99.1787 22.2259 98.7004C19.6801 101.273 17.23 103.71 14.9409 106.091C16.5076 106.597 18.0829 107.192 19.9521 107.664C22.4652 105.097 25.0785 102.518 27.5612 99.9902H27.5591Z" fill="#1A1A1A"/>
<path fill-rule="evenodd" clip-rule="evenodd" d="M35.4684 101.568C33.2294 101.085 31.0557 100.574 28.8972 100.232C26.3579 102.749 23.6967 105.571 21.127 108.235C23.07 108.763 24.9653 109.535 26.9258 110.302C29.7153 107.302 32.6615 104.452 35.4684 101.565V101.568Z" fill="#1A1A1A"/>
<path fill-rule="evenodd" clip-rule="evenodd" d="M44.0613 102.987C41.4437 102.596 38.8391 102.204 36.6458 101.704C33.7823 104.543 30.8383 107.43 27.9922 110.406C30.2051 111.126 32.5399 111.752 34.9508 112.433C37.836 109.343 40.8736 106.22 44.0613 102.987Z" fill="#1A1A1A"/>
<path fill-rule="evenodd" clip-rule="evenodd" d="M53.8618 104.857C50.8481 104.392 48.0804 103.868 45.4388 103.312C42.1401 106.658 39.0503 109.871 36.165 112.916C38.589 113.608 41.2132 114.472 43.907 115.283C47.2905 111.71 50.4195 108.428 53.8618 104.855V104.857Z" fill="#1A1A1A"/>
<path fill-rule="evenodd" clip-rule="evenodd" d="M64.926 107.179C61.4989 106.595 58.3155 105.935 55.2105 105.305C51.8901 108.832 48.587 112.228 45.2622 115.738C48.1083 116.664 51.1481 117.566 54.2618 118.475C57.7824 114.64 61.4489 110.797 64.926 107.179Z" fill="#1A1A1A"/>
<path fill-rule="evenodd" clip-rule="evenodd" d="M78.9239 109.207C74.9898 108.423 71.2233 107.837 67.7201 107.326C64.1255 110.905 60.4786 114.822 56.9058 118.646C60.2197 119.436 63.7969 120.286 67.3654 121.464C71.2951 117.153 75.0355 113.149 78.9261 109.207H78.9239Z" fill="#1A1A1A"/>
<path fill-rule="evenodd" clip-rule="evenodd" d="M93.3178 111.752C88.8854 110.888 84.5205 109.912 80.6909 109.157C76.7655 113.275 72.7923 117.335 69.041 121.544C72.8206 122.697 76.8199 123.957 81.1848 124.987C85.1842 120.544 89.2161 116.233 93.3178 111.754V111.752Z" fill="#1A1A1A"/>
<path fill-rule="evenodd" clip-rule="evenodd" d="M110.427 114.803C105.294 113.911 100.202 113.139 95.8044 111.873C91.6636 116.435 87.4314 121.035 83.5039 125.515C87.8688 126.776 92.4535 128.06 97.3079 129.28C101.747 124.305 105.996 119.596 110.429 114.803H110.427Z" fill="#1A1A1A"/>
<path fill-rule="evenodd" clip-rule="evenodd" d="M129.812 118.897C123.78 117.653 118.234 116.54 113.021 115.359C108.545 120.271 104.023 125.179 99.606 130.297C105.046 131.801 110.063 133.677 115.821 135.146C120.577 129.682 125.28 124.242 129.812 118.897Z" fill="#1A1A1A"/>
<path fill-rule="evenodd" clip-rule="evenodd" d="M152.217 124.019C145.163 122.639 138.912 121.334 132.608 119.964C127.904 125.359 123.21 130.851 118.51 136.22C124.396 138.163 130.63 140.065 137.171 142.013C142.345 135.713 147.263 129.791 152.217 124.019Z" fill="#1A1A1A"/>
<path fill-rule="evenodd" clip-rule="evenodd" d="M385.424 92.8337C380.983 89.2891 376.635 85.712 372.662 82.4465C366.243 86.0756 359.852 89.4557 353.398 93.2882C357 97.0427 360.566 100.979 364.876 105.006C371.835 100.899 378.789 96.8155 385.421 92.8337H385.424Z" fill="#1A1A1A"/>
<path fill-rule="evenodd" clip-rule="evenodd" d="M167.579 85.5586C165.813 83.7819 164.087 82.1286 162.292 80.7134C159.792 82.4619 157.187 84.3251 154.615 86.0974C156.212 87.7788 157.72 89.5858 159.341 91.6178C162.109 89.5512 164.87 87.4997 167.582 85.5586H167.579Z" fill="#1A1A1A"/>
<path fill-rule="evenodd" clip-rule="evenodd" d="M97.6584 19.9223C96.9708 18.8749 96.3398 17.7842 95.7589 16.6914C93.509 18.5503 91.1067 20.5628 88.748 22.5234C89.1158 23.7807 89.6358 24.9298 90.2233 26.1611C92.6908 24.0901 95.1996 21.9846 97.6563 19.9223H97.6584Z" fill="#1A1A1A"/>
<path fill-rule="evenodd" clip-rule="evenodd" d="M462.912 201.62C457.362 197.281 452.126 193.124 447.041 189.465C440.42 191.499 433.923 193.908 427.105 196.206C432.049 200.205 436.915 204.527 441.915 209.183C449.026 206.513 456.3 204.107 462.915 201.618L462.912 201.62Z" fill="#1A1A1A"/>
<path fill-rule="evenodd" clip-rule="evenodd" d="M113.503 33.9968C112.957 33.3974 112.526 32.8131 112.098 32.2505C110.635 33.3108 109.165 34.3517 107.744 35.3904C108.072 36.0332 108.412 36.7884 108.792 37.4203C110.366 36.2842 111.88 35.1567 113.503 33.9947V33.9968Z" fill="#1A1A1A"/>
<path fill-rule="evenodd" clip-rule="evenodd" d="M163.889 6.57245C162.571 6.01198 161.322 5.51642 160.086 5.05981C158.221 6.32575 156.358 7.63497 154.452 9.01561C155.492 9.641 156.635 10.1972 157.934 10.9156C159.875 9.40297 161.883 7.98987 163.889 6.57461V6.57245Z" fill="#1A1A1A"/>
<path fill-rule="evenodd" clip-rule="evenodd" d="M444.334 57.9264C439.108 55.7797 434.249 53.9057 429.632 52.1399C423.661 54.6112 418.008 56.9786 412.599 59.4888C416.77 61.5684 421.163 63.6978 426.078 66.3163C432.389 63.3797 438.52 60.467 444.334 57.9264Z" fill="#1A1A1A"/>
<path fill-rule="evenodd" clip-rule="evenodd" d="M142.515 3.22686C141.719 2.85248 141.122 2.36126 140.491 1.99121C138.973 2.98232 137.526 4.10111 136.063 5.18095C136.599 5.65486 137.093 6.21534 137.739 6.64814C139.195 5.53801 140.853 4.36296 142.515 3.22686Z" fill="#1A1A1A"/>
<path fill-rule="evenodd" clip-rule="evenodd" d="M29.0646 78.3782C28.8861 77.9238 28.6511 77.4694 28.5293 77.0322C27.6546 77.6295 26.8386 78.3112 25.9639 78.9344C26.0313 79.4624 26.1532 79.9623 26.275 80.4622C27.2607 79.7632 28.1376 79.0707 29.0646 78.3782Z" fill="#1A1A1A"/>
<path fill-rule="evenodd" clip-rule="evenodd" d="M466.927 128.371C463.206 126.594 460.195 124.917 457.018 123.312C452.353 124.629 447.886 125.822 443.434 127.112C446.164 128.758 449.256 130.678 452.529 132.496C457.405 131.171 462.181 129.73 466.927 128.371Z" fill="#1A1A1A"/>
<path fill-rule="evenodd" clip-rule="evenodd" d="M193.112 -2.02287C191.806 -2.40806 190.473 -2.67207 189.343 -3.06592C187.526 -1.88221 185.607 -0.653058 183.888 0.48737C184.983 0.967778 186.008 1.37677 187.217 1.82689C189.026 0.586915 191.141 -0.780732 193.112 -2.02287Z" fill="#1A1A1A"/>
<path fill-rule="evenodd" clip-rule="evenodd" d="M124.361 4.56202C123.608 4.32398 122.866 4.15519 122.172 3.94312C121.004 4.78275 119.681 5.70461 118.454 6.53559C119.152 6.78228 119.796 7.01167 120.499 7.26269C121.822 6.34515 123.043 5.48172 124.363 4.56202H124.361Z" fill="#1A1A1A"/>
<path fill-rule="evenodd" clip-rule="evenodd" d="M106.621 23.8692C105.868 23.6225 105.163 23.339 104.471 23.1572C103.37 23.9038 102.16 24.7045 100.999 25.4489C101.697 25.6956 102.395 25.9553 103.046 26.2496C104.201 25.4641 105.413 24.6742 106.621 23.8692Z" fill="#1A1A1A"/>
<path fill-rule="evenodd" clip-rule="evenodd" d="M223.751 34.1959C222.117 33.7696 220.55 33.3346 219.044 32.9321C217.062 33.999 215.132 35.0139 213.041 36.1305C214.588 36.4833 216.107 36.9658 217.624 37.4138C219.595 36.3145 221.753 35.2238 223.751 34.1959Z" fill="#1A1A1A"/>
<path fill-rule="evenodd" clip-rule="evenodd" d="M88.3913 40.7681C87.6928 40.5236 86.9878 40.2011 86.3459 39.9436C85.2645 40.6642 84.2897 41.3242 83.2583 42.0275C83.8458 42.3002 84.4377 42.6075 85.0861 42.9364C86.1697 42.1877 87.2576 41.5341 88.3913 40.7659V40.7681Z" fill="#1A1A1A"/>
<path fill-rule="evenodd" clip-rule="evenodd" d="M97.256 12.1231C96.6446 11.9651 96.0462 11.9045 95.4391 11.792C94.5492 12.3979 93.6157 13.0752 92.7192 13.6444C93.2197 13.7526 93.8289 13.9084 94.3381 14.0815C95.326 13.3998 96.2638 12.742 97.256 12.1253V12.1231Z" fill="#1A1A1A"/>
<path fill-rule="evenodd" clip-rule="evenodd" d="M546 168.243C541.035 166.75 535.784 164.977 530.477 163.439C525.562 164.49 520.252 165.239 515.261 166.159C520.033 167.617 525.2 169.327 529.974 171.021C535.551 170.084 540.71 169.221 546 168.245V168.243Z" fill="#1A1A1A"/>
<path fill-rule="evenodd" clip-rule="evenodd" d="M5.72138 98.3889C5.38629 98.1401 5.0512 97.8826 4.83143 97.6445C4.20694 98.0427 3.5237 98.4971 2.95361 98.8607C3.17338 99.1269 3.44972 99.3541 3.72607 99.6397C4.4093 99.1788 5.03814 98.7936 5.72138 98.3911V98.3889Z" fill="#1A1A1A"/>
<path fill-rule="evenodd" clip-rule="evenodd" d="M300.767 71.8648C298.295 71.2632 295.647 70.904 293.125 70.3586C290.641 71.2221 288.38 71.9773 286.158 72.8645C288.447 73.2844 290.926 73.8751 293.513 74.4659C295.93 73.5743 298.413 72.7174 300.765 71.8648H300.767Z" fill="#1A1A1A"/>
<path fill-rule="evenodd" clip-rule="evenodd" d="M292.329 116.698C290.099 115.307 287.893 113.922 285.673 112.717C282.566 113.909 279.398 115.311 276.208 116.664C278.273 118.038 280.325 119.377 282.398 120.94C285.856 119.373 289.131 118.059 292.329 116.696V116.698Z" fill="#1A1A1A"/>
<path fill-rule="evenodd" clip-rule="evenodd" d="M238.325 61.3346C236.315 60.1877 234.461 59.1641 232.74 58.1665C230.094 59.6315 227.337 61.1874 224.582 62.7715C226.314 63.834 227.861 65.1108 229.791 66.2079C232.72 64.5655 235.516 62.9316 238.325 61.3346Z" fill="#1A1A1A"/>
</g>
</g>
<path d="M0 1H1920V-1H0V1ZM1920 262H0V264H1920V262Z" fill="#262626" mask="url(#path-1-inside-1_181_2)"/>
<defs>
<clipPath id="clip0_181_2">
<path d="M0 0H1920V263H0V0Z" fill="white"/>
</clipPath>
<clipPath id="clip1_181_2">
<rect width="725" height="394" fill="white" transform="matrix(-1 0 0 1 2012 -68)"/>
</clipPath>
<clipPath id="clip2_181_2">
<rect width="566" height="308" fill="white" transform="translate(-20 -45)"/>
</clipPath>
</defs>
</svg>
