<svg width="69" height="30" viewBox="0 0 69 30" fill="none" xmlns="http://www.w3.org/2000/svg">
<g clip-path="url(#clip0_75_604)">
<path d="M15 30.0166C23.2843 30.0166 30 23.3009 30 15.0166C30 6.73237 23.2843 0.0167236 15 0.0167236C6.71573 0.0167236 0 6.73237 0 15.0166C0 23.3009 6.71573 30.0166 15 30.0166Z" fill="#666666"/>
<path d="M0 45C8.28427 45 15 38.2843 15 30C15 21.7157 8.28427 15 0 15C-8.28427 15 -15 21.7157 -15 30C-15 38.2843 -8.28427 45 0 45Z" fill="#141414"/>
<path d="M30 45C38.2843 45 45 38.2843 45 30C45 21.7157 38.2843 15 30 15C21.7157 15 15 21.7157 15 30C15 38.2843 21.7157 45 30 45Z" fill="#141414"/>
<path d="M0 15C8.28427 15 15 8.28427 15 0C15 -8.28427 8.28427 -15 0 -15C-8.28427 -15 -15 -8.28427 -15 0C-15 8.28427 -8.28427 15 0 15Z" fill="#141414"/>
<path d="M30 15C38.2843 15 45 8.28427 45 0C45 -8.28427 38.2843 -15 30 -15C21.7157 -15 15 -8.28427 15 0C15 8.28427 21.7157 15 30 15Z" fill="#141414"/>
</g>
<g clip-path="url(#clip1_75_604)">
<path d="M45 24.01C49.9706 24.01 54 19.9805 54 15.01C54 10.0394 49.9706 6.01001 45 6.01001C40.0294 6.01001 36 10.0394 36 15.01C36 19.9805 40.0294 24.01 45 24.01Z" fill="#333333"/>
<path d="M36 33C40.9706 33 45 28.9706 45 24C45 19.0294 40.9706 15 36 15C31.0294 15 27 19.0294 27 24C27 28.9706 31.0294 33 36 33Z" fill="#141414"/>
<path d="M54 33C58.9706 33 63 28.9706 63 24C63 19.0294 58.9706 15 54 15C49.0294 15 45 19.0294 45 24C45 28.9706 49.0294 33 54 33Z" fill="#141414"/>
<path d="M36 15C40.9706 15 45 10.9706 45 6C45 1.02944 40.9706 -3 36 -3C31.0294 -3 27 1.02944 27 6C27 10.9706 31.0294 15 36 15Z" fill="#141414"/>
<path d="M54 15C58.9706 15 63 10.9706 63 6C63 1.02944 58.9706 -3 54 -3C49.0294 -3 45 1.02944 45 6C45 10.9706 49.0294 15 54 15Z" fill="#141414"/>
</g>
<g clip-path="url(#clip2_75_604)">
<path d="M64.2 19.2048C66.5196 19.2048 68.4 17.3244 68.4 15.0048C68.4 12.6852 66.5196 10.8048 64.2 10.8048C61.8804 10.8048 60 12.6852 60 15.0048C60 17.3244 61.8804 19.2048 64.2 19.2048Z" fill="#333333"/>
<path d="M59.9998 23.4001C62.3194 23.4001 64.1998 21.5197 64.1998 19.2001C64.1998 16.8805 62.3194 15.0001 59.9998 15.0001C57.6802 15.0001 55.7998 16.8805 55.7998 19.2001C55.7998 21.5197 57.6802 23.4001 59.9998 23.4001Z" fill="#141414"/>
<path d="M68.3997 23.4001C70.7193 23.4001 72.5997 21.5197 72.5997 19.2001C72.5997 16.8805 70.7193 15.0001 68.3997 15.0001C66.0801 15.0001 64.1997 16.8805 64.1997 19.2001C64.1997 21.5197 66.0801 23.4001 68.3997 23.4001Z" fill="#141414"/>
<path d="M59.9998 15.0001C62.3194 15.0001 64.1998 13.1197 64.1998 10.8001C64.1998 8.4805 62.3194 6.6001 59.9998 6.6001C57.6802 6.6001 55.7998 8.4805 55.7998 10.8001C55.7998 13.1197 57.6802 15.0001 59.9998 15.0001Z" fill="#141414"/>
<path d="M68.3997 15.0001C70.7193 15.0001 72.5997 13.1197 72.5997 10.8001C72.5997 8.4805 70.7193 6.6001 68.3997 6.6001C66.0801 6.6001 64.1997 8.4805 64.1997 10.8001C64.1997 13.1197 66.0801 15.0001 68.3997 15.0001Z" fill="#141414"/>
</g>
<defs>
<clipPath id="clip0_75_604">
<rect width="30" height="30" fill="white"/>
</clipPath>
<clipPath id="clip1_75_604">
<rect width="18" height="18" fill="white" transform="translate(36 6)"/>
</clipPath>
<clipPath id="clip2_75_604">
<rect width="8.4" height="8.4" fill="white" transform="translate(60 10.8)"/>
</clipPath>
</defs>
</svg>
